# Blender 5.1.1
# www.blender.org
mtllib suzzane.mtl
o Suzanne
v 2.735141 3.318611 1.558115
v 0.088820 1.153633 4.425284
v 2.953071 3.033629 1.048042
v -0.071296 0.559368 4.324806
v 2.943581 2.768492 0.467058
v -0.364320 0.062269 4.051019
v 2.704226 2.057927 1.259689
v 0.577718 0.318212 3.563664
v 2.785215 2.484507 1.656547
v 0.658707 0.744792 3.960522
v 2.615771 3.015054 1.900768
v 0.489263 1.275340 4.204742
v 2.318211 2.977517 2.217820
v 0.664260 1.624405 4.009800
v 2.193908 2.412552 2.234524
v 0.965260 1.407383 3.565710
v 1.940512 1.947872 2.021792
v 0.995397 1.174666 3.045781
v 1.118593 2.510846 2.308317
v 0.646036 2.124243 2.820311
v 1.525568 2.843796 2.439322
v 0.674965 2.147910 3.360912
v 1.971427 3.208557 2.320219
v 0.506499 2.010087 3.907401
v 1.788438 3.625074 2.217820
v 0.134488 2.271963 4.009800
v 1.235273 3.584322 2.234524
v 0.006624 2.579154 3.565710
v 0.704377 3.458839 2.021792
v -0.240738 2.685633 3.045781
v 0.963546 4.185615 1.259689
v -1.162962 2.445900 3.563664
v 1.422943 4.149654 1.656547
v -0.703565 2.409940 3.960522
v 1.884180 3.909300 1.900768
v -0.242327 2.169586 4.204742
v 2.205369 3.966168 1.558115
v -0.440953 1.801190 4.425284
v 1.994435 4.205399 1.048042
v -1.029931 1.731139 4.324806
v 1.707446 4.279459 0.467058
v -1.600455 1.573236 4.051019
v 2.534778 3.669439 0.150006
v -1.245680 0.576614 4.245961
v 2.623148 3.741736 0.782190
v -0.779264 0.958193 4.468549
v 2.557566 3.688082 1.425189
v -0.277778 1.368463 4.497155
v 2.620821 3.739832 1.460644
v -0.261778 1.381552 4.583810
v 2.243397 4.048754 1.593571
v -0.450180 1.845116 4.511939
v 1.893167 4.019602 1.992350
v -0.233341 2.279887 4.296325
v 1.799025 3.685209 2.335002
v 0.192330 2.370759 4.075783
v 1.983613 3.218526 2.463001
v 0.613196 2.097377 3.947784
v 2.379252 2.975980 2.335002
v 0.772557 1.661529 4.075783
v 2.381472 3.544018 2.083933
v 0.254964 1.804304 4.387908
v 2.725667 3.002012 1.992350
v 0.599159 1.262297 4.296325
v 2.823623 3.339524 1.593571
v 0.130047 1.135886 4.511939
v 0.494812 3.235918 2.900117
v 0.945223 3.089656 3.205393
v 4.057268 -1.159012 2.869590
v 3.015697 0.356706 3.052755
v 2.626462 0.913338 3.113810
v 4.320367 -1.561465 2.808534
v 0.213846 2.851633 2.350621
v -0.395182 3.434351 2.228511
v -4.288099 2.411458 -2.136928
v -3.976066 0.453324 -3.327503
v -2.327308 -1.440719 -3.235920
v 0.344514 -2.240410 -1.373740
v 2.646372 0.929627 1.532391
v 1.417723 -0.075541 2.863576
v 3.804248 0.229705 1.204522
v 1.914019 -1.316707 3.252500
v 4.754887 -0.691234 1.076524
v 2.628379 -2.430948 3.380498
v 5.333755 -1.504524 0.872687
v 3.112735 -3.321559 3.279060
v 5.372392 -1.833237 0.970158
v 3.387651 -3.456971 3.120534
v 5.078400 -2.228179 1.578662
v 3.991518 -3.117367 2.756249
v 4.644855 -2.685815 2.259039
v 3.124589 1.629709 0.642289
v 0.478268 -0.535269 3.509458
v 3.407146 2.530042 0.032824
v -0.420569 -0.601444 4.179978
v 3.154623 3.558843 -0.973500
v -1.854485 -0.539151 4.453640
v 2.717416 5.054249 -0.495875
v -2.480715 0.801613 5.136063
v 2.171150 4.967668 0.112630
v -2.129121 1.449578 4.771778
v 1.289672 5.018643 1.073642
v -1.687439 2.583043 4.299207
v 0.384197 5.307360 1.820001
v -1.553288 3.722286 3.919178
v 0.073589 4.795876 2.449178
v -0.871526 4.022669 3.473167
v 0.501831 3.653458 2.725847
v 0.123785 3.344175 3.135442
v 1.120707 3.645019 2.484633
v 0.128337 2.833152 3.559821
v 1.335936 3.100453 2.582104
v 0.579844 2.481888 3.401295
v 2.193908 2.412552 2.234524
v 0.965260 1.407383 3.565710
v 2.866925 2.448406 1.518693
v 0.598650 0.592710 3.976266
v 2.990724 2.858535 1.012587
v 0.013613 0.422935 4.238152
v 2.929321 3.631895 0.485809
v -0.851138 0.539069 4.581764
v 2.623395 4.102261 0.434610
v -1.251575 0.932114 4.632963
v 2.292611 4.346390 0.623663
v -1.346081 1.369545 4.566020
v 1.709676 4.281284 1.400550
v -0.889389 2.154966 4.216519
v 1.164396 4.041083 2.141981
v -0.347788 2.803953 3.780363
v 4.334768 -1.498209 2.869590
v 4.514194 -1.042570 2.511194
v 3.852614 -1.583815 3.227986
v 4.856790 -1.534411 2.394011
v 4.147953 -2.114316 3.162003
v 4.803130 -1.887158 2.512154
v 4.425085 -2.196440 2.921750
v 4.619521 -2.088845 2.686424
v 2.532806 0.785243 2.930645
v 2.336401 0.984886 2.900117
v 2.668791 1.205342 2.567321
v 2.054466 0.702758 3.232913
v 3.011761 0.971182 2.521049
v 2.255669 0.352616 3.340240
v 3.075626 0.611632 2.618520
v 2.555813 0.186369 3.181714
v 3.060371 2.194868 1.319784
v 0.650329 0.223192 3.930955
v 3.275115 3.039722 0.419826
v -0.458088 -0.014443 4.464581
v 3.067146 3.847600 -0.030153
v -1.327637 0.252190 4.731395
v 2.698099 4.678123 0.132341
v -1.791196 1.005392 4.996287
v 2.584891 4.842880 0.586287
v -1.573613 1.440772 5.091837
v 1.578261 4.894417 1.680226
v -1.068060 2.729439 4.547394
v 0.996557 5.036217 2.242459
v -0.893672 3.489804 4.290437
v 0.781076 4.705505 2.661910
v -0.447573 3.700337 3.993095
v 1.059554 3.697938 2.964179
v 0.445230 3.195354 3.629772
v 2.766635 1.594237 2.765270
v 2.010544 0.975672 3.584460
v 3.878961 0.239354 2.086815
v 2.603057 -0.804474 3.469199
v 4.770159 -0.730214 1.867233
v 3.257975 -1.967345 3.505615
v 5.136382 -1.202724 1.724451
v 3.529687 -2.517175 3.465232
v 5.265342 -1.714917 1.704740
v 3.847670 -2.874727 3.240723
v 5.103146 -1.950561 1.935137
v 4.110775 -2.762428 3.010325
v 4.677229 -2.401956 2.503259
v 1.691320 1.692532 2.839062
v 1.260617 2.421138 2.991700
v 1.335819 4.232801 1.824929
v -0.648922 2.609068 3.975305
v 1.944220 2.517127 2.393051
v 0.951849 1.705260 3.468239
v 1.642477 2.733541 2.525977
v 0.839129 2.076315 3.396368
v 4.436913 -0.899896 2.485594
v 3.728077 -1.479801 3.253585
v 3.576357 -0.008209 2.674648
v 3.103799 -0.394812 3.186642
v 3.340078 -0.201511 2.930645
v 2.941855 0.244820 2.900117
v 3.147868 0.773684 2.745558
v 2.580799 0.309760 3.359951
v 3.154272 1.087771 2.678615
v 2.350924 0.430545 3.549005
v 2.741033 1.367393 2.694359
v 2.079453 0.826149 3.411151
v 2.503155 1.224258 2.924756
v 2.266877 1.030956 3.180753
v 2.756171 0.916506 3.235920
v 2.681720 1.215919 3.021267
v 2.398186 0.983957 3.328463
v 2.848715 1.301064 2.867668
v 2.281646 0.837140 3.482062
v 3.162643 1.094620 2.877524
v 2.501063 0.553375 3.594316
v 3.084372 0.876161 2.888340
v 2.611814 0.489558 3.400335
v 2.974230 0.528679 3.144337
v 3.195589 0.555352 1.322665
v 1.636150 -0.720439 3.012247
v 3.081286 0.925111 2.240413
v 2.088915 0.113244 3.315601
v 3.355587 0.686247 2.189214
v 2.268705 -0.202941 3.366801
v 2.922888 0.744050 1.399464
v 1.505216 -0.415760 2.935447
v 4.569066 -2.027173 2.686424
v 4.685606 -1.880356 2.532826
v 4.402072 -2.112318 2.840023
v 4.735452 -1.530729 2.470810
v 4.168383 -1.994653 3.085204
v 4.522806 -1.189949 2.531865
v 3.955738 -1.653872 3.146259
v 4.187084 -1.721979 2.564314
v 4.389524 -1.350463 2.287645
v 3.822454 -1.814387 2.902038
v 4.531900 -1.645781 2.196062
v 3.964831 -2.109705 2.810456
v 4.496455 -1.932153 2.319133
v 4.212921 -2.164114 2.626330
v 4.379915 -2.078969 2.472731
v 1.794830 2.909657 2.489561
v 0.755204 2.059130 3.615949
v 2.024090 2.685419 2.407834
v 0.889952 1.757571 3.636621
v 1.550438 4.099535 1.860384
v -0.481558 2.437141 4.061960
v 1.426270 3.946477 2.126237
v -0.227681 2.593366 3.918217
v 1.950881 4.221242 1.639843
v -0.600928 2.133584 4.404612
v 2.329408 4.222070 0.873772
v -1.073004 1.438527 4.560132
v 2.582296 4.017162 0.766445
v -0.961884 1.117638 4.606403
v 2.841582 3.611589 0.761518
v -0.655343 0.750726 4.550276
v 2.936215 3.071314 1.246952
v 0.053616 0.713034 4.370117
v 2.814631 2.714471 1.671331
v 0.546355 0.858776 4.128903
v 2.313406 2.613263 2.310363
v 0.942990 1.492114 3.795147
v 1.566185 3.237348 2.463961
v 0.479304 2.348161 3.641548
v 1.408424 3.623029 2.361562
v 0.132520 2.579201 3.743947
v 1.470321 3.570718 2.193181
v 0.052649 2.410909 3.729164
v 1.554000 3.227379 2.321179
v 0.372607 2.260871 3.601165
v 2.250767 2.664967 2.167581
v 0.785839 1.466496 3.754764
v 2.699321 2.774559 1.610276
v 0.431046 0.918864 4.067848
v 2.798877 3.061906 1.237096
v 0.010789 0.780947 4.257863
v 2.676802 3.579731 0.833389
v -0.631100 0.873509 4.417350
v 2.473384 3.876586 0.807789
v -0.881773 1.131703 4.442949
v 2.245724 4.050658 0.915116
v -0.967666 1.421756 4.396677
v 1.893039 4.122446 1.573860
v -0.611514 2.073449 4.287430
v 1.505766 3.857089 2.070110
v -0.195440 2.465318 3.913290
v 1.606306 3.990817 1.829857
v -0.425690 2.328423 4.031433
v 1.961450 2.737122 2.265052
v 0.732801 1.731954 3.596237
v 1.761231 2.933644 2.290652
v 0.579838 1.967137 3.570638
v 0.387859 3.354317 2.022753
v -0.273721 2.813073 2.739545
v 0.011671 4.384896 1.771683
v -1.169723 3.418389 3.051669
v 0.301849 4.776718 1.219306
v -1.730147 3.114325 3.420882
v 1.080573 4.538729 0.580273
v -1.849283 2.141789 3.754638
v 1.840713 4.491435 -0.303940
v -2.270535 1.127988 4.150411
v 2.267240 4.531532 -0.810046
v -2.552845 0.588179 4.412297
v 2.760449 3.339315 -1.069050
v -1.917869 -0.488056 3.999694
v 2.869477 2.347544 -0.353218
v -0.769214 -0.629301 3.589139
v 2.814716 1.685047 0.398069
v 0.168394 -0.479931 3.265237
v -2.168023 4.145911 1.129519
v -3.376771 3.723245 -0.305275
v -1.073306 -2.164948 -2.625369
v 1.963939 -1.430291 0.732661
v 4.322420 -2.898127 1.801125
v 3.470214 -2.462881 1.343212
v 2.653955 -1.586429 1.251629
v 2.277386 -1.328282 1.098992
v 1.957317 3.145538 -2.576676
v -3.193558 -1.068437 3.004062
v 1.445865 3.293337 -2.999134
v -3.752265 -0.959298 2.632804
v 0.371860 2.054361 -4.243915
v -4.306458 -1.773011 0.824829
v -1.801924 1.408413 -4.257863
v -4.590012 -0.872546 -1.237096
v 2.550707 1.777907 -2.131626
v -1.891332 -1.856163 2.681121
v 1.783264 0.635309 -2.586657
v -1.808172 -2.302876 1.304500
v 0.872953 0.662696 -3.778192
v -3.002017 -2.507451 0.420162
v -0.844765 -0.330787 -3.695630
v -2.876762 -1.993181 -1.494054
v 2.874380 0.035194 0.819441
v 1.456708 -1.124616 2.355424
v 2.534341 -0.654793 0.418616
v 1.447459 -1.543980 1.596203
v 4.140787 -1.296583 0.548660
v 2.392325 -2.727015 2.443039
v 3.361326 -0.544451 0.707186
v 1.849142 -1.781581 2.345568
v 4.954462 -1.969250 0.481717
v 2.969722 -3.592984 2.632093
v 3.803593 -1.881293 0.974000
v 2.952990 -2.577178 1.895590
v 3.030161 -1.072753 0.994672
v 2.274069 -1.691318 1.813863
v 4.658255 -2.417479 1.171949
v 3.665885 -3.229346 2.247137
v 2.659520 0.322688 0.962223
v 1.336360 -0.759801 2.395807
v 2.558371 0.600259 1.140460
v 1.282466 -0.443570 2.522845
v 2.437407 0.861621 1.288170
v 1.208758 -0.143548 2.619356
v 2.315405 -0.679482 -0.050114
v 1.039500 -1.723311 1.332271
v 1.233280 -1.050031 -2.010726
v -0.562438 -2.519123 -0.065147
v 0.151792 -0.853837 -3.232789
v -1.927461 -2.554891 -0.980013
v -2.400684 3.749670 -2.980633
v -5.141517 1.507371 -0.011066
v -1.809950 4.644752 -1.759532
v -4.550783 2.402453 1.210036
v -0.784940 4.968575 -0.568957
v -3.525773 2.726277 2.400610
v 0.793577 4.098037 0.168632
v -1.994511 1.817078 3.189399
v 1.737568 4.098203 -1.068089
v -2.657215 0.502793 3.693459
v 1.163973 3.937789 -0.974585
v -2.663741 0.806303 3.172569
v -0.194271 4.473787 -1.885484
v -4.069241 1.303641 2.312870
v 0.910701 4.451230 -2.122730
v -3.909383 0.507877 3.099612
v 0.119883 4.164577 -3.069084
v -4.700202 0.221225 2.153258
v -0.979676 4.140089 -2.862366
v -4.854646 0.969943 1.335988
v -1.386672 3.343850 -3.839247
v -5.261642 0.173703 0.359107
v -0.242073 3.353712 -4.015439
v -5.062158 -0.589641 1.206904
v -0.678978 1.606459 -4.311944
v -4.412181 -1.447706 -0.267189
v 0.002280 0.156289 -3.724111
v -2.927575 -2.240651 -0.549746
v 0.906223 2.903326 -3.481687
v -4.055629 -1.156008 1.894254
v 2.160111 0.634762 -0.751162
v -0.297187 -1.375575 1.911209
v 1.395241 -0.145408 -2.232228
v -1.203824 -2.271726 0.583741
v 0.787346 3.320818 -3.834194
v -4.599808 -1.086458 2.002542
v 2.476228 1.099279 -3.022813
v -2.202089 -2.728092 2.045931
v 2.638281 1.489229 -4.686920
v -3.646731 -3.652594 2.122605
v 2.608620 2.494458 -5.877369
v -5.141320 -3.845835 2.519339
v 1.983358 3.733065 -6.077239
v -6.191883 -2.955171 2.780263
v 1.023486 4.183178 -5.693243
v -6.442920 -1.925153 2.396268
v 0.763836 3.764857 -4.574665
v -5.426664 -1.299645 2.132461
v 1.001468 3.547468 -4.457483
v -5.141778 -1.478374 2.198444
v 1.188020 3.854512 -5.417535
v -5.994852 -2.021857 2.364780
v 1.863988 3.429508 -5.734587
v -5.791440 -2.833463 2.559722
v 2.379729 2.461624 -5.555389
v -4.944910 -3.530726 2.380524
v 2.472276 1.765217 -4.569737
v -3.765480 -3.337945 2.188588
v 2.394764 1.495905 -3.232538
v -2.614343 -2.602089 2.194602
v 1.072848 3.245542 -3.875538
v -4.503328 -1.316376 2.165995
v 1.141999 2.941792 -4.227085
v -4.575945 -1.736107 1.968047
v 2.210658 1.654134 -3.717012
v -3.129240 -2.714482 2.068524
v 2.211257 1.809049 -4.839557
v -4.073755 -3.332774 1.969968
v 2.159322 2.384256 -5.631227
v -5.023549 -3.492113 2.151087
v 1.796544 3.116958 -5.784826
v -5.669862 -2.991372 2.304685
v 1.274154 3.410232 -5.549500
v -5.814206 -2.388816 2.130415
v 1.073817 3.143385 -4.757830
v -5.116684 -1.921117 1.949296
v 1.083429 2.790926 -3.589013
v -4.020190 -1.384389 1.940526
v 1.279699 2.179376 -3.807634
v -3.776664 -1.957278 1.670706
v 1.295693 1.677714 -3.551637
v -3.288113 -2.072337 1.414708
v 1.509943 1.801519 -3.756434
v -3.451909 -2.257815 1.619506
v 1.807872 1.581985 -3.833234
v -3.295747 -2.593330 1.696305
v 1.814270 1.381320 -3.730835
v -3.100327 -2.639353 1.593907
v 2.019067 1.651816 -2.655522
v -2.375716 -1.943594 2.106026
v 1.813542 1.329250 -3.026780
v -2.533986 -2.227499 1.683568
v 1.572096 1.543519 -3.087835
v -2.775431 -2.013231 1.622513
v 1.219161 2.335748 -3.435415
v -3.600924 -1.607605 1.786927
v 1.237863 2.608422 -3.956305
v -4.149291 -1.798855 1.880431
v 1.124394 2.464117 -4.169997
v -4.262760 -1.943160 1.666738
v 1.695387 1.284061 -3.914000
v -3.219209 -2.736612 1.410741
v 1.712617 1.504056 -4.041999
v -3.438258 -2.709919 1.538740
v 1.439916 1.692754 -3.965199
v -3.569192 -2.405240 1.461941
v 1.200438 1.599785 -3.760402
v -3.430624 -2.188926 1.257143
v 1.184444 2.101447 -4.016399
v -3.919175 -2.073868 1.513140
v 1.032830 3.006904 -5.022723
v -5.252182 -2.134918 1.786802
v 1.252981 3.289961 -5.783865
v -5.929891 -2.586408 1.998449
v 1.773772 3.046854 -6.044790
v -5.834401 -3.177458 2.198319
v 2.156364 2.330361 -5.860664
v -5.168274 -3.661988 2.075248
v 2.096189 1.714910 -5.078850
v -4.236079 -3.465573 1.781875
v 2.046734 1.571501 -3.930705
v -3.293163 -2.797115 1.854831
v 1.077384 2.785981 -4.466378
v -4.687815 -1.930578 1.779953
v 1.508216 1.954530 -4.200525
v -3.878938 -2.452747 1.636211
v 1.781533 1.869285 -4.384651
v -3.889155 -2.769954 1.759282
v 1.689482 2.205775 -4.711559
v -4.359251 -2.742746 1.841969
v 1.459607 2.326560 -4.522505
v -4.352848 -2.428659 1.775026
v 1.363743 2.659930 -4.793286
v -4.779502 -2.365911 1.862641
v 1.613432 2.555355 -4.951812
v -4.766092 -2.663788 1.960112
v 1.683331 2.766964 -5.161537
v -5.026983 -2.722801 2.108783
v 1.410630 2.955662 -5.084738
v -5.157917 -2.418122 2.031983
v 0.454069 3.254060 -5.246271
v -5.736432 -1.810442 1.460855
v 0.879858 3.808300 -6.232883
v -6.681059 -2.377351 1.959027
v 1.908158 3.517119 -6.433714
v -6.361595 -3.248438 2.526188
v 2.445552 2.361050 -6.376626
v -5.493411 -4.133884 2.224879
v 2.171736 1.210495 -5.327998
v -4.113276 -3.931328 1.481527
v 1.957871 0.778156 -3.867729
v -2.814958 -3.126537 1.303414
v 0.392054 2.843003 -4.311819
v -4.806077 -1.409633 1.320119
vn 0.8797 0.4579 0.1279
vn 0.0949 -0.1842 0.9783
vn 0.9186 0.3572 -0.1693
vn -0.0622 -0.4451 0.8933
vn 0.9696 -0.2281 0.0883
vn 0.4861 -0.6237 0.6121
vn 0.9337 0.0967 0.3449
vn 0.4840 -0.2711 0.8320
vn 0.7017 -0.1006 0.7053
vn 0.8036 -0.0172 0.5950
vn 0.6067 -0.6002 0.5213
vn 0.9226 -0.3417 0.1790
vn 0.0074 -0.4196 0.9077
vn 0.9414 0.3310 -0.0649
vn 0.2648 -0.0298 0.9638
vn 0.8291 0.4254 0.3629
vn 0.0297 0.2772 0.9603
vn 0.5812 0.7284 0.3629
vn -0.3812 0.1046 0.9185
vn 0.5201 0.8510 -0.0732
vn -0.3986 0.7170 0.5719
vn -0.1224 0.9657 0.2291
vn -0.0352 0.7494 0.6612
vn 0.1225 0.8132 0.5689
vn 0.2564 0.8856 0.3873
vn -0.2035 0.5371 0.8186
vn -0.0005 0.9959 0.0908
vn -0.4752 0.5984 0.6450
vn 0.5405 0.8256 -0.1617
vn -0.4425 0.0179 0.8966
vn 0.6386 0.7638 0.0941
vn -0.1617 0.1295 0.9783
vn 0.0717 0.5026 -0.8615
vn -0.9276 -0.3637 0.0856
vn -0.6601 0.5317 -0.5305
vn -0.9067 0.3107 -0.2853
vn -0.9743 0.1855 -0.1279
vn -0.4511 0.6631 -0.5974
vn -0.9069 -0.3359 0.2543
vn -0.0018 0.4217 -0.9067
vn -0.4956 -0.8625 0.1025
vn 0.4275 -0.1073 -0.8976
vn 0.0410 -0.9986 -0.0344
vn 0.5606 -0.5735 -0.5974
vn 0.3665 -0.7526 -0.5470
vn 0.1250 -0.9503 -0.2853
vn 0.3912 -0.1054 -0.9142
vn -0.5201 -0.8510 0.0732
vn 0.7315 0.5179 0.4436
vn 0.2570 0.1297 0.9577
vn 0.7583 0.3938 0.5195
vn 0.3942 0.0959 0.9140
vn 0.6588 0.3020 0.6890
vn 0.5467 0.2103 0.8105
vn 0.4771 0.3537 0.8045
vn 0.5511 0.4142 0.7244
vn 0.4428 0.3958 0.8046
vn 0.5167 0.4563 0.7244
vn 0.4369 0.5808 0.6869
vn 0.3188 0.4842 0.8148
vn 0.5418 0.6572 0.5239
vn 0.1818 0.3626 0.9140
vn 0.6560 0.6105 0.4437
vn 0.1814 0.2222 0.9580
vn 0.8661 -0.4217 0.2683
vn 0.7336 -0.4894 0.4716
vn 0.9058 -0.3773 0.1928
vn 0.6656 -0.5692 0.4827
vn 0.9814 0.1506 0.1188
vn 0.2949 -0.4111 0.8626
vn 0.8124 0.5828 -0.0183
vn -0.1084 -0.1705 0.9794
vn 0.6971 0.7166 0.0219
vn -0.1890 -0.0084 0.9819
vn 0.9515 -0.2998 0.0688
vn 0.5071 -0.6633 0.5503
vn 0.9634 -0.1537 0.2196
vn 0.4662 -0.3616 0.8074
vn 0.9683 0.2499 0.0012
vn 0.1442 -0.4242 0.8940
vn 0.9601 0.2796 0.0034
vn 0.2469 -0.1827 0.9517
vn 0.4092 0.7773 0.4779
vn -0.4977 0.0588 0.8654
vn 0.1730 0.9791 0.1068
vn -0.4216 0.4882 0.7641
vn 0.2891 0.9555 0.0581
vn -0.4198 0.3755 0.8263
vn -0.0696 0.7906 0.6083
vn -0.0319 0.8376 0.5453
vn -0.2703 0.1297 0.9540
vn 0.4774 0.8774 -0.0463
vn -0.3907 0.3601 0.8471
vn 0.2640 0.9619 0.0714
vn 0.9920 -0.0000 0.1265
vn 0.2742 -0.1931 0.9421
vn 0.8542 0.0924 0.5117
vn 0.5901 -0.1236 0.7978
vn 0.7511 -0.1339 0.6464
vn 0.8080 0.0138 0.5891
vn 0.7486 -0.4009 0.5281
vn 0.8151 -0.0772 0.5742
vn 0.6291 0.2957 0.7189
vn 0.7805 -0.4784 0.4025
vn 0.7401 0.5269 0.4180
vn 0.5629 0.0564 0.8246
vn 0.7742 0.3972 0.4928
vn 0.2954 0.0075 0.9553
vn 0.8451 0.2950 0.4458
vn 0.4341 -0.0018 0.9009
vn 0.7280 0.0178 0.6853
vn 0.1090 0.5935 0.7974
vn 0.2985 0.7486 0.5921
vn 0.9226 0.3782 0.0759
vn 0.6259 -0.1283 0.7693
vn 0.5791 0.3729 0.7250
vn 0.5097 0.3161 0.8002
vn 0.6265 0.2133 0.7496
vn 0.5135 0.3109 0.7998
vn 0.8560 -0.2175 0.4690
vn 0.7364 -0.3153 0.5985
vn 0.8493 -0.0736 0.5227
vn 0.6926 -0.2018 0.6925
vn 0.7558 0.4036 0.5156
vn 0.4922 -0.1049 0.8642
vn 0.6871 0.5157 0.5118
vn 0.2971 0.1966 0.9344
vn 0.7118 0.4779 0.5147
vn 0.3284 0.1642 0.9302
vn 0.4504 0.4345 0.7800
vn 0.4541 0.4575 0.7645
vn 0.5349 0.3535 0.7674
vn 0.5383 0.3545 0.7645
vn 0.4973 0.4069 0.7662
vn 0.8608 0.0150 -0.5087
vn -0.1410 -0.8046 0.5768
vn 0.2495 0.5261 -0.8130
vn -0.7869 -0.3671 0.4961
vn -0.7427 0.5558 -0.3736
vn -0.8331 0.5025 -0.2311
vn -0.5931 -0.4852 0.6426
vn 0.2958 0.9516 -0.0829
vn 0.8976 -0.4228 -0.1243
vn 0.4197 -0.7727 0.4761
vn 0.9154 0.0064 0.4025
vn 0.5746 -0.2725 0.7718
vn -0.4358 0.3351 0.8353
vn 0.3146 0.9490 0.0223
vn -0.1293 0.8966 0.4235
vn -0.2316 0.8130 0.5343
vn 0.5594 0.8284 -0.0305
vn -0.3562 0.0924 0.9298
vn 0.9273 0.0598 0.3694
vn 0.5221 -0.2716 0.8084
vn 0.3642 0.6008 0.7116
vn 0.3198 0.5519 0.7702
vn 0.6973 -0.2160 0.6835
vn 0.8520 -0.0894 0.5159
vn 0.0821 0.1597 0.9837
vn 0.6822 0.6507 0.3336
vn 0.3103 -0.4921 0.8134
vn 0.9951 0.0682 0.0714
vn 0.9540 0.2236 0.1996
vn 0.2241 0.2787 0.9339
vn 0.6423 0.5657 0.5172
vn 0.2671 0.3041 0.9144
vn 0.4638 0.8846 -0.0489
vn -0.4318 -0.0872 0.8977
vn 0.5124 0.8301 -0.2200
vn -0.4626 -0.1208 0.8783
vn 0.4448 0.8546 -0.2678
vn -0.5640 0.0293 0.8252
vn 0.8127 0.1272 0.5686
vn 0.6135 -0.6163 0.4938
vn 0.5298 0.1822 0.8283
vn 0.6836 0.3080 0.6617
vn 0.1796 0.1469 0.9727
vn 0.7100 0.5809 0.3980
vn -0.5601 0.7684 0.3095
vn -0.3724 0.9220 0.1062
vn -0.7436 0.3396 0.5759
vn 0.0230 0.9668 -0.2547
vn 0.5931 0.4852 -0.6426
vn 0.8381 -0.5353 -0.1056
vn 0.4761 -0.8314 0.2866
vn 0.6786 0.1635 0.7161
vn 0.6529 0.1425 0.7439
vn 0.7619 0.1738 0.6239
vn 0.6014 0.0426 0.7978
vn 0.2893 -0.0526 0.9558
vn 0.8445 0.4016 0.3542
vn 0.3006 0.2810 0.9114
vn 0.6221 0.5440 0.5631
vn 0.3938 0.3105 0.8652
vn 0.5657 0.5969 0.5690
vn 0.4287 -0.2790 0.8593
vn 0.9782 0.2066 0.0187
vn 0.6849 -0.5763 0.4459
vn 0.8746 -0.4211 0.2404
vn 0.9564 0.0208 0.2915
vn 0.4938 -0.3577 0.7926
vn 0.9776 0.2068 0.0396
vn 0.2011 -0.4285 0.8809
vn 0.8068 0.5122 0.2945
vn 0.1689 -0.0096 0.9856
vn 0.6655 0.6990 0.2617
vn -0.0135 0.1381 0.9903
vn 0.3897 0.8463 0.3633
vn -0.4549 0.4772 0.7519
vn -0.0998 0.9367 0.3357
vn -0.3128 0.7624 0.5664
vn 0.3556 0.7285 0.5855
vn 0.1325 0.5459 0.8273
vn 0.2500 0.5606 0.7895
vn 0.3532 0.6450 0.6776
vn 0.7070 0.2035 0.6773
vn 0.6087 0.1231 0.7838
vn 0.8196 0.2809 0.4994
vn 0.4620 -0.0116 0.8868
vn 0.5053 -0.6640 0.5512
vn 0.7081 0.1716 0.6849
vn 0.8513 -0.3142 0.4203
vn 0.8777 -0.4539 0.1536
vn 0.4003 -0.0409 0.9155
vn 0.8400 0.3188 0.4391
vn 0.3550 0.2159 0.9096
vn 0.6804 0.6222 0.3870
vn -0.0980 0.5974 0.7959
vn 0.2337 0.8688 0.4365
vn 0.0499 0.7573 0.6511
vn -0.0395 0.8482 0.5282
vn 0.1580 0.9486 0.2742
vn -0.1415 0.5588 0.8171
vn 0.3013 0.9312 0.2050
vn -0.2903 0.4472 0.8460
vn 0.9187 0.3135 0.2403
vn 0.2752 -0.2130 0.9375
vn 0.8068 0.5806 -0.1094
vn -0.1782 -0.2253 0.9579
vn 0.6981 0.7153 -0.0317
vn -0.2288 -0.0429 0.9725
vn -0.8937 0.4171 0.1652
vn -0.3792 0.8381 -0.3922
vn -0.9246 -0.2727 0.2659
vn 0.0854 0.5536 -0.8284
vn -0.9148 0.3770 -0.1451
vn -0.6425 0.5888 -0.4904
vn -0.2719 0.7394 -0.6159
vn -0.9737 0.1710 0.1508
vn -0.4929 0.7188 -0.4903
vn -0.9221 0.3869 0.0096
vn -0.5477 0.7330 -0.4035
vn -0.8918 0.4515 -0.0307
vn 0.2217 0.3549 -0.9082
vn -0.8496 -0.5241 0.0596
vn 0.4529 -0.4885 -0.7458
vn -0.1530 -0.9842 -0.0894
vn 0.5825 -0.6303 -0.5133
vn 0.1442 -0.9888 -0.0385
vn 0.0367 -0.4684 -0.8827
vn -0.0396 -0.8908 -0.4526
vn -0.3078 -0.3779 -0.8732
vn -0.6448 -0.5438 -0.5371
vn -0.0606 -0.7773 -0.6262
vn -0.4101 -0.7375 -0.5366
vn 0.5957 -0.7592 -0.2620
vn 0.4139 -0.9080 -0.0650
vn 0.5645 -0.7816 -0.2653
vn 0.4150 -0.9039 -0.1034
vn 0.3064 0.4539 -0.8367
vn -0.8081 -0.4579 0.3707
vn 0.2724 0.4604 -0.8449
vn -0.8281 -0.4399 0.3475
vn -0.4022 -0.2301 -0.8862
vn -0.6623 -0.4428 -0.6044
vn -0.3876 -0.3856 -0.8373
vn -0.1383 -0.5828 -0.8007
vn 0.2572 0.3875 -0.8853
vn -0.1062 -0.9628 -0.2483
vn 0.2773 0.4020 -0.8727
vn -0.8142 -0.4910 0.3099
vn 0.2264 0.6297 -0.7432
vn -0.8221 -0.3273 0.4659
vn 0.1850 0.6219 -0.7609
vn -0.8420 -0.3254 0.4303
vn 0.3098 0.8138 -0.4917
vn -0.8145 -0.3491 0.4633
vn 0.5820 -0.7612 -0.2860
vn 0.0958 -0.9377 -0.3340
vn 0.1190 -0.5114 -0.8510
vn -0.3159 -0.8733 -0.3709
vn 0.4588 -0.6888 -0.5613
vn 0.1136 -0.9848 -0.1310
vn 0.7075 -0.6412 -0.2973
vn 0.3522 -0.9318 0.0876
vn 0.6612 -0.6429 -0.3867
vn 0.2713 -0.9618 0.0357
vn 0.0595 0.4793 -0.8756
vn -0.1282 -0.7169 0.6853
vn 0.8508 0.2127 -0.4806
vn -0.2364 -0.6767 0.6973
vn -0.2709 -0.2803 -0.9209
vn -0.5423 -0.7363 -0.4046
vn -0.4237 0.9012 0.0915
vn -0.5531 0.7911 0.2610
vn -0.6280 0.7459 -0.2218
vn -0.7845 0.6179 -0.0522
vn -0.5017 0.3896 -0.7723
vn -0.9616 0.0133 -0.2740
vn -0.3068 0.8625 -0.4024
vn -0.8941 0.3821 0.2338
vn 0.1019 0.9163 0.3873
vn -0.2019 0.6678 0.7165
vn -0.0721 0.9602 -0.2700
vn -0.7797 0.3813 0.4966
vn -0.0997 0.7912 -0.6034
vn -0.9447 0.0999 0.3122
vn -0.0084 0.1693 -0.9855
vn -0.8984 -0.4098 -0.1576
vn -0.0870 0.2284 -0.9697
vn -0.8963 -0.4337 -0.0929
vn -0.1709 0.7974 -0.5787
vn -0.9507 0.1595 0.2661
vn 0.0690 0.9258 -0.3717
vn -0.7956 0.2184 0.5650
vn 0.4410 0.8872 -0.1356
vn -0.4831 0.1312 0.8657
vn -0.4862 0.7443 -0.4578
vn -0.8252 0.5438 0.1529
vn 0.1362 0.9173 0.3742
vn 0.0079 0.6628 0.7487
vn -0.6574 -0.3961 -0.6410
vn -0.4381 -0.2433 -0.8654
vn 0.1970 0.8943 0.4018
vn -0.1500 0.6104 0.7777
vn 0.2694 0.4590 0.8466
vn 0.4610 0.6157 0.6390
vn 0.2155 0.2916 -0.9320
vn -0.5588 -0.1658 0.8126
vn 0.6837 0.6579 -0.3158
vn -0.4165 -0.2423 0.8762
vn 0.4653 0.6608 -0.5890
vn -0.6912 -0.2853 0.6640
vn 0.5078 0.3762 -0.7750
vn -0.6613 -0.4257 0.6176
vn 0.8778 -0.1405 -0.4579
vn 0.1519 -0.8642 0.4797
vn 0.8482 -0.5003 -0.1743
vn 0.4067 -0.8615 0.3038
vn 0.9267 -0.3730 -0.0466
vn 0.4539 -0.7597 0.4656
vn 0.9212 -0.2338 -0.3111
vn 0.1706 -0.8478 0.5021
vn 0.9573 -0.0396 -0.2862
vn 0.0885 -0.7504 0.6551
vn 0.8656 0.1269 0.4843
vn 0.5528 -0.1290 0.8233
vn 0.1710 -0.2568 -0.9512
vn -0.4930 -0.8284 -0.2657
vn 0.0077 -0.3038 -0.9527
vn -0.4926 -0.8349 -0.2453
vn 0.6536 -0.5573 -0.5121
vn 0.1483 -0.9564 -0.2517
vn 0.6943 -0.2860 -0.6604
vn -0.1868 -0.9479 0.2581
vn 0.2023 -0.4040 -0.8921
vn -0.3874 -0.8865 -0.2532
vn 0.4780 0.7599 0.4405
vn -0.0972 0.5493 0.8300
vn 0.6455 0.6540 0.3944
vn 0.1157 0.2205 0.9685
vn 0.5237 0.6859 0.5051
vn 0.3863 0.3058 0.8702
vn 0.6608 0.4326 0.6134
vn 0.3486 0.1873 0.9184
vn 0.6153 0.6098 0.4996
vn 0.1808 -0.1360 0.9741
vn 0.9476 0.2779 0.1574
vn 0.2411 -0.3002 0.9229
vn 0.2690 0.9410 0.2051
vn -0.3055 0.4711 0.8275
vn -0.4434 0.7119 0.5446
vn -0.1261 0.9715 0.2008
vn -0.4188 -0.0553 0.9064
vn 0.6002 0.7966 -0.0716
vn 0.2987 -0.2181 0.9291
vn 0.9206 0.2947 0.2564
vn 0.9796 0.0274 0.1991
vn 0.4348 -0.3229 0.8407
vn 0.9768 0.2091 -0.0461
vn 0.1342 -0.4802 0.8668
vn 0.7111 -0.2104 -0.6709
vn 0.1749 -0.8463 0.5032
vn 0.1761 0.5217 0.8347
vn 0.4220 0.6983 0.5782
vn 0.6468 0.0668 -0.7597
vn -0.4256 -0.8106 0.4023
vn 0.2758 0.6648 0.6943
vn 0.2284 0.6260 0.7457
vn -0.2516 0.9652 0.0711
vn -0.5759 0.6999 0.4225
vn 0.9341 0.1854 0.3050
vn -0.1966 0.0573 0.9788
vn 0.9882 0.0935 0.1214
vn -0.2015 -0.6914 0.6938
vn 0.9142 0.3446 0.2132
vn 0.2959 -0.4319 0.8520
vn 0.9891 0.0943 0.1131
vn 0.1700 -0.1931 0.9663
vn 0.5472 0.2363 -0.8029
vn 0.4454 0.2437 0.8616
vn 0.7446 0.1227 -0.6561
vn -0.3381 -0.8509 0.4020
vn 0.5668 0.4403 -0.6963
vn -0.6160 -0.5274 0.5852
vn 0.9730 -0.0624 -0.2221
vn 0.1552 -0.7315 0.6640
vn 0.8984 -0.0630 -0.4345
vn -0.0280 -0.7913 0.6108
vn 0.9193 -0.1552 -0.3615
vn 0.0864 -0.8366 0.5409
vn -0.5444 0.8364 -0.0638
vn -0.8125 0.5796 0.0625
vn 0.4125 0.7438 -0.5259
vn -0.6917 -0.1176 0.7126
vn 0.9118 -0.2575 -0.3199
vn 0.1748 -0.8605 0.4786
vn -0.6332 0.7740 -0.0000
vn 0.9905 -0.0810 -0.1115
vn 0.2554 -0.6824 0.6849
vn 0.9126 -0.3914 0.1184
vn 0.5861 -0.6585 0.4721
vn -0.2913 -0.9169 0.2728
vn 0.6492 -0.1475 -0.7462
vn -0.8997 -0.4222 0.1108
vn 0.1273 0.4050 -0.9054
vn -0.8945 0.3317 0.2997
vn -0.3517 0.6148 -0.7059
vn -0.5607 0.8203 0.1129
vn -0.5721 0.8160 -0.0824
vn 0.5314 0.4854 0.6942
vn 0.3806 0.3238 0.8662
vn 0.5722 0.5782 0.5817
vn 0.1810 0.2015 0.9626
vn 0.5919 0.6039 0.5339
vn 0.2349 0.3118 0.9206
vn 0.6031 0.5094 0.6139
vn 0.3917 0.3796 0.8381
vn 0.2079 0.6697 0.7130
vn 0.2196 0.6793 0.7002
vn 0.7076 0.5318 0.4653
vn 0.2186 0.1375 0.9661
vn 0.7420 0.3619 0.5644
vn 0.2811 0.3234 0.9036
vn -0.3629 0.4897 0.7928
vn 0.0014 0.9642 0.2653
vn 0.6413 0.7575 0.1222
vn -0.1526 0.1080 0.9824
vn 0.8230 0.4139 0.3892
vn 0.2727 -0.0335 0.9615
vn 0.8278 0.5049 0.2448
vn 0.5105 -0.1073 0.8532
vn 0.5242 0.7949 0.3056
vn -0.0691 0.3095 0.9484
vn 0.1863 0.9021 0.3893
vn -0.1672 0.6129 0.7723
vn 0.6358 -0.7605 -0.1320
vn 0.5256 -0.8507 -0.0126
vn 0.9016 -0.3884 -0.1907
vn 0.3455 -0.8433 0.4117
vn 0.8435 0.3617 -0.3971
vn -0.2519 -0.5239 0.8137
vn 0.1374 0.7960 -0.5895
vn -0.8483 0.0330 0.5285
vn -0.8533 0.5215 -0.0030
vn -0.6150 0.6911 -0.3797
vn -0.8587 0.4271 0.2834
vn -0.4117 0.8068 -0.4237
vn -0.7329 -0.6035 -0.3141
vn -0.0827 -0.0863 -0.9928
vn -0.5855 -0.4656 -0.6637
vn -0.4115 -0.3233 -0.8521
vn -0.2315 -0.1550 -0.9604
vn -0.7114 -0.5477 -0.4404
vn -0.8504 0.0667 0.5219
vn 0.0285 0.9001 -0.4349
vn -0.0426 -0.3308 -0.9427
vn -0.5407 -0.7384 -0.4030
vn 0.5482 -0.8362 -0.0185
vn 0.6297 -0.7695 -0.1068
vn 0.8783 0.4639 0.1161
vn 0.0820 -0.1876 0.9788
vn 0.9158 0.3595 -0.1790
vn -0.0717 -0.4484 0.8909
vn 0.9703 -0.2355 0.0551
vn 0.4653 -0.6487 0.6023
vn 0.9076 0.1025 0.4070
vn 0.5204 -0.2143 0.8266
vn 0.7302 -0.1409 0.6686
vn 0.8072 -0.0779 0.5852
vn 0.6045 -0.5798 0.5463
vn 0.9293 -0.3141 0.1944
vn 0.0393 -0.4071 0.9125
vn 0.9354 0.3397 -0.0978
vn 0.2776 -0.0258 0.9603
vn 0.8302 0.4328 0.3512
vn 0.0114 0.2434 0.9699
vn 0.6024 0.7270 0.3294
vn -0.3912 0.1054 0.9142
vn 0.5268 0.8475 -0.0653
vn -0.4174 0.7243 0.5488
vn -0.0950 0.9654 0.2429
vn 0.0020 0.7146 0.6996
vn 0.0622 0.8291 0.5556
vn 0.2544 0.9118 0.3224
vn -0.1384 0.5626 0.8151
vn 0.0063 0.9923 0.1234
vn -0.5041 0.5839 0.6364
vn 0.5418 0.8231 -0.1699
vn -0.4381 0.0250 0.8986
vn 0.6231 0.7716 0.1279
vn -0.1784 0.0954 0.9793
vn -0.0005 0.3947 -0.9188
vn -0.9246 -0.3125 0.2179
vn -0.6651 0.5083 -0.5470
vn -0.9061 0.3305 -0.2640
vn -0.9707 0.2380 -0.0344
vn -0.4932 0.5791 -0.6491
vn -0.9343 -0.3411 0.1036
vn 0.1182 0.5027 -0.8563
vn -0.4872 -0.8389 0.2428
vn 0.5233 -0.0122 -0.8521
vn -0.0111 -0.9917 -0.1279
vn 0.4700 -0.5981 -0.6491
vn 0.3904 -0.7524 -0.5305
vn 0.1444 -0.9536 -0.2640
vn 0.5222 -0.0552 -0.8510
vn -0.4620 -0.8604 0.2153
vn 0.8586 -0.3871 0.3361
vn 0.7040 -0.5543 0.4439
vn 0.8928 -0.3833 0.2365
vn 0.6327 -0.6007 0.4887
vn 0.9616 0.2368 0.1389
vn 0.2548 -0.3415 0.9047
vn 0.7925 0.6097 0.0148
vn -0.1046 -0.1242 0.9867
vn 0.7266 0.6835 -0.0690
vn -0.2305 -0.0995 0.9680
vn 0.9211 -0.2515 0.2971
vn 0.6443 -0.4779 0.5970
vn 0.9617 0.0437 0.2705
vn 0.5415 -0.4989 0.6767
vn 0.9680 0.2504 0.0131
vn 0.1530 -0.4164 0.8962
vn 0.9037 0.3546 0.2401
vn 0.1264 -0.4024 0.9067
vn 0.4781 0.8571 -0.1918
vn 0.0383 0.4738 0.8798
vn 0.1764 0.9774 0.1163
vn -0.4308 0.4851 0.7610
vn 0.3593 0.9301 0.0761
vn -0.3707 0.3329 0.8671
vn -0.0759 0.8016 0.5930
vn -0.0120 0.8378 0.5459
vn -0.3987 0.1607 0.9029
vn 0.5723 0.8190 0.0411
vn -0.4209 0.4016 0.8134
vn 0.3225 0.9436 0.0744
vn 0.9104 0.3275 0.2528
vn 0.3906 -0.4920 0.7781
vn 0.8517 0.0916 0.5159
vn 0.5931 -0.1200 0.7961
vn 0.6806 -0.0904 0.7270
vn 0.7925 -0.1001 0.6017
vn 0.7237 -0.1519 0.6731
vn 0.8552 -0.3137 0.4126
vn 0.8135 -0.4513 0.3667
vn 0.5643 0.2427 0.7891
vn 0.7629 0.2201 0.6079
vn 0.2348 0.1135 0.9654
vn 0.8114 0.4296 0.3963
vn 0.3766 0.0719 0.9236
vn 0.8163 0.3110 0.4867
vn 0.4206 -0.0522 0.9057
vn 0.6026 0.6861 0.4076
vn 0.0945 0.2704 0.9581
vn 0.5895 0.2369 0.7722
vn 0.6271 0.2676 0.7316
vn 0.8458 0.0516 0.5311
vn 0.1138 -0.2835 0.9522
vn 0.8243 0.2225 0.5206
vn 0.5132 -0.0321 0.8577
vn 0.5829 0.3677 0.7246
vn 0.6344 0.2197 0.7411
vn 0.7816 -0.2013 0.5904
vn 0.7976 -0.1882 0.5730
vn 0.8879 0.0189 0.4596
vn 0.6028 -0.2144 0.7686
vn 0.8649 0.2001 0.4603
vn 0.3848 0.1001 0.9176
vn 0.6547 0.5145 0.5537
vn 0.3201 0.2407 0.9163
vn 0.7493 0.4280 0.5054
vn 0.3611 0.1104 0.9260
vn 0.4780 0.4570 0.7501
vn 0.5400 0.3577 0.7618
vn 0.7847 -0.1445 -0.6028
vn -0.1436 -0.9039 0.4029
vn 0.3560 0.5679 -0.7422
vn -0.8484 -0.3721 0.3765
vn -0.7124 0.6013 -0.3619
vn -0.8248 0.4886 -0.2845
vn -0.5231 0.2816 0.8044
vn 0.9321 -0.3536 -0.0790
vn 0.4148 -0.8179 0.3988
vn -0.6517 0.3282 0.6838
vn 0.1390 0.9751 -0.1730
vn -0.1472 0.9242 0.3523
vn -0.3071 0.7935 0.5255
vn 0.5499 0.8337 -0.0518
vn -0.3341 0.0974 0.9375
vn 0.9406 -0.3384 -0.0279
vn 0.4524 -0.7378 0.5010
vn 0.3642 0.5883 0.7220
vn 0.3047 0.5520 0.7762
vn 0.7182 0.2506 0.6491
vn 0.5635 0.1240 0.8167
vn 0.7647 -0.4346 0.4758
vn 0.8395 -0.3733 0.3947
vn 0.5642 0.8256 0.0043
vn -0.3045 0.1148 0.9455
vn 0.6178 0.6008 0.5073
vn 0.3064 -0.3062 0.9013
vn 0.6011 0.5774 0.5526
vn 0.2591 0.2522 0.9323
vn 0.6063 0.7621 -0.2271
vn -0.4088 0.1707 0.8965
vn 0.6017 0.7499 -0.2748
vn -0.4934 0.0072 0.8698
vn 0.6641 0.6291 -0.4039
vn -0.4730 -0.3011 0.8280
vn 0.9129 -0.3713 0.1694
vn 0.6012 -0.0458 0.7978
vn 0.5045 0.1488 0.8505
vn 0.7122 0.3187 0.6255
vn 0.5287 0.1962 0.8259
vn 0.6733 0.3145 0.6691
vn 0.1756 0.5472 0.8184
vn 0.3609 0.6988 0.6177
vn -0.8256 0.2106 0.5235
vn 0.0330 0.9130 -0.4067
vn 0.6859 0.1903 0.7023
vn 0.6292 0.1439 0.7638
vn 0.2651 -0.2085 0.9414
vn 0.9161 0.3240 0.2361
vn 0.2069 0.0232 0.9781
vn 0.7934 0.5031 0.3426
vn 0.2579 0.3451 0.9024
vn 0.5975 0.4771 0.6445
vn 0.1854 -0.4420 0.8776
vn 0.9426 0.1414 0.3026
vn 0.7136 -0.2378 0.6590
vn 0.8507 -0.1256 0.5104
vn 0.9726 -0.0068 0.2324
vn 0.4695 -0.4184 0.7775
vn 0.9077 0.2830 0.3097
vn 0.3424 -0.1795 0.9223
vn 0.8017 0.5475 0.2397
vn 0.1054 -0.0222 0.9942
vn 0.6713 0.6984 0.2484
vn -0.0055 0.1501 0.9887
vn 0.1635 0.9831 0.0819
vn -0.0946 0.4501 0.8880
vn 0.4143 0.7882 0.4550
vn 0.0160 0.4624 0.8865
vn 0.3019 0.7347 0.6075
vn 0.1297 0.5938 0.7941
vn 0.3555 0.5888 0.7259
vn 0.3198 0.5596 0.7646
vn 0.9414 0.1630 0.2954
vn 0.4105 -0.2713 0.8706
vn 0.7650 0.3349 0.5501
vn 0.4534 0.0800 0.8877
vn 0.6333 0.1103 0.7660
vn 0.9520 -0.2985 0.0672
vn 0.6386 -0.6495 0.4127
vn 0.7536 -0.3941 0.5261
vn 0.4058 0.0223 0.9137
vn 0.8039 0.3479 0.4824
vn 0.1387 0.1790 0.9740
vn 0.6743 0.4771 0.5637
vn 0.1816 0.6746 0.7155
vn 0.2109 0.6986 0.6837
vn -0.0973 0.8009 0.5908
vn 0.0752 0.7780 0.6237
vn 0.2592 0.8866 0.3830
vn -0.2901 0.5820 0.7597
vn 0.9299 0.3528 -0.1040
vn -0.0065 -0.4133 0.9106
vn 0.8206 0.5671 -0.0702
vn -0.1365 -0.2160 0.9668
vn 0.6910 0.7217 -0.0418
vn -0.2423 -0.0418 0.9693
vn -0.9890 0.0709 0.1301
vn -0.2349 0.6878 -0.6868
vn -0.9238 -0.2841 0.2568
vn 0.0852 0.5414 -0.8364
vn -0.9031 0.3756 -0.2080
vn -0.5988 0.6355 -0.4874
vn -0.2722 0.7449 -0.6092
vn -0.9756 0.1637 0.1465
vn -0.4888 0.7414 -0.4598
vn -0.9335 0.3584 -0.0129
vn -0.5612 0.7242 -0.4008
vn -0.8886 0.4563 -0.0460
vn 0.0951 0.2487 -0.9639
vn -0.8307 -0.5061 0.2320
vn 0.6146 -0.4694 -0.6341
vn -0.0309 -0.9974 0.0652
vn 0.4294 -0.5948 -0.6796
vn -0.0483 -0.9856 -0.1620
vn 0.1560 -0.7308 -0.6645
vn -0.3923 -0.8194 -0.4179
vn -0.2877 -0.2516 -0.9241
vn -0.5393 -0.5673 -0.6224
vn -0.1061 -0.4889 -0.8659
vn -0.0478 -0.7669 -0.6399
vn 0.6431 -0.7591 -0.1008
vn 0.5507 -0.8347 -0.0008
vn 0.5763 -0.7841 -0.2304
vn 0.4465 -0.8903 -0.0898
vn 0.7694 -0.0968 -0.6314
vn -0.1973 -0.8877 0.4160
vn 0.3057 0.4304 -0.8493
vn -0.8043 -0.4777 0.3534
vn -0.4095 -0.3704 -0.8338
vn -0.5437 -0.4802 -0.6883
vn -0.3159 -0.7281 -0.6084
vn -0.5312 -0.5030 -0.6817
vn 0.3333 -0.6032 -0.7246
vn -0.8214 -0.4949 0.2834
vn 0.2739 0.4040 -0.8728
vn -0.8165 -0.4880 0.3086
vn 0.2996 0.5904 -0.7494
vn -0.8616 -0.2605 0.4357
vn 0.2655 0.5807 -0.7697
vn -0.8830 -0.2518 0.3962
vn 0.3124 0.5729 -0.7578
vn -0.7512 -0.0542 0.6578
vn 0.3135 -0.7596 -0.5698
vn 0.3927 -0.9161 -0.0809
vn 0.1262 -0.5116 -0.8499
vn -0.3190 -0.8698 -0.3765
vn 0.5006 -0.6682 -0.5503
vn 0.1047 -0.9785 -0.1776
vn 0.7011 -0.6634 -0.2616
vn 0.3903 -0.9176 0.0751
vn 0.7079 -0.6409 -0.2969
vn 0.3525 -0.9317 0.0882
vn 0.8968 0.1217 -0.4253
vn -0.9255 -0.3265 0.1916
vn 0.9850 -0.0156 -0.1716
vn 0.1703 -0.6821 0.7112
vn -0.0454 -0.3298 -0.9429
vn -0.6208 -0.5666 -0.5417
vn -0.4204 0.8997 0.1172
vn -0.5746 0.7778 0.2549
vn -0.6415 0.7328 -0.2268
vn -0.7848 0.6156 -0.0715
vn -0.5526 0.2858 -0.7829
vn -0.9250 -0.0189 -0.3794
vn -0.4869 0.8017 -0.3468
vn -0.8701 0.4882 0.0683
vn -0.1763 0.8835 0.4340
vn -0.2300 0.8396 0.4921
vn -0.0365 0.9645 -0.2616
vn -0.7653 0.3682 0.5280
vn -0.1329 0.7772 -0.6151
vn -0.9555 0.1043 0.2761
vn -0.1507 0.2019 -0.9677
vn -0.8510 -0.5201 -0.0725
vn -0.5493 0.2876 -0.7846
vn -0.9264 -0.0209 -0.3761
vn -0.1856 0.8332 -0.5210
vn -0.9316 0.2229 0.2873
vn 0.0749 0.9440 -0.3212
vn -0.7659 0.2562 0.5897
vn 0.4721 0.8810 0.0295
vn -0.3446 0.2129 0.9143
vn -0.4411 0.8580 -0.2632
vn -0.9215 0.3882 0.0137
vn 0.1915 0.8131 0.5498
vn -0.2023 0.6403 0.7410
vn -0.6494 -0.4162 -0.6364
vn -0.4555 -0.2309 -0.8597
vn -0.8487 0.5282 0.0262
vn -0.5357 0.7843 -0.3129
vn 0.5490 0.7405 -0.3876
vn -0.8142 -0.5508 0.1836
vn 0.5897 0.6427 -0.4891
vn -0.5677 -0.3042 0.7650
vn 0.3610 0.4855 -0.7962
vn -0.7792 -0.4473 0.4392
vn 0.5196 0.5404 -0.6618
vn -0.6566 -0.5764 0.4865
vn 0.9080 -0.2457 -0.3395
vn -0.0078 -0.8651 0.5016
vn 0.8480 -0.5006 -0.1742
vn 0.4066 -0.8615 0.3041
vn 0.9179 -0.3284 -0.2227
vn 0.2915 -0.8409 0.4560
vn 0.9089 0.0669 0.4116
vn 0.5447 -0.2310 0.8062
vn 0.1280 -0.3203 -0.9386
vn -0.5265 -0.8274 -0.1955
vn 0.1474 -0.3113 -0.9388
vn -0.5490 -0.7592 -0.3495
vn 0.4025 -0.7484 -0.5272
vn 0.1242 -0.9904 0.0614
vn 0.6868 -0.2332 -0.6884
vn -0.1328 -0.9627 0.2358
vn 0.2876 0.8641 0.4130
vn 0.0402 0.4018 0.9149
vn 0.5325 0.7707 0.3500
vn -0.0189 0.3196 0.9474
vn 0.6018 0.4821 0.6367
vn 0.1456 0.3766 0.9149
vn 0.6956 0.4711 0.5425
vn 0.4145 0.2311 0.8802
vn 0.8743 0.4313 0.2227
vn 0.2123 0.2801 0.9362
vn 0.8738 0.4644 0.1442
vn 0.1018 -0.1672 0.9806
vn 0.0250 0.9903 0.1367
vn -0.4583 0.5949 0.6603
vn -0.4385 0.7131 0.5469
vn -0.1236 0.9708 0.2057
vn -0.3351 0.0315 0.9417
vn 0.5985 0.7769 -0.1957
vn 0.2988 -0.2140 0.9300
vn 0.9222 0.2920 0.2536
vn 0.9555 0.1031 0.2765
vn 0.4265 -0.4251 0.7984
vn 0.9744 0.2250 -0.0028
vn 0.1573 -0.4434 0.8824
vn 0.9224 -0.2348 -0.3067
vn -0.1794 -0.9389 0.2938
vn 0.1639 0.4872 0.8577
vn 0.3881 0.6953 0.6050
vn 0.6923 0.0665 -0.7185
vn -0.3806 -0.8112 0.4439
vn 0.6494 0.4162 0.6364
vn 0.4381 0.2433 0.8654
vn -0.5202 0.7336 0.4373
vn -0.2432 0.9602 0.1372
vn 0.6547 0.7538 0.0564
vn 0.4028 -0.2492 0.8807
vn 0.2501 0.9596 0.1286
vn -0.3801 0.4441 0.8114
vn 0.8669 0.1827 -0.4638
vn 0.3318 -0.4435 0.8326
vn 0.9857 0.1324 0.1047
vn 0.2353 -0.2109 0.9488
vn 0.8980 0.4025 0.1776
vn 0.3253 -0.4488 0.8323
vn 0.6485 0.4098 0.6415
vn -0.5856 -0.6905 0.4245
vn 0.6959 -0.0051 -0.7182
vn -0.3498 -0.7727 0.5296
vn 0.9024 -0.0838 -0.4226
vn -0.0063 -0.8272 0.5619
vn 0.9126 -0.0218 -0.4083
vn -0.0285 -0.8213 0.5698
vn -0.5269 0.8133 -0.2470
vn -0.6914 0.7161 0.0955
vn 0.4057 0.7801 -0.4763
vn -0.7065 -0.1717 0.6865
vn 0.8671 -0.2042 -0.4544
vn 0.0284 -0.8904 0.4544
vn -0.5658 0.8160 0.1184
vn -0.5471 0.8313 0.0983
vn 0.9752 -0.1339 -0.1761
vn 0.2320 -0.7419 0.6291
vn 0.8990 -0.4301 0.0825
vn 0.5770 -0.6935 0.4313
vn -0.2687 -0.8469 0.4589
vn 0.7574 -0.0074 -0.6529
vn -0.8854 -0.4235 0.1918
vn 0.0606 0.3634 -0.9297
vn -0.9961 0.0876 -0.0077
vn -0.2278 0.8772 -0.4227
vn -0.7021 0.7097 0.0584
vn -0.5523 0.8272 0.1038
vn 0.5867 0.4924 0.6429
vn 0.4073 0.3839 0.8287
vn 0.6714 0.6027 0.4313
vn 0.2803 0.3394 0.8979
vn 0.6908 0.5056 0.5169
vn 0.3079 0.1923 0.9318
vn 0.5365 0.4980 0.6813
vn 0.3536 0.3052 0.8842
vn 0.6136 0.7495 0.2485
vn -0.0600 0.1984 0.9783
vn 0.7220 0.5493 0.4207
vn 0.2584 0.1644 0.9519
vn 0.5859 0.5727 0.5733
vn 0.4419 0.1164 0.8895
vn 0.5870 0.4511 0.6722
vn 0.4268 0.3201 0.8458
vn -0.3522 0.6748 0.6485
vn 0.2148 0.9623 0.1669
vn 0.8308 0.4877 0.2681
vn 0.1700 -0.0528 0.9840
vn 0.8329 0.4249 0.3545
vn 0.3025 -0.0119 0.9531
vn 0.8634 0.1815 0.4708
vn 0.1415 -0.0566 0.9883
vn 0.5969 0.7679 0.2326
vn -0.0876 0.2079 0.9742
vn 0.6497 -0.7517 -0.1129
vn 0.5393 -0.8421 0.0068
vn 0.8056 -0.4426 -0.3938
vn 0.1935 -0.9434 0.2694
vn 0.8469 0.3751 -0.3769
vn -0.2606 -0.5416 0.7992
vn 0.1322 0.8352 -0.5338
vn -0.8666 -0.0254 0.4983
vn -0.8695 0.4829 -0.1040
vn -0.5555 0.7651 -0.3257
vn -0.9094 0.3997 0.1155
vn -0.2845 0.8968 -0.3387
vn -0.7316 -0.6171 -0.2898
vn -0.1095 -0.0934 -0.9896
vn -0.5835 -0.5742 -0.5744
vn -0.2803 -0.3262 -0.9028
vn -0.8409 0.1888 0.5071
vn 0.1072 0.8501 -0.5156
vn 0.1617 -0.0888 -0.9828
vn -0.6500 -0.7528 -0.1034
vn 0.0974 -0.9905 -0.0972
vn 0.5248 -0.6408 -0.5603
vt 0.843250 0.588863
vt 0.794218 0.611927
vt 0.815334 0.560948
vt 0.866314 0.937441
vt 0.889378 0.888409
vt 0.917293 0.916324
vt 0.746541 0.611927
vt 0.781622 0.527235
vt 0.866314 0.985118
vt 0.951006 0.950037
vt 0.781622 0.696619
vt 0.781622 0.950037
vt 0.833697 0.611927
vt 0.815334 0.662907
vt 0.815334 0.916325
vt 0.866314 0.897962
vt 0.843250 0.634991
vt 0.866314 0.684023
vt 0.794218 0.865345
vt 0.843250 0.888409
vt 0.866314 0.731700
vt 0.746541 0.865345
vt 0.917293 0.662907
vt 0.815334 0.814366
vt 0.781622 0.780653
vt 0.889378 0.634991
vt 0.866314 0.644544
vt 0.843250 0.842281
vt 0.938410 0.611927
vt 0.866314 0.793249
vt 0.951006 0.696619
vt 0.866314 0.745572
vt 0.917294 0.560947
vt 0.986087 0.611927
vt 0.917294 0.814365
vt 0.951006 0.780653
vt 0.889378 0.588863
vt 0.898931 0.611927
vt 0.889378 0.842281
vt 0.866314 0.579310
vt 0.898931 0.865345
vt 0.938410 0.865345
vt 0.866314 0.539831
vt 0.951006 0.527235
vt 0.986087 0.865345
vt 0.866314 0.492154
vt 0.847600 0.593213
vt 0.885028 0.884059
vt 0.892780 0.865345
vt 0.866314 0.585461
vt 0.885028 0.846631
vt 0.885028 0.593213
vt 0.866314 0.832728
vt 0.866314 0.838879
vt 0.892780 0.611927
vt 0.847600 0.846631
vt 0.866314 0.638393
vt 0.885028 0.630641
vt 0.839848 0.865345
vt 0.847600 0.630641
vt 0.847600 0.884059
vt 0.833697 0.865345
vt 0.839848 0.611927
vt 0.866314 0.891811
vt 0.866314 0.611927
vt 0.866314 0.865345
vt 0.517028 0.068490
vt 0.500000 0.054411
vt 0.520711 0.060503
vt 0.482972 0.068490
vt 0.500000 0.064527
vt 0.522612 0.070678
vt 0.530457 0.065062
vt 0.477388 0.070678
vt 0.479289 0.060503
vt 0.532878 0.067822
vt 0.467122 0.067822
vt 0.469543 0.065062
vt 0.544695 0.083023
vt 0.526301 0.079422
vt 0.473699 0.079422
vt 0.455305 0.083023
vt 0.565647 0.115495
vt 0.529228 0.091098
vt 0.470772 0.091098
vt 0.434353 0.115495
vt 0.586916 0.172042
vt 0.600470 0.238288
vt 0.535885 0.215568
vt 0.399530 0.238288
vt 0.413084 0.172042
vt 0.464115 0.215568
vt 0.650908 0.240294
vt 0.626605 0.208159
vt 0.349092 0.240294
vt 0.363038 0.261221
vt 0.655896 0.284413
vt 0.636962 0.261221
vt 0.344104 0.284413
vt 0.684517 0.317795
vt 0.689501 0.268805
vt 0.315483 0.317795
vt 0.340493 0.313152
vt 0.671357 0.334694
vt 0.659507 0.313152
vt 0.328643 0.334694
vt 0.350893 0.322437
vt 0.636775 0.370732
vt 0.649107 0.322437
vt 0.363225 0.370732
vt 0.386364 0.353108
vt 0.594178 0.371277
vt 0.613636 0.353108
vt 0.405822 0.371277
vt 0.581044 0.398468
vt 0.602261 0.395588
vt 0.418956 0.398468
vt 0.422649 0.373341
vt 0.532016 0.387365
vt 0.577351 0.373341
vt 0.467984 0.387365
vt 0.460183 0.354339
vt 0.500000 0.382860
vt 0.539817 0.354339
vt 0.500000 0.340417
vt 0.579057 0.335646
vt 0.559135 0.334326
vt 0.420943 0.335646
vt 0.592090 0.332885
vt 0.606163 0.325516
vt 0.407910 0.332885
vt 0.628251 0.311636
vt 0.393837 0.325516
vt 0.635551 0.300507
vt 0.371749 0.311636
vt 0.631484 0.283889
vt 0.364449 0.300507
vt 0.611331 0.264411
vt 0.368516 0.283889
vt 0.592372 0.254897
vt 0.388669 0.264411
vt 0.559669 0.267717
vt 0.440331 0.267717
vt 0.407628 0.254897
vt 0.500000 0.252445
vt 0.544001 0.314523
vt 0.455999 0.314523
vt 0.500000 0.295691
vt 0.543637 0.293371
vt 0.456363 0.293371
vt 0.550878 0.277832
vt 0.449122 0.277832
vt 0.506819 0.075382
vt 0.493181 0.075382
vt 0.511782 0.080633
vt 0.488218 0.080633
vt 0.512172 0.093457
vt 0.537536 0.127779
vt 0.513874 0.097191
vt 0.486126 0.097191
vt 0.462464 0.127779
vt 0.487828 0.093457
vt 0.500000 0.157864
vt 0.514257 0.133422
vt 0.520226 0.164615
vt 0.485743 0.133422
vt 0.500000 0.134352
vt 0.500000 0.100063
vt 0.500000 0.091346
vt 0.530258 0.180239
vt 0.517666 0.172353
vt 0.482334 0.172353
vt 0.469742 0.180239
vt 0.479774 0.164615
vt 0.518957 0.194728
vt 0.523673 0.198817
vt 0.481043 0.194728
vt 0.478099 0.181560
vt 0.508211 0.197295
vt 0.500000 0.203867
vt 0.491789 0.197295
vt 0.476327 0.198817
vt 0.500000 0.192167
vt 0.500000 0.197278
vt 0.500000 0.165170
vt 0.500000 0.171718
vt 0.486462 0.176949
vt 0.508818 0.192407
vt 0.491182 0.192407
vt 0.515232 0.190709
vt 0.484768 0.190709
vt 0.521901 0.181560
vt 0.483092 0.181873
vt 0.513538 0.176949
vt 0.516908 0.181873
vt 0.500000 0.186182
vt 0.544209 0.172814
vt 0.455791 0.172814
vt 0.458673 0.154899
vt 0.541327 0.154899
vt 0.578661 0.139176
vt 0.421339 0.139176
vt 0.583245 0.154155
vt 0.416755 0.154155
vt 0.509911 0.090724
vt 0.490089 0.090724
vt 0.500000 0.089977
vt 0.509713 0.082236
vt 0.490287 0.082236
vt 0.505196 0.077083
vt 0.494804 0.077083
vt 0.500000 0.073497
vt 0.500000 0.075473
vt 0.500000 0.080320
vt 0.496555 0.080840
vt 0.506660 0.083289
vt 0.503445 0.080840
vt 0.493340 0.083289
vt 0.506822 0.086791
vt 0.493178 0.086791
vt 0.500000 0.085637
vt 0.562361 0.284338
vt 0.559190 0.294882
vt 0.437639 0.284338
vt 0.440810 0.294882
vt 0.563180 0.307151
vt 0.436820 0.307151
vt 0.570458 0.318697
vt 0.429542 0.318697
vt 0.430757 0.278245
vt 0.589914 0.271772
vt 0.569243 0.278245
vt 0.410086 0.271772
vt 0.602190 0.277180
vt 0.397810 0.277180
vt 0.617110 0.287175
vt 0.382890 0.287175
vt 0.618074 0.299197
vt 0.381926 0.299197
vt 0.384129 0.307438
vt 0.615871 0.307438
vt 0.401576 0.313725
vt 0.590828 0.319797
vt 0.598424 0.313725
vt 0.409172 0.319797
vt 0.582130 0.320991
vt 0.417870 0.320991
vt 0.578615 0.309394
vt 0.583998 0.312892
vt 0.421385 0.309394
vt 0.416002 0.312892
vt 0.589656 0.312336
vt 0.410344 0.312336
vt 0.596347 0.309249
vt 0.403653 0.309249
vt 0.606014 0.302517
vt 0.393986 0.302517
vt 0.607735 0.297520
vt 0.392265 0.297520
vt 0.606985 0.291216
vt 0.393015 0.291216
vt 0.598275 0.283083
vt 0.401725 0.283083
vt 0.589866 0.280167
vt 0.410134 0.280167
vt 0.576352 0.284624
vt 0.423648 0.284624
vt 0.572831 0.289915
vt 0.427169 0.289915
vt 0.573307 0.303342
vt 0.426693 0.303342
vt 0.572447 0.295716
vt 0.427553 0.295716
vt 0.529647 0.428636
vt 0.500000 0.428636
vt 0.470353 0.428636
vt 0.584616 0.428636
vt 0.415384 0.428636
vt 0.397739 0.395588
vt 0.377699 0.417889
vt 0.622301 0.417889
vt 0.333786 0.388954
vt 0.666214 0.388954
vt 0.298519 0.344467
vt 0.712163 0.315527
vt 0.701481 0.344467
vt 0.287837 0.315527
vt 0.310499 0.268805
vt 0.295695 0.260225
vt 0.672947 0.224880
vt 0.704305 0.260225
vt 0.327053 0.224880
vt 0.640497 0.198841
vt 0.359503 0.198841
vt 0.625128 0.029461
vt 0.598617 0.056841
vt 0.603553 0.023452
vt 0.374872 0.029461
vt 0.401383 0.056841
vt 0.364247 0.082198
vt 0.556354 0.040906
vt 0.546781 0.009442
vt 0.396447 0.023452
vt 0.443646 0.040906
vt 0.527159 0.049514
vt 0.500000 0.033223
vt 0.453219 0.009442
vt 0.472841 0.049514
vt 0.537222 0.060794
vt 0.462778 0.060794
vt 0.558499 0.065137
vt 0.441501 0.065137
vt 0.588127 0.085177
vt 0.411873 0.085177
vt 0.635753 0.082198
vt 0.607239 0.113940
vt 0.392761 0.113940
vt 0.612663 0.133675
vt 0.387337 0.133675
vt 0.394533 0.151503
vt 0.600708 0.162985
vt 0.399292 0.162985
vt 0.373395 0.208159
vt 0.859647 0.117994
vt 0.861342 0.027230
vt 0.922374 0.064228
vt 0.140353 0.117994
vt 0.138658 0.027230
vt 0.176713 0.101559
vt 0.823287 0.101559
vt 0.774604 0.010837
vt 0.225396 0.010837
vt 0.234137 0.087001
vt 0.661952 0.087561
vt 0.647010 0.028716
vt 0.338048 0.087561
vt 0.352990 0.028716
vt 0.743592 0.198572
vt 0.766410 0.233065
vt 0.256408 0.198572
vt 0.233590 0.233065
vt 0.889478 0.177602
vt 0.987633 0.154243
vt 0.110522 0.177602
vt 0.077626 0.064228
vt 0.844317 0.347370
vt 0.958963 0.357385
vt 0.899807 0.420886
vt 0.155683 0.347370
vt 0.041037 0.357385
vt 0.118831 0.309153
vt 0.903302 0.261367
vt 0.999860 0.253531
vt 0.096698 0.261367
vt 0.000140 0.253531
vt 0.012367 0.154243
vt 0.724763 0.340212
vt 0.744725 0.304629
vt 0.766113 0.319494
vt 0.255275 0.304629
vt 0.275237 0.340212
vt 0.233887 0.319494
vt 0.793427 0.280495
vt 0.826663 0.297810
vt 0.206573 0.280495
vt 0.173337 0.297810
vt 0.823620 0.254612
vt 0.855331 0.267956
vt 0.176380 0.254612
vt 0.144669 0.267956
vt 0.835860 0.225225
vt 0.868309 0.233525
vt 0.164140 0.225225
vt 0.131691 0.233525
vt 0.851288 0.181145
vt 0.813499 0.190705
vt 0.148712 0.181145
vt 0.881169 0.309153
vt 0.772263 0.374010
vt 0.744519 0.390057
vt 0.227737 0.374010
vt 0.824765 0.470987
vt 0.100193 0.420886
vt 0.742181 0.461543
vt 0.792141 0.464714
vt 0.257819 0.461543
vt 0.255481 0.390057
vt 0.273145 0.432574
vt 0.207859 0.464714
vt 0.175235 0.470987
vt 0.795638 0.489991
vt 0.204362 0.489991
vt 0.786137 0.227788
vt 0.213863 0.227788
vt 0.802950 0.203415
vt 0.197050 0.203415
vt 0.765863 0.087001
vt 0.691484 0.146686
vt 0.308516 0.146686
vt 0.230666 0.128771
vt 0.780113 0.169386
vt 0.219887 0.169386
vt 0.605467 0.151503
vt 0.803789 0.171181
vt 0.196211 0.171181
vt 0.169083 0.139518
vt 0.769334 0.128771
vt 0.830917 0.139518
vt 0.464516 0.959188
vt 0.545439 0.884582
vt 0.574628 0.959188
vt 0.285710 0.959188
vt 0.204787 0.884582
vt 0.272900 0.891852
vt 0.605134 0.846978
vt 0.715894 0.897069
vt 0.145092 0.846978
vt 0.175598 0.959188
vt 0.034332 0.897069
vt 0.683874 0.757011
vt 0.066352 0.757011
vt 0.144866 0.784410
vt 0.605360 0.784410
vt 0.617867 0.719156
vt 0.132359 0.719156
vt 0.175391 0.744212
vt 0.574835 0.744212
vt 0.568728 0.682132
vt 0.181498 0.682132
vt 0.215230 0.712528
vt 0.483006 0.686791
vt 0.508539 0.641024
vt 0.267220 0.686791
vt 0.241687 0.641024
vt 0.534996 0.712528
vt 0.478880 0.719593
vt 0.271346 0.719593
vt 0.513415 0.736977
vt 0.236811 0.736977
vt 0.557599 0.789442
vt 0.192627 0.789442
vt 0.209109 0.760754
vt 0.553841 0.821849
vt 0.196385 0.821849
vt 0.524671 0.842380
vt 0.225555 0.842380
vt 0.485193 0.845321
vt 0.265033 0.845321
vt 0.770208 0.191225
vt 0.229792 0.191225
vt 0.213850 0.181127
vt 0.409610 0.674022
vt 0.408153 0.587507
vt 0.340616 0.674022
vt 0.400301 0.910556
vt 0.477326 0.891852
vt 0.349925 0.910556
vt 0.443630 0.713731
vt 0.306596 0.713731
vt 0.392812 0.710774
vt 0.429725 0.728622
vt 0.357414 0.710774
vt 0.422979 0.754609
vt 0.432640 0.746527
vt 0.320501 0.728622
vt 0.327247 0.754609
vt 0.317586 0.746527
vt 0.391578 0.815187
vt 0.427719 0.796173
vt 0.358648 0.815187
vt 0.448277 0.830976
vt 0.414155 0.878318
vt 0.301949 0.830976
vt 0.322507 0.796173
vt 0.336071 0.878318
vt 0.797710 0.195652
vt 0.202290 0.195652
vt 0.197420 0.199758
vt 0.210391 0.184671
vt 0.786150 0.181127
vt 0.789609 0.184671
vt 0.466042 0.804091
vt 0.490498 0.816075
vt 0.284184 0.804091
vt 0.259728 0.816075
vt 0.302184 0.783921
vt 0.438745 0.764960
vt 0.448042 0.783921
vt 0.311481 0.764960
vt 0.305010 0.756351
vt 0.445216 0.756351
vt 0.300407 0.743458
vt 0.456307 0.732687
vt 0.449819 0.743458
vt 0.293919 0.732687
vt 0.475471 0.740871
vt 0.274755 0.740871
vt 0.514211 0.817769
vt 0.236015 0.817769
vt 0.527961 0.808598
vt 0.222265 0.808598
vt 0.530079 0.790754
vt 0.220147 0.790754
vt 0.518620 0.772385
vt 0.541117 0.760754
vt 0.231606 0.772385
vt 0.498668 0.755033
vt 0.251558 0.755033
vt 0.459660 0.770459
vt 0.290566 0.770459
vt 0.282197 0.756171
vt 0.468029 0.756171
vt 0.477354 0.785393
vt 0.272872 0.785393
vt 0.263059 0.769899
vt 0.504617 0.782999
vt 0.496545 0.797122
vt 0.245609 0.782999
vt 0.253681 0.797122
vt 0.513713 0.804019
vt 0.236513 0.804019
vt 0.234089 0.792591
vt 0.516137 0.792591
vt 0.574269 0.607668
vt 0.613510 0.655816
vt 0.175957 0.607668
vt 0.136716 0.655816
vt 0.644031 0.693270
vt 0.106195 0.693270
vt 0.668163 0.712097
vt 0.082063 0.712097
vt 0.676584 0.686010
vt 0.727131 0.698475
vt 0.073642 0.686010
vt 0.667013 0.640198
vt 0.729804 0.624370
vt 0.023095 0.698475
vt 0.083213 0.640198
vt 0.648152 0.594596
vt 0.721292 0.572934
vt 0.020422 0.624370
vt 0.102074 0.594596
vt 0.717709 0.538143
vt 0.630034 0.557583
vt 0.032517 0.538143
vt 0.028934 0.572934
vt 0.526877 0.539235
vt 0.120192 0.557583
vt 0.223349 0.539235
vt 0.342073 0.587507
vt 0.440865 0.334326
vt 0.186501 0.190705
vt 0.726855 0.432574
vt 0.802580 0.199758
vt 0.487167 0.769899
s 0
f 47/1/1 3/2/1 45/3/1
f 4/4/2 48/5/2 46/6/2
f 45/3/3 5/7/3 43/8/3
f 6/9/4 46/6/4 44/10/4
f 3/2/5 7/11/5 5/7/5
f 8/12/6 4/4/6 6/9/6
f 1/13/7 9/14/7 3/2/7
f 10/15/8 2/16/8 4/4/8
f 11/17/9 15/18/9 9/14/9
f 16/19/10 12/20/10 10/15/10
f 9/14/11 17/21/11 7/11/11
f 18/22/12 10/15/12 8/12/12
f 21/23/13 17/21/13 15/18/13
f 22/24/14 18/22/14 20/25/14
f 23/26/15 15/18/15 13/27/15
f 24/28/16 16/19/16 22/24/16
f 23/26/17 27/29/17 21/23/17
f 28/30/18 24/28/18 22/24/18
f 27/29/19 19/31/19 21/23/19
f 28/30/20 20/25/20 30/32/20
f 33/33/21 29/34/21 27/29/21
f 34/35/22 30/32/22 32/36/22
f 35/37/23 27/29/23 25/38/23
f 36/39/24 28/30/24 34/35/24
f 37/40/25 33/33/25 35/37/25
f 38/41/26 34/35/26 40/42/26
f 39/43/27 31/44/27 33/33/27
f 40/42/28 32/36/28 42/45/28
f 45/3/29 41/46/29 39/43/29
f 46/6/30 42/45/30 44/10/30
f 47/1/31 39/43/31 37/40/31
f 48/5/32 40/42/32 46/6/32
f 37/40/33 49/47/33 47/1/33
f 38/41/34 50/48/34 52/49/34
f 35/37/35 51/50/35 37/40/35
f 36/39/36 52/49/36 54/51/36
f 25/38/37 53/52/37 35/37/37
f 26/53/38 54/51/38 56/54/38
f 23/26/39 55/55/39 25/38/39
f 24/28/40 56/54/40 58/56/40
f 23/26/41 59/57/41 57/58/41
f 60/59/42 24/28/42 58/56/42
f 13/27/43 63/60/43 59/57/43
f 64/61/44 14/62/44 60/59/44
f 11/17/45 65/63/45 63/60/45
f 66/64/46 12/20/46 64/61/46
f 1/13/47 49/47/47 65/63/47
f 50/48/48 2/16/48 66/64/48
f 61/65/49 65/63/49 49/47/49
f 50/48/50 66/64/50 62/66/50
f 63/60/51 65/63/51 61/65/51
f 62/66/52 66/64/52 64/61/52
f 61/65/53 59/57/53 63/60/53
f 64/61/54 60/59/54 62/66/54
f 61/65/55 57/58/55 59/57/55
f 60/59/56 58/56/56 62/66/56
f 61/65/57 55/55/57 57/58/57
f 58/56/58 56/54/58 62/66/58
f 61/65/59 53/52/59 55/55/59
f 56/54/60 54/51/60 62/66/60
f 61/65/61 51/50/61 53/52/61
f 54/51/62 52/49/62 62/66/62
f 61/65/63 49/47/63 51/50/63
f 52/49/64 50/48/64 62/66/64
f 174/67/65 91/68/65 89/69/65
f 175/70/66 91/68/66 176/71/66
f 172/72/67 89/69/67 87/73/67
f 173/74/68 90/75/68 175/70/68
f 85/76/69 172/72/69 87/73/69
f 173/74/70 86/77/70 88/78/70
f 83/79/71 170/80/71 85/76/71
f 171/81/72 84/82/72 86/77/72
f 81/83/73 168/84/73 83/79/73
f 169/85/74 82/86/74 84/82/74
f 79/87/75 146/88/75 164/89/75
f 147/90/76 80/91/76 165/92/76
f 94/93/77 146/88/77 92/94/77
f 95/95/78 147/90/78 149/96/78
f 94/93/79 150/97/79 148/98/79
f 151/99/80 95/95/80 149/96/80
f 98/100/81 150/97/81 96/101/81
f 99/102/82 151/99/82 153/103/82
f 100/104/83 152/105/83 98/100/83
f 101/106/84 153/103/84 155/107/84
f 102/108/85 154/109/85 100/104/85
f 103/110/86 155/107/86 157/111/86
f 102/108/87 158/112/87 156/113/87
f 159/114/88 103/110/88 157/111/88
f 106/115/89 158/112/89 104/116/89
f 107/117/90 159/114/90 161/118/90
f 108/119/91 160/120/91 106/115/91
f 109/121/92 161/118/92 163/122/92
f 67/123/93 162/124/93 108/119/93
f 67/123/94 163/122/94 68/125/94
f 128/126/95 162/124/95 110/127/95
f 129/128/96 163/122/96 161/118/96
f 128/126/97 158/112/97 160/120/97
f 159/114/98 129/128/98 161/118/98
f 156/113/99 179/129/99 126/130/99
f 157/111/100 180/131/100 159/114/100
f 154/109/101 126/130/101 124/132/101
f 155/107/102 127/133/102 157/111/102
f 152/105/103 124/132/103 122/134/103
f 153/103/104 125/135/104 155/107/104
f 150/97/105 122/134/105 120/136/105
f 151/99/106 123/137/106 153/103/106
f 148/98/107 120/136/107 118/138/107
f 149/96/108 121/139/108 151/99/108
f 146/88/109 118/138/109 116/140/109
f 147/90/110 119/141/110 149/96/110
f 114/142/111 146/88/111 116/140/111
f 147/90/111 115/143/111 117/144/111
f 114/142/112 177/145/112 164/89/112
f 177/145/113 115/143/113 165/92/113
f 162/124/114 112/146/114 110/127/114
f 163/122/115 113/147/115 68/125/115
f 112/146/116 178/148/116 183/149/116
f 178/148/117 113/147/117 184/150/117
f 181/151/118 178/148/118 177/145/118
f 182/152/119 178/148/119 184/150/119
f 135/153/120 176/71/120 174/67/120
f 176/71/121 136/154/121 175/70/121
f 133/155/122 174/67/122 172/72/122
f 175/70/123 134/156/123 173/74/123
f 133/155/124 170/80/124 131/157/124
f 134/156/125 171/81/125 173/74/125
f 166/158/126 185/159/126 168/84/126
f 186/160/127 167/161/127 169/85/127
f 131/157/128 168/84/128 185/159/128
f 169/85/129 132/162/129 186/160/129
f 190/163/130 187/164/130 144/165/130
f 190/163/131 188/166/131 189/167/131
f 187/164/132 69/168/132 185/159/132
f 188/166/133 69/168/133 189/167/133
f 131/157/134 69/168/134 130/169/134
f 132/162/134 69/168/134 186/160/134
f 142/170/135 191/171/135 144/165/135
f 192/172/136 143/173/136 145/174/136
f 195/175/137 142/170/137 140/176/137
f 196/177/138 143/173/138 194/178/138
f 197/179/139 140/176/139 139/180/139
f 198/181/140 141/182/140 196/177/140
f 71/183/141 139/180/141 138/184/141
f 71/183/142 139/180/142 198/181/142
f 144/165/143 70/185/143 190/163/143
f 145/174/144 70/185/144 192/172/144
f 191/171/145 208/186/145 70/185/145
f 192/172/146 208/186/146 207/187/146
f 71/183/147 200/188/147 197/179/147
f 201/189/148 71/183/148 198/181/148
f 197/179/149 202/190/149 195/175/149
f 203/191/150 198/181/150 196/177/150
f 202/190/151 193/192/151 195/175/151
f 203/191/152 194/178/152 205/193/152
f 193/192/153 206/194/153 191/171/153
f 207/187/154 194/178/154 192/172/154
f 204/195/155 200/188/155 199/196/155
f 205/193/156 201/189/156 203/191/156
f 199/196/157 206/194/157 204/195/157
f 207/187/158 199/196/158 205/193/158
f 139/180/159 164/89/159 177/145/159
f 165/92/160 139/180/160 177/145/160
f 140/176/161 211/197/161 164/89/161
f 212/198/162 141/182/162 165/92/162
f 144/165/163 211/197/163 142/170/163
f 145/174/164 212/198/164 214/199/164
f 187/164/165 213/200/165 144/165/165
f 188/166/166 214/199/166 167/161/166
f 209/201/167 166/158/167 81/83/167
f 210/202/168 167/161/168 214/199/168
f 215/203/169 213/200/169 209/201/169
f 216/204/170 214/199/170 212/198/170
f 79/87/171 211/197/171 215/203/171
f 212/198/172 80/91/172 216/204/172
f 130/169/173 222/205/173 131/157/173
f 130/169/174 223/206/174 72/207/174
f 133/155/175 222/205/175 220/208/175
f 223/206/176 134/156/176 221/209/176
f 135/153/177 220/208/177 218/210/177
f 221/209/178 136/154/178 219/211/178
f 137/212/134 218/210/134 217/213/134
f 219/211/134 137/212/134 217/213/134
f 218/210/179 231/214/179 217/213/179
f 219/211/180 231/214/180 230/215/180
f 218/210/181 227/216/181 229/217/181
f 228/218/182 219/211/182 230/215/182
f 220/208/141 225/219/141 227/216/141
f 226/220/183 221/209/183 228/218/183
f 72/207/184 225/219/184 222/205/184
f 72/207/185 226/220/185 224/221/185
f 224/221/186 229/217/186 225/219/186
f 230/215/187 224/221/187 226/220/187
f 225/219/188 229/217/188 227/216/188
f 228/218/189 230/215/189 226/220/189
f 183/149/190 234/222/190 232/223/190
f 235/224/191 184/150/191 233/225/191
f 112/146/192 232/223/192 254/226/192
f 233/225/193 113/147/193 255/227/193
f 112/146/194 256/228/194 110/127/194
f 113/147/195 257/229/195 255/227/195
f 114/142/196 234/222/196 181/151/196
f 115/143/197 235/224/197 253/230/197
f 114/142/198 250/231/198 252/232/198
f 251/233/199 115/143/199 253/230/199
f 116/140/200 248/234/200 250/231/200
f 249/235/201 117/144/201 251/233/201
f 118/138/202 246/236/202 248/234/202
f 247/237/203 119/141/203 249/235/203
f 120/136/204 244/238/204 246/236/204
f 245/239/205 121/139/205 247/237/205
f 124/132/206 244/238/206 122/134/206
f 125/135/207 245/239/207 243/240/207
f 126/130/208 242/241/208 124/132/208
f 127/133/209 243/240/209 241/242/209
f 126/130/210 236/243/210 240/244/210
f 237/245/211 127/133/211 241/242/211
f 179/129/212 238/246/212 236/243/212
f 239/247/213 180/131/213 237/245/213
f 128/126/214 256/228/214 238/246/214
f 257/229/215 129/128/215 239/247/215
f 238/246/216 258/248/216 276/249/216
f 259/250/217 239/247/217 277/251/217
f 236/243/218 276/249/218 278/252/218
f 277/251/219 237/245/219 279/253/219
f 236/243/220 274/254/220 240/244/220
f 237/245/221 275/255/221 279/253/221
f 240/244/222 272/256/222 242/241/222
f 241/242/223 273/257/223 275/255/223
f 244/238/224 272/256/224 270/258/224
f 273/257/225 245/239/225 271/259/225
f 244/238/226 268/260/226 246/236/226
f 245/239/227 269/261/227 271/259/227
f 248/234/228 268/260/228 266/262/228
f 269/261/229 249/235/229 267/263/229
f 248/234/230 264/264/230 250/231/230
f 249/235/231 265/265/231 267/263/231
f 250/231/232 262/266/232 252/232/232
f 251/233/233 263/267/233 265/265/233
f 234/222/234 262/266/234 280/268/234
f 263/267/235 235/224/235 281/269/235
f 256/228/236 260/270/236 258/248/236
f 261/271/237 257/229/237 259/250/237
f 254/226/238 282/272/238 260/270/238
f 283/273/239 255/227/239 261/271/239
f 232/223/240 280/268/240 282/272/240
f 281/269/241 233/225/241 283/273/241
f 67/123/242 284/274/242 73/275/242
f 285/276/243 67/123/243 73/275/243
f 108/119/244 286/277/244 284/274/244
f 287/278/245 109/121/245 285/276/245
f 104/116/246 286/277/246 106/115/246
f 105/279/247 287/278/247 289/280/247
f 102/108/248 288/281/248 104/116/248
f 103/110/249 289/280/249 291/282/249
f 100/104/250 290/283/250 102/108/250
f 101/106/251 291/282/251 293/284/251
f 100/104/252 294/285/252 292/286/252
f 295/287/253 101/106/253 293/284/253
f 96/101/254 294/285/254 98/100/254
f 97/288/255 295/287/255 297/289/255
f 96/101/256 298/290/256 296/291/256
f 299/292/257 97/288/257 297/289/257
f 94/93/258 300/293/258 298/290/258
f 301/294/259 95/95/259 299/292/259
f 309/295/260 338/296/260 308/297/260
f 309/298/261 339/299/261 329/300/261
f 308/297/262 336/301/262 307/302/262
f 308/303/263 337/304/263 339/299/263
f 307/302/264 340/305/264 306/306/264
f 307/307/265 341/308/265 337/304/265
f 89/69/266 306/306/266 340/305/266
f 306/306/267 90/75/267 341/308/267
f 87/73/268 340/305/268 334/309/268
f 341/308/269 88/78/269 335/310/269
f 85/76/270 334/309/270 330/311/270
f 335/310/271 86/77/271 331/312/271
f 83/79/272 330/311/272 332/313/272
f 331/312/273 84/82/273 333/314/273
f 330/311/274 338/296/274 332/313/274
f 339/299/275 331/312/275 333/314/275
f 334/309/276 336/301/276 330/311/276
f 335/310/277 337/304/277 341/308/277
f 332/313/278 328/315/278 326/316/278
f 333/314/279 329/300/279 339/299/279
f 81/83/280 332/313/280 326/316/280
f 333/314/281 82/86/281 327/317/281
f 342/318/282 215/203/282 209/201/282
f 343/319/283 216/204/283 345/320/283
f 326/316/284 209/201/284 81/83/284
f 327/317/285 210/202/285 343/319/285
f 215/203/286 346/321/286 79/87/286
f 216/204/287 347/322/287 345/320/287
f 346/321/288 92/94/288 79/87/288
f 347/322/289 93/323/289 301/294/289
f 324/324/290 304/325/290 77/326/290
f 325/327/291 304/328/291 353/329/291
f 352/330/292 78/331/292 304/325/292
f 353/329/293 78/332/293 351/333/293
f 78/331/294 348/334/294 305/335/294
f 349/336/295 78/332/295 305/337/295
f 305/335/296 328/315/296 309/295/296
f 329/300/297 305/337/297 309/298/297
f 328/315/298 342/318/298 326/316/298
f 329/300/299 343/319/299 349/336/299
f 296/291/300 318/338/300 310/339/300
f 319/340/301 297/289/301 311/341/301
f 316/342/302 77/326/302 76/343/302
f 317/344/303 77/345/303 325/327/303
f 358/346/304 303/347/304 302/348/304
f 359/349/305 303/350/305 357/351/305
f 303/347/306 354/352/306 75/353/306
f 355/354/307 303/350/307 75/355/307
f 75/353/308 316/342/308 76/343/308
f 317/344/309 75/355/309 76/356/309
f 292/357/310 362/358/310 364/359/310
f 363/360/311 293/361/311 365/362/311
f 364/359/312 368/363/312 366/364/312
f 369/365/313 365/362/313 367/366/313
f 366/364/314 370/367/314 372/368/314
f 371/369/315 367/366/315 373/370/315
f 372/368/316 376/371/316 374/372/316
f 377/373/317 373/370/317 375/374/317
f 378/375/318 376/371/318 314/376/318
f 379/377/319 377/373/319 375/374/319
f 316/342/320 374/372/320 378/375/320
f 375/374/321 317/344/321 379/377/321
f 354/352/322 372/368/322 374/372/322
f 373/370/323 355/354/323 375/374/323
f 356/378/324 366/364/324 372/368/324
f 367/366/325 357/351/325 373/370/325
f 358/346/326 364/359/326 366/364/326
f 365/362/327 359/349/327 367/366/327
f 292/357/328 360/379/328 290/380/328
f 293/361/329 361/381/329 365/362/329
f 360/379/330 302/348/330 74/382/330
f 361/381/331 302/383/331 359/349/331
f 286/384/332 290/380/332 284/385/332
f 287/386/333 291/387/333 289/388/333
f 284/385/334 360/379/334 74/382/334
f 361/381/335 285/389/335 74/390/335
f 73/391/336 284/385/336 74/382/336
f 74/390/337 285/389/337 73/392/337
f 296/291/338 362/358/338 294/285/338
f 297/289/339 363/360/339 311/341/339
f 310/339/340 368/363/340 362/358/340
f 369/365/341 311/341/341 363/360/341
f 312/393/342 370/367/342 368/363/342
f 371/369/343 313/394/343 369/365/343
f 376/371/344 382/395/344 314/376/344
f 377/373/345 383/396/345 371/369/345
f 350/397/346 384/398/346 348/334/346
f 351/333/347 385/399/347 387/400/347
f 384/398/348 320/401/348 318/338/348
f 385/399/349 321/402/349 387/400/349
f 298/290/350 384/398/350 318/338/350
f 385/399/351 299/292/351 319/340/351
f 300/293/352 342/318/352 384/398/352
f 343/319/353 301/294/353 385/399/353
f 342/318/354 348/334/354 384/398/354
f 385/399/355 349/336/355 343/319/355
f 300/293/356 346/321/356 344/403/356
f 345/320/357 347/322/357 301/294/357
f 322/404/358 378/375/358 314/376/358
f 323/405/359 379/377/359 381/406/359
f 378/375/360 324/324/360 316/342/360
f 379/377/361 325/327/361 381/406/361
f 386/407/362 322/404/362 320/401/362
f 387/400/363 323/405/363 381/406/363
f 352/330/364 386/407/364 350/397/364
f 353/329/365 387/400/365 381/406/365
f 324/324/366 380/408/366 352/330/366
f 353/329/367 381/406/367 325/327/367
f 388/409/368 402/410/368 400/411/368
f 389/412/369 403/413/369 415/414/369
f 400/411/370 404/415/370 398/416/370
f 405/417/371 401/418/371 399/419/371
f 404/415/372 396/420/372 398/416/372
f 405/417/373 397/421/373 407/422/373
f 406/423/374 394/424/374 396/420/374
f 407/422/375 395/425/375 409/426/375
f 408/427/376 392/428/376 394/424/376
f 409/426/377 393/429/377 411/430/377
f 392/428/378 412/431/378 390/432/378
f 413/433/379 393/429/379 391/434/379
f 410/435/380 418/436/380 412/431/380
f 419/437/381 411/430/381 413/433/381
f 408/427/382 420/438/382 410/435/382
f 421/439/383 409/426/383 411/430/383
f 424/440/384 408/427/384 406/423/384
f 425/441/385 409/426/385 423/442/385
f 426/443/386 406/423/386 404/415/386
f 427/444/387 407/422/387 425/441/387
f 428/445/388 404/415/388 402/410/388
f 429/446/389 405/417/389 427/444/389
f 402/410/390 416/447/390 428/445/390
f 417/448/391 403/413/391 429/446/391
f 320/401/392 442/449/392 318/338/392
f 321/402/393 443/450/393 445/451/393
f 390/432/394 444/452/394 320/453/394
f 391/434/395 445/454/395 413/433/395
f 310/339/396 442/449/396 312/393/396
f 443/450/397 311/341/397 313/394/397
f 382/455/398 414/456/398 388/409/398
f 415/414/399 383/457/399 389/412/399
f 412/431/400 440/458/400 444/452/400
f 441/459/401 413/433/401 445/454/401
f 446/460/402 440/458/402 438/461/402
f 447/462/403 441/459/403 445/454/403
f 434/463/134 438/461/134 436/464/134
f 439/465/134 435/466/134 437/467/134
f 448/468/404 434/463/404 432/469/404
f 449/470/405 435/466/405 447/462/405
f 448/468/406 450/471/406 430/472/406
f 449/470/407 451/473/407 433/474/407
f 430/472/408 416/447/408 414/456/408
f 431/475/409 417/448/409 451/473/409
f 448/476/410 382/395/410 312/393/410
f 449/477/411 383/396/411 431/478/411
f 442/449/412 448/476/412 312/393/412
f 443/450/413 449/477/413 447/479/413
f 442/449/414 444/480/414 446/481/414
f 447/479/415 445/451/415 443/450/415
f 416/447/416 452/482/416 476/483/416
f 453/484/417 417/448/417 477/485/417
f 432/469/418 452/482/418 450/471/418
f 433/474/419 453/484/419 463/486/419
f 432/469/420 460/487/420 462/488/420
f 461/489/421 433/474/421 463/486/421
f 436/464/422 460/487/422 434/463/422
f 437/467/423 461/489/423 459/490/423
f 438/461/424 458/491/424 436/464/424
f 439/465/425 459/490/425 457/492/425
f 438/461/426 454/493/426 456/494/426
f 455/495/427 439/465/427 457/492/427
f 440/458/428 474/496/428 454/493/428
f 475/497/428 441/459/428 455/495/428
f 428/445/429 476/483/429 464/498/429
f 477/485/430 429/446/430 465/499/430
f 426/443/431 464/498/431 466/500/431
f 465/499/432 427/444/432 467/501/432
f 424/440/433 466/500/433 468/502/433
f 467/501/434 425/441/434 469/503/434
f 424/440/435 470/504/435 422/505/435
f 425/441/436 471/506/436 469/503/436
f 422/505/437 472/507/437 420/438/437
f 423/442/438 473/508/438 471/506/438
f 420/438/439 474/496/439 418/436/439
f 421/439/440 475/497/440 473/508/440
f 456/494/441 478/509/441 458/491/441
f 457/492/442 479/510/442 481/511/442
f 480/512/443 484/513/443 478/509/443
f 481/511/444 485/514/444 483/515/444
f 484/513/445 488/516/445 486/517/445
f 489/518/446 485/514/446 487/519/446
f 488/516/447 492/520/447 486/517/447
f 489/518/448 493/521/448 491/522/448
f 464/498/449 486/517/449 492/520/449
f 487/519/450 465/499/450 493/521/450
f 484/513/451 476/483/451 452/482/451
f 485/514/452 477/485/452 487/519/452
f 462/488/453 484/513/453 452/482/453
f 463/486/454 485/514/454 479/510/454
f 458/491/134 462/488/134 460/487/134
f 463/486/134 459/490/134 461/489/134
f 474/496/455 456/494/455 454/493/455
f 475/497/456 457/492/456 481/511/456
f 472/507/457 480/512/457 474/496/457
f 481/511/458 473/508/458 475/497/458
f 488/516/459 472/507/459 470/504/459
f 489/518/460 473/508/460 483/515/460
f 490/523/461 470/504/461 468/502/461
f 491/522/462 471/506/462 489/518/462
f 466/500/463 490/523/463 468/502/463
f 491/522/464 467/501/464 469/503/464
f 464/498/465 492/520/465 466/500/465
f 467/501/466 493/521/466 465/499/466
f 392/428/467 504/524/467 502/525/467
f 505/526/468 393/429/468 503/527/468
f 394/424/469 502/525/469 500/528/469
f 503/527/470 395/425/470 501/529/470
f 394/424/471 498/530/471 396/420/471
f 395/425/472 499/531/472 501/529/472
f 396/420/473 496/532/473 398/533/473
f 397/421/474 497/534/474 499/531/474
f 398/533/475 494/535/475 400/536/475
f 399/537/476 495/538/476 497/534/476
f 400/536/477 506/539/477 388/540/477
f 401/541/478 507/542/478 495/538/478
f 502/525/479 506/539/479 494/535/479
f 503/527/480 507/542/480 505/526/480
f 494/535/481 500/528/481 502/525/481
f 501/529/482 495/538/482 503/527/482
f 496/532/483 498/530/483 500/528/483
f 501/529/484 499/531/484 497/534/484
f 382/543/485 506/539/485 314/544/485
f 383/545/486 507/542/486 389/546/486
f 314/544/487 504/524/487 322/547/487
f 505/526/488 315/548/488 323/549/488
f 320/453/489 504/524/489 390/432/489
f 505/526/490 321/550/490 391/434/490
f 47/1/491 1/13/491 3/2/491
f 4/4/492 2/16/492 48/5/492
f 45/3/493 3/2/493 5/7/493
f 6/9/494 4/4/494 46/6/494
f 3/2/495 9/14/495 7/11/495
f 8/12/496 10/15/496 4/4/496
f 1/13/497 11/17/497 9/14/497
f 10/15/498 12/20/498 2/16/498
f 11/17/499 13/27/499 15/18/499
f 16/19/500 14/62/500 12/20/500
f 9/14/501 15/18/501 17/21/501
f 18/22/502 16/19/502 10/15/502
f 21/23/503 19/31/503 17/21/503
f 22/24/504 16/19/504 18/22/504
f 23/26/505 21/23/505 15/18/505
f 24/28/506 14/62/506 16/19/506
f 23/26/507 25/38/507 27/29/507
f 28/30/508 26/53/508 24/28/508
f 27/29/509 29/34/509 19/31/509
f 28/30/510 22/24/510 20/25/510
f 33/33/511 31/44/511 29/34/511
f 34/35/512 28/30/512 30/32/512
f 35/37/513 33/33/513 27/29/513
f 36/39/514 26/53/514 28/30/514
f 37/40/515 39/43/515 33/33/515
f 38/41/516 36/39/516 34/35/516
f 39/43/517 41/46/517 31/44/517
f 40/42/518 34/35/518 32/36/518
f 45/3/519 43/8/519 41/46/519
f 46/6/520 40/42/520 42/45/520
f 47/1/521 45/3/521 39/43/521
f 48/5/522 38/41/522 40/42/522
f 37/40/523 51/50/523 49/47/523
f 38/41/524 48/5/524 50/48/524
f 35/37/525 53/52/525 51/50/525
f 36/39/526 38/41/526 52/49/526
f 25/38/527 55/55/527 53/52/527
f 26/53/528 36/39/528 54/51/528
f 23/26/529 57/58/529 55/55/529
f 24/28/530 26/53/530 56/54/530
f 23/26/531 13/27/531 59/57/531
f 60/59/532 14/62/532 24/28/532
f 13/27/533 11/17/533 63/60/533
f 64/61/534 12/20/534 14/62/534
f 11/17/535 1/13/535 65/63/535
f 66/64/536 2/16/536 12/20/536
f 1/13/537 47/1/537 49/47/537
f 50/48/538 48/5/538 2/16/538
f 174/67/539 176/71/539 91/68/539
f 175/70/540 90/75/540 91/68/540
f 172/72/541 174/67/541 89/69/541
f 173/74/542 88/78/542 90/75/542
f 85/76/543 170/80/543 172/72/543
f 173/74/544 171/81/544 86/77/544
f 83/79/545 168/84/545 170/80/545
f 171/81/546 169/85/546 84/82/546
f 81/83/547 166/158/547 168/84/547
f 169/85/548 167/161/548 82/86/548
f 79/87/549 92/94/549 146/88/549
f 147/90/550 93/323/550 80/91/550
f 94/93/551 148/98/551 146/88/551
f 95/95/552 93/323/552 147/90/552
f 94/93/553 96/101/553 150/97/553
f 151/99/554 97/288/554 95/95/554
f 98/100/555 152/105/555 150/97/555
f 99/102/556 97/288/556 151/99/556
f 100/104/557 154/109/557 152/105/557
f 101/106/558 99/102/558 153/103/558
f 102/108/559 156/113/559 154/109/559
f 103/110/560 101/106/560 155/107/560
f 102/108/561 104/116/561 158/112/561
f 159/114/562 105/279/562 103/110/562
f 106/115/563 160/120/563 158/112/563
f 107/117/564 105/279/564 159/114/564
f 108/119/565 162/124/565 160/120/565
f 109/121/566 107/117/566 161/118/566
f 67/123/567 68/125/567 162/124/567
f 67/123/568 109/121/568 163/122/568
f 128/126/569 160/120/569 162/124/569
f 129/128/570 111/551/570 163/122/570
f 128/126/571 179/129/571 158/112/571
f 159/114/572 180/131/572 129/128/572
f 156/113/573 158/112/573 179/129/573
f 157/111/574 127/133/574 180/131/574
f 154/109/575 156/113/575 126/130/575
f 155/107/576 125/135/576 127/133/576
f 152/105/577 154/109/577 124/132/577
f 153/103/578 123/137/578 125/135/578
f 150/97/579 152/105/579 122/134/579
f 151/99/580 121/139/580 123/137/580
f 148/98/581 150/97/581 120/136/581
f 149/96/582 119/141/582 121/139/582
f 146/88/583 148/98/583 118/138/583
f 147/90/584 117/144/584 119/141/584
f 114/142/585 164/89/585 146/88/585
f 147/90/586 165/92/586 115/143/586
f 114/142/587 181/151/587 177/145/587
f 177/145/588 182/152/588 115/143/588
f 162/124/589 68/125/589 112/146/589
f 163/122/590 111/551/590 113/147/590
f 112/146/591 68/125/591 178/148/591
f 178/148/592 68/125/592 113/147/592
f 181/151/593 183/149/593 178/148/593
f 182/152/594 177/145/594 178/148/594
f 135/153/595 137/212/595 176/71/595
f 176/71/596 137/212/596 136/154/596
f 133/155/597 135/153/597 174/67/597
f 175/70/598 136/154/598 134/156/598
f 133/155/599 172/72/599 170/80/599
f 134/156/600 132/162/600 171/81/600
f 166/158/601 187/164/601 185/159/601
f 186/160/602 188/166/602 167/161/602
f 131/157/603 170/80/603 168/84/603
f 169/85/604 171/81/604 132/162/604
f 190/163/131 189/167/131 187/164/131
f 190/163/605 145/174/605 188/166/605
f 187/164/133 189/167/133 69/168/133
f 188/166/606 186/160/606 69/168/606
f 131/157/134 185/159/134 69/168/134
f 132/162/134 130/169/134 69/168/134
f 142/170/607 193/192/607 191/171/607
f 192/172/608 194/178/608 143/173/608
f 195/175/609 193/192/609 142/170/609
f 196/177/610 141/182/610 143/173/610
f 197/179/611 195/175/611 140/176/611
f 198/181/612 139/180/612 141/182/612
f 71/183/613 197/179/613 139/180/613
f 144/165/614 191/171/614 70/185/614
f 145/174/615 190/163/615 70/185/615
f 191/171/145 206/194/145 208/186/145
f 192/172/146 70/185/146 208/186/146
f 71/183/616 199/196/616 200/188/616
f 201/189/617 199/196/617 71/183/617
f 197/179/618 200/188/618 202/190/618
f 203/191/619 201/189/619 198/181/619
f 202/190/620 204/195/620 193/192/620
f 203/191/621 196/177/621 194/178/621
f 193/192/622 204/195/622 206/194/622
f 207/187/623 205/193/623 194/178/623
f 204/195/624 202/190/624 200/188/624
f 205/193/625 199/196/625 201/189/625
f 199/196/626 208/186/626 206/194/626
f 207/187/627 208/186/627 199/196/627
f 139/180/628 140/176/628 164/89/628
f 165/92/629 141/182/629 139/180/629
f 140/176/630 142/170/630 211/197/630
f 212/198/631 143/173/631 141/182/631
f 144/165/632 213/200/632 211/197/632
f 145/174/633 143/173/633 212/198/633
f 187/164/634 166/158/634 213/200/634
f 188/166/635 145/174/635 214/199/635
f 209/201/636 213/200/636 166/158/636
f 210/202/637 82/86/637 167/161/637
f 215/203/638 211/197/638 213/200/638
f 216/204/639 210/202/639 214/199/639
f 79/87/640 164/89/640 211/197/640
f 212/198/641 165/92/641 80/91/641
f 130/169/642 72/207/642 222/205/642
f 130/169/643 132/162/643 223/206/643
f 133/155/644 131/157/644 222/205/644
f 223/206/645 132/162/645 134/156/645
f 135/153/646 133/155/646 220/208/646
f 221/209/647 134/156/647 136/154/647
f 137/212/648 135/153/648 218/210/648
f 219/211/649 136/154/649 137/212/649
f 218/210/179 229/217/179 231/214/179
f 219/211/180 217/213/180 231/214/180
f 218/210/650 220/208/650 227/216/650
f 228/218/651 221/209/651 219/211/651
f 220/208/141 222/205/141 225/219/141
f 226/220/183 223/206/183 221/209/183
f 72/207/184 224/221/184 225/219/184
f 72/207/185 223/206/185 226/220/185
f 224/221/652 231/214/652 229/217/652
f 230/215/653 231/214/653 224/221/653
f 183/149/654 181/151/654 234/222/654
f 235/224/655 182/152/655 184/150/655
f 112/146/656 183/149/656 232/223/656
f 233/225/657 184/150/657 113/147/657
f 112/146/658 254/226/658 256/228/658
f 113/147/659 111/551/659 257/229/659
f 114/142/660 252/232/660 234/222/660
f 115/143/661 182/152/661 235/224/661
f 114/142/662 116/140/662 250/231/662
f 251/233/663 117/144/663 115/143/663
f 116/140/664 118/138/664 248/234/664
f 249/235/665 119/141/665 117/144/665
f 118/138/666 120/136/666 246/236/666
f 247/237/667 121/139/667 119/141/667
f 120/136/668 122/134/668 244/238/668
f 245/239/669 123/137/669 121/139/669
f 124/132/670 242/241/670 244/238/670
f 125/135/671 123/137/671 245/239/671
f 126/130/672 240/244/672 242/241/672
f 127/133/673 125/135/673 243/240/673
f 126/130/674 179/129/674 236/243/674
f 237/245/675 180/131/675 127/133/675
f 179/129/676 128/126/676 238/246/676
f 239/247/677 129/128/677 180/131/677
f 128/126/678 110/127/678 256/228/678
f 257/229/679 111/551/679 129/128/679
f 238/246/680 256/228/680 258/248/680
f 259/250/681 257/229/681 239/247/681
f 236/243/682 238/246/682 276/249/682
f 277/251/683 239/247/683 237/245/683
f 236/243/684 278/252/684 274/254/684
f 237/245/685 241/242/685 275/255/685
f 240/244/686 274/254/686 272/256/686
f 241/242/687 243/240/687 273/257/687
f 244/238/688 242/241/688 272/256/688
f 273/257/689 243/240/689 245/239/689
f 244/238/690 270/258/690 268/260/690
f 245/239/691 247/237/691 269/261/691
f 248/234/692 246/236/692 268/260/692
f 269/261/693 247/237/693 249/235/693
f 248/234/694 266/262/694 264/264/694
f 249/235/695 251/233/695 265/265/695
f 250/231/696 264/264/696 262/266/696
f 251/233/697 253/230/697 263/267/697
f 234/222/234 252/232/234 262/266/234
f 263/267/235 253/230/235 235/224/235
f 256/228/698 254/226/698 260/270/698
f 261/271/699 255/227/699 257/229/699
f 254/226/700 232/223/700 282/272/700
f 283/273/701 233/225/701 255/227/701
f 232/223/702 234/222/702 280/268/702
f 281/269/703 235/224/703 233/225/703
f 67/123/704 108/119/704 284/274/704
f 285/276/705 109/121/705 67/123/705
f 108/119/706 106/115/706 286/277/706
f 287/278/707 107/117/707 109/121/707
f 104/116/708 288/281/708 286/277/708
f 105/279/709 107/117/709 287/278/709
f 102/108/710 290/283/710 288/281/710
f 103/110/711 105/279/711 289/280/711
f 100/104/712 292/286/712 290/283/712
f 101/106/713 103/110/713 291/282/713
f 100/104/714 98/100/714 294/285/714
f 295/287/715 99/102/715 101/106/715
f 96/101/716 296/291/716 294/285/716
f 97/288/717 99/102/717 295/287/717
f 96/101/718 94/93/718 298/290/718
f 299/292/719 95/95/719 97/288/719
f 94/93/720 92/94/720 300/293/720
f 301/294/721 93/323/721 95/95/721
f 309/295/722 328/315/722 338/296/722
f 309/298/723 308/303/723 339/299/723
f 308/297/724 338/296/724 336/301/724
f 308/303/725 307/307/725 337/304/725
f 307/302/726 336/301/726 340/305/726
f 307/307/727 306/306/727 341/308/727
f 89/69/728 91/68/728 306/306/728
f 306/306/729 91/68/729 90/75/729
f 87/73/730 89/69/730 340/305/730
f 341/308/731 90/75/731 88/78/731
f 85/76/732 87/73/732 334/309/732
f 335/310/733 88/78/733 86/77/733
f 83/79/734 85/76/734 330/311/734
f 331/312/735 86/77/735 84/82/735
f 330/311/736 336/301/736 338/296/736
f 339/299/737 337/304/737 331/312/737
f 334/309/738 340/305/738 336/301/738
f 335/310/739 331/312/739 337/304/739
f 332/313/740 338/296/740 328/315/740
f 333/314/741 327/317/741 329/300/741
f 81/83/742 83/79/742 332/313/742
f 333/314/743 84/82/743 82/86/743
f 342/318/744 344/403/744 215/203/744
f 343/319/745 210/202/745 216/204/745
f 326/316/746 342/318/746 209/201/746
f 327/317/747 82/86/747 210/202/747
f 215/203/748 344/403/748 346/321/748
f 216/204/749 80/91/749 347/322/749
f 346/321/750 300/293/750 92/94/750
f 347/322/751 80/91/751 93/323/751
f 324/324/752 352/330/752 304/325/752
f 325/327/753 77/345/753 304/328/753
f 352/330/754 350/397/754 78/331/754
f 353/329/755 304/328/755 78/332/755
f 78/331/756 350/397/756 348/334/756
f 349/336/757 351/333/757 78/332/757
f 305/335/758 348/334/758 328/315/758
f 329/300/759 349/336/759 305/337/759
f 328/315/760 348/334/760 342/318/760
f 329/300/761 327/317/761 343/319/761
f 296/291/762 298/290/762 318/338/762
f 319/340/763 299/292/763 297/289/763
f 316/342/764 324/324/764 77/326/764
f 317/344/765 76/356/765 77/345/765
f 358/346/766 356/378/766 303/347/766
f 359/349/767 302/383/767 303/350/767
f 303/347/768 356/378/768 354/352/768
f 355/354/769 357/351/769 303/350/769
f 75/353/770 354/352/770 316/342/770
f 317/344/771 355/354/771 75/355/771
f 292/357/772 294/285/772 362/358/772
f 363/360/773 295/287/773 293/361/773
f 364/359/774 362/358/774 368/363/774
f 369/365/775 363/360/775 365/362/775
f 366/364/776 368/363/776 370/367/776
f 371/369/777 369/365/777 367/366/777
f 372/368/778 370/367/778 376/371/778
f 377/373/779 371/369/779 373/370/779
f 378/375/780 374/372/780 376/371/780
f 379/377/781 315/552/781 377/373/781
f 316/342/782 354/352/782 374/372/782
f 375/374/783 355/354/783 317/344/783
f 354/352/784 356/378/784 372/368/784
f 373/370/785 357/351/785 355/354/785
f 356/378/786 358/346/786 366/364/786
f 367/366/787 359/349/787 357/351/787
f 358/346/788 360/379/788 364/359/788
f 365/362/789 361/381/789 359/349/789
f 292/357/790 364/359/790 360/379/790
f 293/361/791 291/387/791 361/381/791
f 360/379/792 358/346/792 302/348/792
f 361/381/793 74/390/793 302/383/793
f 286/384/794 288/553/794 290/380/794
f 287/386/795 285/389/795 291/387/795
f 284/385/796 290/380/796 360/379/796
f 361/381/797 291/387/797 285/389/797
f 296/291/798 310/339/798 362/358/798
f 297/289/799 295/287/799 363/360/799
f 310/339/800 312/393/800 368/363/800
f 369/365/801 313/394/801 311/341/801
f 312/393/802 382/395/802 370/367/802
f 371/369/803 383/396/803 313/394/803
f 376/371/804 370/367/804 382/395/804
f 377/373/805 315/552/805 383/396/805
f 350/397/806 386/407/806 384/398/806
f 351/333/807 349/336/807 385/399/807
f 384/398/808 386/407/808 320/401/808
f 385/399/809 319/340/809 321/402/809
f 298/290/810 300/293/810 384/398/810
f 385/399/811 301/294/811 299/292/811
f 300/293/812 344/403/812 342/318/812
f 343/319/813 345/320/813 301/294/813
f 322/404/814 380/408/814 378/375/814
f 323/405/815 315/552/815 379/377/815
f 378/375/816 380/408/816 324/324/816
f 379/377/817 317/344/817 325/327/817
f 386/407/818 380/408/818 322/404/818
f 387/400/819 321/402/819 323/405/819
f 352/330/820 380/408/820 386/407/820
f 353/329/821 351/333/821 387/400/821
f 388/409/822 414/456/822 402/410/822
f 389/412/823 401/418/823 403/413/823
f 400/411/824 402/410/824 404/415/824
f 405/417/825 403/413/825 401/418/825
f 404/415/826 406/423/826 396/420/826
f 405/417/827 399/419/827 397/421/827
f 406/423/828 408/427/828 394/424/828
f 407/422/829 397/421/829 395/425/829
f 408/427/830 410/435/830 392/428/830
f 409/426/831 395/425/831 393/429/831
f 392/428/832 410/435/832 412/431/832
f 413/433/833 411/430/833 393/429/833
f 410/435/834 420/438/834 418/436/834
f 419/437/835 421/439/835 411/430/835
f 408/427/836 422/505/836 420/438/836
f 421/439/837 423/442/837 409/426/837
f 424/440/838 422/505/838 408/427/838
f 425/441/839 407/422/839 409/426/839
f 426/443/840 424/440/840 406/423/840
f 427/444/841 405/417/841 407/422/841
f 428/445/842 426/443/842 404/415/842
f 429/446/843 403/413/843 405/417/843
f 402/410/844 414/456/844 416/447/844
f 417/448/845 415/414/845 403/413/845
f 320/401/846 444/480/846 442/449/846
f 321/402/847 319/340/847 443/450/847
f 390/432/848 412/431/848 444/452/848
f 391/434/849 321/550/849 445/454/849
f 310/339/850 318/338/850 442/449/850
f 443/450/851 319/340/851 311/341/851
f 382/455/852 430/472/852 414/456/852
f 415/414/853 431/475/853 383/457/853
f 412/431/854 418/436/854 440/458/854
f 441/459/855 419/437/855 413/433/855
f 446/460/856 444/452/856 440/458/856
f 447/462/857 439/465/857 441/459/857
f 434/463/858 446/460/858 438/461/858
f 439/465/859 447/462/859 435/466/859
f 448/468/860 446/460/860 434/463/860
f 449/470/861 433/474/861 435/466/861
f 448/468/862 432/469/862 450/471/862
f 449/470/863 431/475/863 451/473/863
f 430/472/864 450/471/864 416/447/864
f 431/475/865 415/414/865 417/448/865
f 448/476/866 430/554/866 382/395/866
f 449/477/867 313/394/867 383/396/867
f 442/449/868 446/481/868 448/476/868
f 443/450/869 313/394/869 449/477/869
f 416/447/870 450/471/870 452/482/870
f 453/484/871 451/473/871 417/448/871
f 432/469/872 462/488/872 452/482/872
f 433/474/873 451/473/873 453/484/873
f 432/469/420 434/463/420 460/487/420
f 461/489/421 435/466/421 433/474/421
f 436/464/874 458/491/874 460/487/874
f 437/467/875 435/466/875 461/489/875
f 438/461/876 456/494/876 458/491/876
f 439/465/877 437/467/877 459/490/877
f 438/461/878 440/458/878 454/493/878
f 455/495/879 441/459/879 439/465/879
f 440/458/880 418/436/880 474/496/880
f 475/497/881 419/437/881 441/459/881
f 428/445/882 416/447/882 476/483/882
f 477/485/883 417/448/883 429/446/883
f 426/443/884 428/445/884 464/498/884
f 465/499/885 429/446/885 427/444/885
f 424/440/886 426/443/886 466/500/886
f 467/501/887 427/444/887 425/441/887
f 424/440/888 468/502/888 470/504/888
f 425/441/889 423/442/889 471/506/889
f 422/505/890 470/504/890 472/507/890
f 423/442/891 421/439/891 473/508/891
f 420/438/892 472/507/892 474/496/892
f 421/439/893 419/437/893 475/497/893
f 456/494/894 480/512/894 478/509/894
f 457/492/895 459/490/895 479/510/895
f 480/512/896 482/555/896 484/513/896
f 481/511/897 479/510/897 485/514/897
f 484/513/898 482/555/898 488/516/898
f 489/518/899 483/515/899 485/514/899
f 488/516/900 490/523/900 492/520/900
f 489/518/901 487/519/901 493/521/901
f 464/498/902 476/483/902 486/517/902
f 487/519/903 477/485/903 465/499/903
f 484/513/904 486/517/904 476/483/904
f 485/514/905 453/484/905 477/485/905
f 462/488/906 478/509/906 484/513/906
f 463/486/907 453/484/907 485/514/907
f 458/491/908 478/509/908 462/488/908
f 463/486/909 479/510/909 459/490/909
f 474/496/910 480/512/910 456/494/910
f 475/497/911 455/495/911 457/492/911
f 472/507/912 482/555/912 480/512/912
f 481/511/913 483/515/913 473/508/913
f 488/516/914 482/555/914 472/507/914
f 489/518/915 471/506/915 473/508/915
f 490/523/916 488/516/916 470/504/916
f 491/522/917 469/503/917 471/506/917
f 466/500/918 492/520/918 490/523/918
f 491/522/919 493/521/919 467/501/919
f 392/428/920 390/432/920 504/524/920
f 505/526/921 391/434/921 393/429/921
f 394/424/922 392/428/922 502/525/922
f 503/527/923 393/429/923 395/425/923
f 394/424/924 500/528/924 498/530/924
f 395/425/925 397/421/925 499/531/925
f 396/420/926 498/530/926 496/532/926
f 397/421/927 399/537/927 497/534/927
f 398/533/928 496/532/928 494/535/928
f 399/537/929 401/541/929 495/538/929
f 400/536/930 494/535/930 506/539/930
f 401/541/931 389/546/931 507/542/931
f 502/525/932 504/524/932 506/539/932
f 503/527/933 495/538/933 507/542/933
f 494/535/934 496/532/934 500/528/934
f 501/529/935 497/534/935 495/538/935
f 382/543/936 388/540/936 506/539/936
f 383/545/937 315/548/937 507/542/937
f 314/544/938 506/539/938 504/524/938
f 505/526/939 507/542/939 315/548/939
f 320/453/940 322/547/940 504/524/940
f 505/526/941 323/549/941 321/550/941
