# Blender 5.1.1
# www.blender.org
mtllib ball_suzzane.mtl
o Suzanne
v -6.321358 0.399889 1.195334
v -8.230588 0.399889 2.145819
v -6.269849 0.228508 0.956975
v -8.451826 0.228508 2.043244
v -6.286379 0.133296 0.667403
v -8.672916 0.133296 1.855509
v -6.670115 -0.057127 0.964798
v -8.204317 -0.057127 1.728580
v -6.559790 0.076169 1.186405
v -8.093993 0.076169 1.950187
v -6.491899 0.323720 1.322778
v -8.026101 0.323720 2.086561
v -6.645392 0.399889 1.441737
v -7.838661 0.399889 2.035789
v -6.858218 0.228508 1.398788
v -7.744646 0.228508 1.840085
v -7.062336 0.133296 1.245146
v -7.744204 0.133296 1.584605
v -7.224317 0.590312 1.347058
v -7.565250 0.590312 1.516787
v -6.994592 0.590312 1.466680
v -7.608273 0.590312 1.772193
v -6.713579 0.590312 1.475682
v -7.770474 0.590312 2.001844
v -6.645392 0.799778 1.441737
v -7.838661 0.799778 2.035789
v -6.858218 0.952116 1.398788
v -7.744646 0.952116 1.840085
v -7.062336 1.066370 1.245146
v -7.744204 1.066370 1.584605
v -6.670115 1.256793 0.964798
v -8.204317 1.256793 1.728580
v -6.559790 1.104455 1.186405
v -8.093993 1.104455 1.950187
v -6.491899 0.875947 1.322778
v -8.026101 0.875947 2.086561
v -6.321358 0.799778 1.195334
v -8.230588 0.799778 2.145819
v -6.269849 0.952116 0.956975
v -8.451826 0.952116 2.043244
v -6.286379 1.066370 0.667403
v -8.672916 1.066370 1.855509
v -6.132885 0.590312 0.548444
v -8.860357 0.590312 1.906280
v -6.150448 0.590312 0.854990
v -8.605172 0.590312 2.077042
v -6.261657 0.590312 1.144341
v -8.307261 0.590312 2.162718
v -6.227638 0.590312 1.169948
v -8.307335 0.590312 2.205298
v -6.287338 0.818820 1.220941
v -8.230661 0.818820 2.188399
v -6.466439 0.914032 1.373919
v -8.000642 0.914032 2.137701
v -6.636980 0.818820 1.501363
v -7.796155 0.818820 2.078443
v -6.722213 0.590312 1.543796
v -7.710922 0.590312 2.036011
v -6.636980 0.380847 1.501363
v -7.796155 0.380847 2.078443
v -6.440979 0.590312 1.425059
v -7.975183 0.590312 2.188841
v -6.466439 0.285635 1.373919
v -8.000642 0.285635 2.137701
v -6.287338 0.380847 1.220941
v -8.230661 0.380847 2.188399
v -7.301432 1.047328 1.619436
v -7.216568 0.856905 1.789903
v -7.309918 -1.656682 1.602390
v -7.259000 -0.780735 1.704670
v -7.242027 -0.457016 1.738763
v -7.326891 -1.885190 1.568296
v -7.454189 0.990201 1.312596
v -7.488134 1.390090 1.244409
v -8.701700 2.189867 -1.193269
v -9.032672 1.371047 -1.858090
v -9.007213 0.171381 -1.806950
v -8.489538 -0.933074 -0.767101
v -7.053407 -0.457016 1.006714
v -7.939835 -0.457016 1.448010
v -6.806267 -1.066370 0.904950
v -8.170002 -1.066370 1.583868
v -6.721033 -1.694767 0.862518
v -8.255236 -1.694767 1.626300
v -6.729372 -2.170825 0.760311
v -8.331761 -2.170825 1.558040
v -6.823092 -2.304121 0.785697
v -8.255014 -2.304121 1.498560
v -7.113033 -2.361248 1.015127
v -7.897182 -2.361248 1.405504
v -7.479648 -2.399333 1.261456
v -6.575952 -0.342762 0.683933
v -8.485182 -0.342762 1.634418
v -6.141298 -0.095212 0.488818
v -8.902863 -0.095212 1.863626
v -5.816968 0.361804 0.072096
v -9.430868 0.361804 1.871228
v -5.587539 1.047328 0.362037
v -9.337812 1.047328 2.229061
v -5.877480 1.180624 0.591467
v -8.979979 1.180624 2.136005
v -6.286896 1.466259 0.965462
v -8.434779 1.466259 2.034757
v -6.611004 1.847106 1.254444
v -8.008833 1.847106 1.950335
v -6.943525 1.751894 1.483800
v -7.625393 1.751894 1.823259
v -7.156572 1.199666 1.568591
v -7.429319 1.199666 1.704375
v -6.909506 1.009243 1.509407
v -7.625467 1.009243 1.865839
v -7.003225 0.742651 1.534793
v -7.548720 0.742651 1.806360
v -6.858218 0.228508 1.398788
v -7.744646 0.228508 1.840085
v -6.525623 0.038085 1.126852
v -8.162106 0.038085 1.941553
v -6.303868 0.152339 0.931368
v -8.451753 0.152339 2.000664
v -6.039534 0.457016 0.735958
v -8.767006 0.457016 2.093794
v -6.005441 0.723608 0.718985
v -8.801099 0.723608 2.110766
v -6.073701 0.914032 0.795511
v -8.698893 0.914032 2.102427
v -6.389323 1.066370 1.101540
v -8.264460 1.066370 2.035052
v -6.738965 1.142540 1.381963
v -7.829954 1.142540 1.925097
v -7.309918 -1.866148 1.602390
v -7.071265 -1.751894 1.483579
v -7.548573 -1.751894 1.721200
v -7.079678 -2.037529 1.423952
v -7.591079 -2.037529 1.678547
v -7.215978 -2.151783 1.449264
v -7.488725 -2.151783 1.585048
v -7.360837 -2.170825 1.500109
v -7.292946 -0.476058 1.636483
v -7.301432 -0.342762 1.619436
v -7.079825 -0.361804 1.509112
v -7.523039 -0.361804 1.729760
v -7.020199 -0.552227 1.500699
v -7.565693 -0.552227 1.772267
v -7.113918 -0.704566 1.526085
v -7.488946 -0.704566 1.712787
v -6.508429 -0.114254 1.033206
v -8.247192 -0.114254 1.898826
v -6.082040 0.133296 0.693305
v -8.775418 0.133296 2.034167
v -5.868846 0.495100 0.523354
v -9.039532 0.495100 2.101838
v -5.775347 0.914032 0.625708
v -9.014219 0.914032 2.238137
v -5.818295 1.009243 0.838533
v -8.818515 1.009243 2.332152
v -6.287412 1.332963 1.263521
v -8.196642 1.332963 2.214005
v -6.517727 1.561471 1.484538
v -7.881463 1.561471 2.163455
v -6.739408 1.504344 1.637442
v -7.625836 1.504344 2.078738
v -6.969501 1.047328 1.730719
v -7.412715 1.047328 1.951367
v -6.952307 -0.247550 1.637073
v -7.497801 -0.247550 1.908640
v -6.875117 -1.085413 1.322115
v -7.795639 -1.085413 1.780384
v -6.815343 -1.713809 1.228542
v -7.906332 -1.713809 1.771677
v -6.806709 -1.999444 1.160429
v -7.965885 -1.999444 1.737509
v -6.908842 -2.227952 1.126188
v -7.931643 -2.227952 1.635377
v -7.062262 -2.266037 1.202567
v -7.778224 -2.266037 1.558998
v -7.411757 -2.304121 1.397829
v -7.318405 0.114254 1.585343
v -7.275973 0.514143 1.670576
v -6.585471 1.161582 1.263005
v -8.017393 1.161582 1.975868
v -6.934965 0.342762 1.458267
v -7.650927 0.342762 1.814699
v -6.994665 0.514143 1.509260
v -7.574253 0.514143 1.797800
v -7.054218 -1.675725 1.475093
v -7.565619 -1.675725 1.729687
v -7.122479 -1.085413 1.551618
v -7.463413 -1.085413 1.721348
v -7.292946 -1.085413 1.636483
v -7.301432 -0.799778 1.619436
v -7.054440 -0.666481 1.602832
v -7.463560 -0.666481 1.806507
v -6.952233 -0.552227 1.594493
v -7.531821 -0.552227 1.883033
v -7.020346 -0.323720 1.585859
v -7.497653 -0.323720 1.823480
v -7.173766 -0.304677 1.662237
v -7.344234 -0.304677 1.747102
v -7.208081 -0.495100 1.806950
v -7.122774 -0.361804 1.721938
v -7.327334 -0.361804 1.823775
v -7.020494 -0.380847 1.671019
v -7.429614 -0.380847 1.874694
v -6.969427 -0.552227 1.688139
v -7.446735 -0.552227 1.925761
v -7.063073 -0.609354 1.670945
v -7.404007 -0.609354 1.840675
v -7.233541 -0.704566 1.755810
v -6.942566 -0.761693 0.930262
v -8.067649 -0.761693 1.490369
v -6.977397 -0.590312 1.373034
v -7.693359 -0.590312 1.729465
v -6.943304 -0.761693 1.356061
v -7.727452 -0.761693 1.746438
v -6.993707 -0.609354 0.955721
v -8.016508 -0.609354 1.464910
v -7.360837 -2.132740 1.500109
v -7.258557 -2.113698 1.449191
v -7.463118 -2.113698 1.551028
v -7.130817 -1.999444 1.449412
v -7.539938 -1.999444 1.653087
v -7.113845 -1.809021 1.483505
v -7.522965 -1.809021 1.687181
v -7.394783 -1.904232 1.431923
v -7.181736 -1.828063 1.347132
v -7.590858 -1.828063 1.550807
v -7.207196 -1.980402 1.295992
v -7.616317 -1.980402 1.499667
v -7.317963 -2.075613 1.329864
v -7.522523 -2.075613 1.431701
v -7.420243 -2.094656 1.380782
v -6.883972 0.533185 1.517967
v -7.634027 0.533185 1.891372
v -6.858366 0.380847 1.483948
v -7.676607 0.380847 1.891298
v -6.551451 1.047328 1.288611
v -8.017467 1.047328 2.018448
v -6.670852 1.028286 1.390597
v -7.864120 1.028286 1.984650
v -6.346965 0.971159 1.229354
v -8.188008 0.971159 2.145892
v -6.124989 0.856905 0.906130
v -8.579713 0.856905 2.128182
v -6.082335 0.704566 0.863624
v -8.639339 0.704566 2.136595
v -6.107868 0.476058 0.855064
v -8.630779 0.476058 2.111062
v -6.287043 0.247550 1.050622
v -8.366740 0.247550 2.085971
v -6.483191 0.152339 1.212086
v -8.119674 0.152339 2.026787
v -6.764646 0.266593 1.458562
v -7.753354 0.266593 1.950777
v -6.866926 0.723608 1.509481
v -7.651074 0.723608 1.899859
v -6.798739 0.914032 1.475535
v -7.719261 0.914032 1.933804
v -6.773058 0.875947 1.398936
v -7.795860 0.875947 1.908124
v -6.858292 0.723608 1.441368
v -7.710627 0.723608 1.865691
v -6.756011 0.304677 1.390449
v -7.812907 0.304677 1.916610
v -6.500164 0.209466 1.177992
v -8.136646 0.209466 1.992693
v -6.338109 0.285635 1.033501
v -8.349620 0.285635 2.034904
v -6.184542 0.514143 0.871963
v -8.571079 0.514143 2.060069
v -6.167495 0.685524 0.863476
v -8.588126 0.685524 2.068555
v -6.210149 0.818820 0.905983
v -8.528500 0.818820 2.060143
v -6.389471 0.952116 1.186700
v -8.196421 0.952116 2.086266
v -6.662292 0.971159 1.365063
v -7.889654 0.971159 1.976089
v -6.559937 0.990201 1.271565
v -8.025953 0.990201 2.001401
v -6.849731 0.418931 1.415835
v -7.736160 0.418931 1.857131
v -6.866778 0.552227 1.424321
v -7.719113 0.552227 1.848645
v -7.207048 1.123497 1.210832
v -7.684356 1.123497 1.448453
v -7.011048 1.618598 1.134527
v -7.863383 1.618598 1.558851
v -6.729667 1.675725 0.930631
v -8.195683 1.675725 1.660467
v -6.448212 1.352005 0.684154
v -8.562003 1.352005 1.736477
v -6.089937 1.104455 0.335619
v -9.056062 1.104455 1.812265
v -5.868182 0.990201 0.140135
v -9.345708 0.990201 1.871375
v -6.012673 0.399889 -0.021919
v -9.387919 0.399889 1.658402
v -6.345268 0.000000 0.250017
v -8.970460 0.000000 1.556933
v -6.643844 -0.228508 0.547559
v -8.553074 -0.228508 1.498044
v -7.793647 2.189867 0.630728
v -8.192512 2.399333 -0.170467
v -8.837483 -0.476058 -1.466016
v -7.903972 -1.123497 0.409121
v -7.606945 -2.380291 1.005755
v -7.734242 -1.961359 0.750055
v -7.759702 -1.390090 0.698915
v -7.802134 -1.180624 0.613681
v -6.190152 0.571270 -0.805698
v -9.906332 0.571270 1.044352
v -6.283429 0.780735 -1.035792
v -10.033703 0.780735 0.831232
v -6.895267 0.647439 -1.794776
v -10.270513 0.647439 -0.114454
v -7.865674 1.066370 -2.034904
v -9.877185 1.066370 -1.033501
v -6.428879 -0.114254 -0.644308
v -9.633658 -0.114254 0.951149
v -6.990314 -0.304677 -1.002952
v -9.581411 -0.304677 0.286991
v -7.176574 -0.019042 -1.633459
v -9.972232 -0.019042 -0.241678
v -8.095989 0.133296 -1.813887
v -9.562005 0.133296 -1.084051
v -7.154950 -0.856905 0.631834
v -8.177752 -0.856905 1.141022
v -7.435519 -1.009243 0.367352
v -8.219667 -1.009243 0.757730
v -7.061082 -1.732852 0.521289
v -8.322537 -1.732852 1.149288
v -7.137829 -1.218709 0.580768
v -8.228818 -1.218709 1.123902
v -6.958876 -2.227952 0.512950
v -8.390799 -2.227952 1.225813
v -7.401942 -1.847106 0.648438
v -8.015623 -1.847106 0.953951
v -7.444522 -1.313920 0.648365
v -7.990016 -1.313920 0.919932
v -7.274424 -2.304121 0.776399
v -7.990385 -2.304121 1.132831
v -7.163584 -0.685524 0.699947
v -8.118198 -0.685524 1.175189
v -7.138198 -0.552227 0.793667
v -8.058720 -0.552227 1.251937
v -7.121299 -0.418931 0.870340
v -8.007727 -0.418931 1.311637
v -7.469170 -0.952116 0.128846
v -8.389692 -0.952116 0.587115
v -7.748413 -0.761693 -0.902074
v -9.043962 -0.761693 -0.257102
v -7.943159 -0.361804 -1.549627
v -9.443268 -0.361804 -0.802817
v -7.534776 2.113698 -1.327503
v -9.512193 2.113698 -0.343073
v -7.195317 2.266037 -0.645636
v -9.172733 2.266037 0.338795
v -6.864345 2.075613 0.019186
v -8.841762 2.075613 1.003616
v -6.635136 1.275836 0.436867
v -8.646646 1.275836 1.438270
v -6.157386 0.990201 -0.056234
v -9.328072 0.990201 1.522250
v -6.421351 1.104455 -0.073723
v -9.182917 1.104455 1.301085
v -6.650413 1.713809 -0.576564
v -9.446071 1.713809 0.815217
v -6.233100 1.371047 -0.592873
v -9.710627 1.371047 1.138367
v -6.496181 1.504344 -1.121320
v -9.973707 1.504344 0.609920
v -6.921979 1.828063 -1.122058
v -9.717638 1.828063 0.269723
v -7.193547 1.656682 -1.667552
v -9.989205 1.656682 -0.275771
v -6.759262 1.313920 -1.649768
v -10.236788 1.313920 0.081472
v -7.397443 0.799778 -1.948934
v -10.090821 0.799778 -0.608071
v -7.644804 0.057127 -1.719430
v -9.758595 0.057127 -0.667108
v -6.538392 0.799778 -1.334294
v -10.118198 0.799778 0.447865
v -7.059976 -0.418931 -0.117409
v -8.832832 -0.418931 0.765184
v -7.399213 -0.476058 -0.927017
v -9.274350 -0.476058 0.006495
v -6.418918 0.990201 -1.478859
v -10.305565 0.990201 0.456057
v -6.555808 -0.342762 -1.112908
v -9.931053 -0.342762 0.567414
v -6.196868 -0.247550 -1.844662
v -10.731289 -0.247550 0.412739
v -5.778745 0.133296 -2.329350
v -11.370061 0.133296 0.454213
v -5.616838 0.780735 -2.388681
v -11.514995 0.780735 0.547638
v -5.872538 1.237751 -2.261384
v -11.259295 1.237751 0.420341
v -6.213988 1.161582 -1.793596
v -10.680223 1.161582 0.429860
v -6.205576 1.009243 -1.733969
v -10.637717 1.009243 0.472513
v -5.940872 1.066370 -2.142278
v -11.123069 1.066370 0.437609
v -5.787378 0.704566 -2.261237
v -11.310509 0.704566 0.488380
v -5.906705 0.190423 -2.201831
v -11.191181 0.190423 0.428975
v -6.188456 -0.095212 -1.785035
v -10.688784 -0.095212 0.455393
v -6.444967 -0.171381 -1.189360
v -10.058867 -0.171381 0.609772
v -6.333758 0.875947 -1.478711
v -10.356779 0.875947 0.524096
v -6.358996 0.742651 -1.657591
v -10.484297 0.742651 0.396135
v -6.410505 -0.057127 -1.419232
v -10.263059 -0.057127 0.498710
v -6.239300 0.000000 -1.929895
v -10.773722 0.000000 0.327506
v -6.000278 0.228508 -2.261605
v -11.182474 0.228508 0.318282
v -5.897998 0.609354 -2.312524
v -11.284754 0.609354 0.369201
v -6.025885 0.875947 -2.227586
v -11.139894 0.875947 0.318356
v -6.264907 0.837862 -1.895876
v -10.731142 0.837862 0.327580
v -6.495738 0.704566 -1.376800
v -10.177825 0.704566 0.456278
v -6.580677 0.418931 -1.504687
v -10.228670 0.418931 0.311418
v -6.751144 0.228508 -1.419822
v -10.058203 0.228508 0.226553
v -6.614770 0.209466 -1.487714
v -10.194576 0.209466 0.294445
v -6.563630 0.038085 -1.513173
v -10.245717 0.038085 0.319905
v -6.631817 -0.038085 -1.479227
v -10.177530 -0.038085 0.285959
v -6.598682 0.000000 -0.942662
v -9.769368 0.000000 0.635822
v -6.726053 -0.057127 -1.155783
v -9.862645 -0.057127 0.405728
v -6.743026 0.095212 -1.189876
v -9.879619 0.095212 0.371635
v -6.598019 0.495100 -1.325881
v -10.075544 0.495100 0.405359
v -6.452864 0.590312 -1.547045
v -10.339510 0.590312 0.387870
v -6.512269 0.571270 -1.666372
v -10.398916 0.571270 0.268543
v -6.682736 -0.038085 -1.581508
v -10.228449 -0.038085 0.183678
v -6.597502 0.038085 -1.623940
v -10.313683 0.038085 0.226111
v -6.648643 0.190423 -1.598480
v -10.262543 0.190423 0.200651
v -6.785016 0.228508 -1.530589
v -10.126168 0.228508 0.132760
v -6.614549 0.418931 -1.615453
v -10.296636 0.418931 0.217624
v -6.290219 0.799778 -2.032176
v -10.824640 0.799778 0.225226
v -6.042710 0.837862 -2.346839
v -11.224906 0.837862 0.233048
v -5.897777 0.590312 -2.440264
v -11.386813 0.590312 0.292380
v -5.991570 0.209466 -2.372298
v -11.276047 0.209466 0.258508
v -6.281659 0.000000 -2.057709
v -10.850174 0.000000 0.216665
v -6.469910 -0.038085 -1.538559
v -10.322464 -0.038085 0.379384
v -6.401355 0.704566 -1.785404
v -10.560749 0.704566 0.285295
v -6.520755 0.266593 -1.683419
v -10.407402 0.266593 0.251496
v -6.426961 0.152339 -1.751384
v -10.518169 0.152339 0.285369
v -6.324534 0.304677 -1.887463
v -10.688488 0.304677 0.285074
v -6.392795 0.418931 -1.810937
v -10.586282 0.418931 0.276735
v -6.298927 0.571270 -1.921483
v -10.731068 0.571270 0.285000
v -6.222180 0.457016 -1.980962
v -10.824788 0.457016 0.310385
v -6.111340 0.514143 -2.057414
v -10.952601 0.514143 0.352744
v -6.162479 0.666481 -2.031954
v -10.901462 0.666481 0.327285
v -6.400691 1.066370 -2.168623
v -10.866925 1.066370 0.054832
v -5.974228 1.142540 -2.551104
v -11.429172 1.142540 0.164567
v -5.667609 0.723608 -2.576121
v -11.633953 0.723608 0.394144
v -5.820882 0.133296 -2.584903
v -11.548573 0.133296 0.266552
v -6.375084 -0.209466 -2.202642
v -10.909506 -0.209466 0.054759
v -6.742362 -0.304677 -1.573095
v -10.185795 -0.304677 0.141172
v -6.648347 0.933074 -1.768800
v -10.398621 0.933074 0.098224
vn 0.9141 -0.2026 0.3513
vn -0.2707 -0.2026 0.9411
vn 0.9507 -0.3051 0.0545
vn -0.5296 -0.3051 0.7915
vn 0.5686 -0.7905 0.2275
vn -0.1612 -0.7905 0.5908
vn 0.6816 -0.5163 0.5185
vn 0.0029 -0.5163 0.8564
vn 0.3013 -0.5222 0.7979
vn 0.4550 -0.5222 0.7213
vn -0.0348 -0.8487 0.5278
vn 0.4421 -0.8487 0.2904
vn -0.4649 -0.3294 0.8218
vn 0.9274 -0.3400 0.1562
vn -0.0381 -0.1981 0.9794
vn 0.8045 -0.1981 0.5600
vn -0.0314 0.1958 0.9801
vn 0.8010 0.1958 0.5657
vn -0.4372 0.3223 0.8396
vn 0.9324 0.3293 0.1489
vn 0.0078 0.8073 0.5900
vn 0.4489 0.8249 0.3436
vn 0.2803 0.6023 0.7474
vn 0.4599 0.5518 0.6957
vn 0.6476 0.5231 0.5540
vn -0.0138 0.5446 0.8386
vn 0.5915 0.7711 0.2356
vn -0.1399 0.7641 0.6298
vn 0.9529 0.2968 0.0627
vn -0.5316 0.2940 0.7944
vn 0.9288 0.1868 0.3201
vn -0.2707 0.2026 0.9411
vn 0.5648 0.3436 -0.7503
vn -0.9420 0.3058 -0.1384
vn -0.0454 0.8296 -0.5566
vn -0.4243 0.8146 -0.3954
vn -0.5891 0.7605 -0.2731
vn 0.2084 0.7988 -0.5643
vn -0.9487 0.3143 0.0335
vn 0.4702 0.3276 -0.8195
vn -0.9279 -0.3537 -0.1176
vn 0.4655 -0.3537 -0.8113
vn -0.5759 -0.7988 -0.1739
vn 0.2084 -0.7988 -0.5643
vn -0.0597 -0.8146 -0.5769
vn -0.4243 -0.8146 -0.3954
vn 0.4432 -0.3293 -0.8337
vn -0.9324 -0.3293 -0.1489
vn 0.7656 -0.0623 0.6403
vn 0.0494 -0.0623 0.9968
vn 0.6917 -0.1754 0.7006
vn 0.1421 -0.1754 0.9742
vn 0.5207 -0.1835 0.8338
vn 0.3515 -0.1835 0.9180
vn 0.3888 -0.0283 0.9209
vn 0.5004 -0.0283 0.8653
vn 0.3888 0.0260 0.9209
vn 0.5005 0.0260 0.8654
vn 0.5258 0.1729 0.8328
vn 0.3476 0.1729 0.9216
vn 0.6899 0.1656 0.7047
vn 0.1464 0.1656 0.9753
vn 0.7659 0.0572 0.6405
vn 0.0494 0.0572 0.9971
vn 0.3295 -0.8748 0.3551
vn 0.1405 -0.8433 0.5188
vn 0.4043 -0.8656 0.2955
vn 0.0377 -0.8620 0.5055
vn 0.8035 -0.5049 0.3153
vn -0.2327 -0.5049 0.8312
vn 0.9745 -0.0633 0.2155
vn -0.4154 -0.0633 0.9074
vn 0.9607 0.1132 0.2534
vn -0.3769 0.1132 0.9193
vn 0.5154 -0.8345 0.1946
vn -0.1554 -0.8345 0.5286
vn 0.5791 -0.7290 0.3650
vn -0.0605 -0.5751 0.8158
vn 0.8823 -0.4197 0.2133
vn -0.3616 -0.4197 0.8325
vn 0.8939 -0.3915 0.2184
vn -0.1491 -0.2978 0.9429
vn 0.6748 0.3425 0.6538
vn -0.5406 0.3606 0.7601
vn 0.7081 0.6482 0.2800
vn -0.1953 0.6448 0.7390
vn 0.7923 0.5565 0.2502
vn -0.2779 0.5565 0.7830
vn 0.2922 0.6560 0.6959
vn 0.3643 0.6685 0.6484
vn -0.3465 0.2715 0.8979
vn 0.9103 0.3768 0.1712
vn -0.2703 0.5262 0.8063
vn 0.7741 0.5773 0.2595
vn 0.7169 -0.6281 0.3024
vn -0.1327 -0.3230 0.9370
vn 0.5801 -0.4694 0.6657
vn 0.1815 -0.4694 0.8642
vn 0.3318 -0.5792 0.7446
vn 0.4788 -0.5010 0.7209
vn 0.1931 -0.7843 0.5896
vn 0.4317 -0.5759 0.6943
vn 0.4875 -0.1695 0.8565
vn 0.1987 -0.8645 0.4618
vn 0.7836 -0.0609 0.6182
vn 0.2656 -0.3128 0.9119
vn 0.7119 -0.1828 0.6780
vn 0.0037 -0.1812 0.9834
vn 0.7134 -0.3068 0.6300
vn 0.1150 -0.2762 0.9542
vn 0.6883 0.2113 0.6939
vn -0.0555 -0.2408 0.9690
vn 0.2610 0.3903 0.8829
vn 0.5472 0.3903 0.7404
vn 0.9094 -0.2914 0.2967
vn 0.2122 -0.4956 0.8422
vn 0.4959 -0.0781 0.8648
vn 0.3911 -0.0781 0.9170
vn 0.4276 -0.2316 0.8738
vn 0.3909 -0.0845 0.9165
vn 0.4007 -0.7103 0.5787
vn 0.2202 -0.7103 0.6685
vn 0.4717 -0.5947 0.6510
vn 0.2351 -0.5947 0.7688
vn 0.6968 -0.1662 0.6978
vn 0.1038 -0.3928 0.9137
vn 0.7149 -0.0360 0.6983
vn 0.1262 -0.0360 0.9914
vn 0.7096 -0.0808 0.7000
vn 0.1308 -0.0808 0.9881
vn 0.4242 0.0511 0.9041
vn 0.4447 0.0665 0.8932
vn 0.4408 -0.0651 0.8952
vn 0.4447 -0.0665 0.8932
vn 0.4457 -0.0000 0.8952
vn 0.7759 -0.5335 -0.3366
vn -0.7363 -0.5335 0.4162
vn 0.7799 0.2692 -0.5651
vn -0.9210 0.2692 0.2816
vn -0.1294 0.9004 -0.4153
vn -0.2636 0.9165 -0.3010
vn -0.8952 -0.0000 0.4457
vn 0.8279 0.5492 0.1137
vn 0.4443 -0.8956 -0.0211
vn -0.2712 -0.8639 0.4245
vn 0.5987 -0.5747 0.5579
vn 0.0843 -0.5747 0.8140
vn -0.3169 0.5353 0.7829
vn 0.8158 0.5353 0.2190
vn 0.3557 0.7759 0.5211
vn 0.2014 0.7759 0.5979
vn 0.9381 0.2870 0.1941
vn -0.4285 0.2971 0.8533
vn 0.6483 -0.5409 0.5358
vn 0.0367 -0.5409 0.8403
vn 0.4776 0.2343 0.8467
vn 0.4004 0.2247 0.8884
vn 0.2320 -0.6087 0.7587
vn 0.4655 -0.6087 0.6425
vn -0.0698 0.0716 0.9950
vn 0.8360 0.0716 0.5441
vn -0.2595 -0.5774 0.7741
vn 0.7741 -0.5774 0.2595
vn 0.8089 -0.4310 0.3998
vn 0.1220 0.0738 0.9898
vn 0.7108 0.0311 0.7028
vn 0.1746 0.0662 0.9824
vn 0.9051 0.3910 0.1672
vn -0.5885 0.2059 0.7818
vn 0.9481 0.3180 0.0016
vn -0.6278 0.1994 0.7524
vn 0.9235 0.3798 -0.0534
vn -0.5993 0.3798 0.7047
vn 0.5570 -0.4161 0.7187
vn -0.0331 -0.8655 0.4999
vn 0.3173 -0.1945 0.9282
vn 0.5494 -0.1945 0.8126
vn -0.0017 -0.0000 1.0000
vn 0.7990 -0.0000 0.6014
vn -0.0208 0.9494 0.3134
vn 0.2625 0.9494 0.1723
vn -0.4852 0.7337 0.4757
vn 0.6720 0.7337 -0.1004
vn 0.8952 -0.0000 -0.4457
vn 0.3258 -0.9450 -0.0302
vn -0.2205 -0.9450 0.2417
vn 0.4440 -0.3031 0.8432
vn 0.4052 -0.3031 0.8625
vn 0.5346 -0.3479 0.7702
vn 0.2923 -0.3479 0.8908
vn -0.0381 -0.2239 0.9739
vn 0.8000 -0.2239 0.5566
vn 0.1862 0.0271 0.9821
vn 0.6714 0.0271 0.7406
vn 0.2853 -0.0090 0.9584
vn 0.6602 0.1038 0.7439
vn -0.0499 -0.4874 0.8718
vn 0.8590 -0.4595 0.2257
vn 0.0564 -0.8797 0.4722
vn 0.3428 -0.8797 0.3296
vn 0.6644 -0.5895 0.4595
vn -0.0338 -0.5895 0.8071
vn 0.8537 -0.4589 0.2460
vn -0.3184 -0.4589 0.8295
vn 0.8537 -0.1144 0.5081
vn -0.1092 -0.1144 0.9874
vn 0.8700 0.1197 0.4783
vn -0.1566 0.1155 0.9809
vn 0.7293 0.4082 0.5490
vn -0.2243 0.6574 0.7194
vn 0.4231 0.7882 0.4469
vn 0.1016 0.7882 0.6070
vn 0.5793 0.3387 0.7414
vn 0.2424 0.3387 0.9091
vn 0.3487 0.2756 0.8958
vn 0.5046 0.2756 0.8182
vn 0.6676 -0.2181 0.7118
vn 0.0108 -0.5739 0.8189
vn 0.6730 -0.3015 0.6754
vn 0.1332 -0.3015 0.9441
vn -0.1573 -0.8339 0.5290
vn 0.4785 -0.3156 0.8194
vn 0.3489 -0.7822 0.5161
vn 0.3451 -0.9071 0.2410
vn 0.0621 -0.2851 0.9565
vn 0.7258 -0.2851 0.6261
vn 0.1875 -0.0577 0.9806
vn 0.8047 0.0508 0.5915
vn 0.1080 0.5245 0.8446
vn 0.6088 0.5245 0.5952
vn 0.3516 0.5546 0.7542
vn 0.3690 0.6815 0.6320
vn 0.6389 0.6342 0.4356
vn 0.0466 0.5221 0.8516
vn 0.7522 0.5300 0.3917
vn -0.1409 0.5300 0.8362
vn 0.8282 -0.3391 0.4462
vn -0.1431 -0.3391 0.9298
vn 0.9902 -0.0615 0.1255
vn -0.4967 -0.0615 0.8657
vn 0.9731 0.1116 0.2014
vn -0.4259 0.1116 0.8979
vn -0.4543 0.8888 0.0607
vn 0.3223 0.8888 -0.3259
vn -0.9259 0.3744 0.0509
vn 0.5987 0.3744 -0.7081
vn -0.4224 0.8710 -0.2508
vn -0.0064 0.8626 -0.5059
vn 0.3946 0.7445 -0.5386
vn -0.6627 0.7489 -0.0042
vn 0.1862 0.8685 -0.4595
vn -0.4580 0.8833 -0.1002
vn 0.1334 0.9141 -0.3829
vn -0.3860 0.9141 -0.1244
vn 0.5977 0.1343 -0.7904
vn -0.9759 0.1323 -0.1733
vn 0.2144 -0.6649 -0.7155
vn -0.7001 -0.6649 -0.2603
vn 0.1703 -0.8566 -0.4870
vn -0.4912 -0.8566 -0.1577
vn -0.0545 -0.3858 -0.9210
vn -0.4725 -0.6644 -0.5791
vn -0.2602 -0.0976 -0.9606
vn -0.6945 -0.0125 -0.7194
vn -0.3778 -0.5633 -0.7348
vn -0.6372 -0.3112 -0.7051
vn 0.0421 -0.9649 -0.2594
vn -0.2323 -0.9649 -0.1227
vn 0.0056 -0.9624 -0.2716
vn -0.2200 -0.9624 -0.1592
vn 0.7056 0.1573 -0.6910
vn -0.9766 0.1573 0.1465
vn 0.6859 0.1838 -0.7041
vn -0.9752 0.1838 0.1229
vn -0.2372 0.0766 -0.9684
vn -0.6297 0.0766 -0.7730
vn -0.3334 -0.0530 -0.9413
vn -0.2758 -0.3635 -0.8898
vn 0.6390 0.1371 -0.7569
vn -0.6147 -0.6780 -0.4032
vn 0.6601 0.1355 -0.7388
vn -0.9874 0.1355 0.0814
vn 0.7317 0.3440 -0.5884
vn -0.9290 0.2673 0.2558
vn 0.7000 0.3642 -0.6143
vn -0.9346 0.2813 0.2179
vn 0.8491 0.4337 -0.3016
vn -0.9362 0.2455 0.2514
vn 0.0362 -0.9577 -0.2855
vn -0.4271 -0.7864 -0.4462
vn -0.0264 -0.4712 -0.8816
vn -0.6887 -0.4759 -0.5471
vn 0.0524 -0.8236 -0.5647
vn -0.4902 -0.8342 -0.2526
vn 0.2072 -0.9442 -0.2560
vn -0.3291 -0.9442 0.0110
vn 0.1921 -0.9163 -0.3515
vn -0.3963 -0.9163 -0.0586
vn 0.5445 0.3333 -0.7697
vn -0.6980 -0.4737 0.5370
vn 0.8835 -0.3740 -0.2819
vn -0.7575 -0.3740 0.5351
vn -0.1612 -0.0454 -0.9859
vn -0.7669 -0.2265 -0.6005
vn 0.2146 0.9658 0.1457
vn 0.0098 0.9626 0.2708
vn 0.0385 0.9750 -0.2188
vn -0.1978 0.9750 -0.1012
vn 0.0429 0.6192 -0.7840
vn -0.6514 0.6192 -0.4384
vn 0.3942 0.8618 -0.3191
vn -0.4922 0.8618 0.1222
vn 0.5503 0.6447 0.5306
vn 0.0917 0.6447 0.7589
vn 0.5999 0.7888 -0.1335
vn -0.4681 0.7888 0.3983
vn 0.5531 0.6755 -0.4876
vn -0.7225 0.6755 0.1474
vn 0.3283 0.1364 -0.9347
vn -0.8916 0.2517 -0.3764
vn 0.3018 0.2318 -0.9248
vn -0.9198 0.2318 -0.3166
vn 0.4976 0.7254 -0.4756
vn -0.6794 0.7254 0.1103
vn 0.7088 0.6729 -0.2119
vn -0.5963 0.6729 0.4378
vn 0.9098 0.4074 0.0793
vn -0.4851 0.4074 0.7737
vn 0.1993 0.8840 -0.4229
vn -0.3219 0.9434 0.0799
vn 0.5798 0.6237 0.5242
vn 0.2390 0.5080 0.8275
vn -0.5875 0.1005 -0.8029
vn -0.2865 0.1005 -0.9528
vn 0.6049 0.5674 0.5587
vn 0.0812 0.5674 0.8194
vn 0.2874 0.1847 0.9398
vn 0.5767 0.1847 0.7958
vn 0.5595 0.0893 -0.8240
vn -0.7125 0.2255 0.6645
vn 0.9934 0.0762 -0.0860
vn -0.6674 0.0762 0.7408
vn 0.8946 0.2169 -0.3907
vn -0.8510 0.2169 0.4783
vn 0.7949 -0.0304 -0.6060
vn -0.9041 0.0893 0.4179
vn 0.6811 -0.6646 -0.3072
vn -0.5298 -0.7651 0.3660
vn 0.3710 -0.9243 -0.0901
vn -0.2953 -0.9244 0.2415
vn 0.4787 -0.8754 0.0671
vn -0.2350 -0.8754 0.4224
vn 0.6220 -0.7642 -0.1704
vn -0.5109 -0.7642 0.3936
vn 0.7630 -0.6368 -0.1110
vn -0.5485 -0.6368 0.5419
vn 0.6164 -0.4499 0.6463
vn 0.1442 -0.4499 0.8814
vn 0.1930 -0.3070 -0.9319
vn -0.8190 -0.3290 -0.4702
vn 0.0415 -0.2400 -0.9699
vn -0.8274 -0.3343 -0.4512
vn 0.2684 -0.8452 -0.4622
vn -0.4184 -0.8341 -0.3594
vn 0.5008 -0.6610 -0.5588
vn -0.7845 -0.6154 0.0769
vn 0.1120 -0.4408 -0.8906
vn -0.7782 -0.4408 -0.4474
vn 0.7246 0.2855 0.6273
vn 0.0710 0.4867 0.8707
vn 0.7962 0.0975 0.5971
vn -0.0035 0.0975 0.9952
vn 0.6984 0.1993 0.6874
vn 0.2756 -0.0079 0.9612
vn 0.6202 -0.0836 0.7800
vn 0.1630 -0.0758 0.9837
vn 0.7217 0.0824 0.6873
vn -0.1754 -0.2198 0.9597
vn 0.8474 -0.3850 0.3656
vn -0.2191 -0.3850 0.8965
vn 0.7339 0.5580 0.3874
vn -0.1333 0.5580 0.8191
vn -0.0227 0.8318 0.5547
vn 0.4563 0.8318 0.3162
vn -0.5611 0.2223 0.7974
vn 0.9589 0.2366 0.1568
vn -0.1266 -0.3579 0.9251
vn 0.8143 -0.3548 0.4594
vn 0.7075 -0.5991 0.3749
vn -0.0681 -0.5252 0.8482
vn 0.8746 -0.4567 0.1629
vn -0.3972 -0.4567 0.7960
vn 0.5624 -0.6131 -0.5548
vn -0.5070 -0.7658 0.3957
vn 0.2586 0.2923 0.9207
vn 0.6123 0.2733 0.7419
vn 0.7055 -0.3578 -0.6118
vn -0.9134 -0.3578 0.1942
vn 0.4545 0.3399 0.8233
vn 0.3830 0.3399 0.8590
vn 0.3883 0.9064 0.1665
vn -0.1012 0.9064 0.4102
vn 0.7458 -0.4480 0.4930
vn -0.3415 0.1689 0.9246
vn 0.7728 -0.5534 0.3107
vn -0.7395 -0.4075 0.5358
vn 0.8503 -0.3122 0.4237
vn -0.2424 -0.5217 0.8180
vn 0.7760 -0.5533 0.3028
vn -0.2168 -0.2571 0.9418
vn 0.6602 0.5323 -0.5299
vn -0.8208 0.5323 0.2073
vn 0.7892 -0.3765 -0.4851
vn -0.8723 -0.4446 0.2038
vn 0.8604 -0.0181 -0.5093
vn -0.9250 -0.0181 0.3795
vn 0.7457 -0.6644 -0.0492
vn -0.4887 -0.6644 0.5654
vn 0.7389 -0.6176 -0.2693
vn -0.6510 -0.5947 0.4717
vn 0.6808 -0.7022 -0.2082
vn -0.5765 -0.7022 0.4177
vn 0.1202 0.9921 -0.0368
vn -0.2692 0.9631 -0.0005
vn 0.8913 0.3145 -0.3266
vn -0.7595 0.3469 0.5503
vn 0.6024 -0.7767 -0.1842
vn -0.5101 -0.7767 0.3696
vn -0.0000 1.0000 -0.0000
vn 0.7215 -0.6899 0.0588
vn -0.3880 -0.6899 0.6111
vn 0.4181 -0.8808 0.2223
vn -0.0747 -0.8808 0.4676
vn -0.8475 -0.5252 0.0768
vn 0.5721 -0.5252 -0.6299
vn -0.9629 0.2429 -0.1175
vn 0.5567 0.2328 -0.7974
vn -0.5390 0.8231 0.1786
vn 0.2788 0.6985 -0.6590
vn 0.0567 0.9899 0.1297
vn 0.0911 0.9939 -0.0628
vn 0.5365 0.0392 0.8430
vn 0.2833 0.0097 0.9590
vn 0.6506 0.0852 0.7546
vn 0.0353 0.0413 0.9985
vn 0.6924 0.0926 0.7155
vn 0.1536 0.0926 0.9838
vn 0.6240 0.0124 0.7814
vn 0.3326 0.0458 0.9419
vn 0.4021 0.3867 0.8299
vn 0.4198 0.3867 0.8211
vn 0.7511 -0.0364 0.6591
vn 0.0233 -0.0320 0.9992
vn 0.6493 -0.1897 0.7365
vn 0.1994 0.0723 0.9772
vn -0.1569 0.6088 0.7776
vn 0.5326 0.7454 0.4009
vn 0.9204 0.1802 0.3470
vn -0.2779 0.1802 0.9435
vn 0.7832 -0.2008 0.5885
vn -0.0401 -0.1986 0.9793
vn 0.8766 -0.1334 0.4624
vn 0.1187 -0.4062 0.9060
vn 0.8124 0.2833 0.5096
vn -0.0831 0.2833 0.9554
vn 0.6045 0.5802 0.5458
vn 0.0711 0.5802 0.8113
vn 0.0411 -0.9912 -0.1259
vn -0.1253 -0.9912 -0.0431
vn 0.4839 -0.8715 -0.0798
vn -0.3554 -0.8715 0.3380
vn 0.9503 -0.2541 -0.1800
vn -0.7023 -0.2460 0.6681
vn 0.7313 0.5291 -0.4305
vn -0.7416 0.5627 0.3653
vn -0.3204 0.9439 -0.0801
vn 0.0514 0.9243 -0.3782
vn -0.4495 0.8743 0.1834
vn 0.2860 0.8851 -0.3671
vn -0.8497 -0.0030 -0.5273
vn 0.1167 -0.0144 -0.9931
vn -0.5721 0.0104 -0.8201
vn -0.3095 0.0104 -0.9508
vn -0.0452 0.0266 -0.9986
vn -0.7696 0.0266 -0.6380
vn -0.7209 0.5901 0.3635
vn 0.6772 0.6786 -0.2844
vn -0.0154 -0.2291 -0.9733
vn -0.7673 -0.2291 -0.5989
vn -0.0979 -0.9943 -0.0426
vn 0.0250 -0.9943 -0.1038
vn 0.9194 -0.1971 0.3404
vn -0.2826 -0.1971 0.9388
vn 0.9524 -0.3017 0.0448
vn -0.5383 -0.3017 0.7869
vn 0.5723 -0.7967 0.1943
vn -0.1900 -0.7967 0.5738
vn 0.6510 -0.4954 0.5751
vn 0.0665 -0.4954 0.8661
vn 0.3065 -0.5714 0.7613
vn 0.4227 -0.5714 0.7034
vn -0.0297 -0.8315 0.5547
vn 0.4605 -0.8315 0.3107
vn -0.4343 -0.3400 0.8341
vn 0.9359 -0.3294 0.1244
vn -0.0315 -0.1863 0.9820
vn 0.8025 -0.1863 0.5668
vn -0.0683 0.1812 0.9811
vn 0.8240 0.1812 0.5369
vn -0.4432 0.3293 0.8337
vn 0.9335 0.3223 0.1572
vn 0.0036 0.8249 0.5653
vn 0.4661 0.8073 0.3619
vn 0.2779 0.5518 0.7863
vn 0.4274 0.6023 0.6742
vn 0.6774 0.5446 0.4945
vn 0.0517 0.5231 0.8507
vn 0.5868 0.7641 0.2680
vn -0.1686 0.7711 0.6140
vn 0.9542 0.2940 0.0547
vn -0.5243 0.2968 0.7981
vn 0.9141 0.2026 0.3513
vn -0.3044 0.1868 0.9340
vn 0.4574 0.3058 -0.8350
vn -0.9391 0.3436 -0.0016
vn -0.0597 0.8146 -0.5769
vn -0.4167 0.8296 -0.3717
vn -0.5759 0.7988 -0.1739
vn 0.1371 0.7605 -0.6347
vn -0.9373 0.3276 -0.1188
vn 0.5986 0.3143 -0.7368
vn -0.9398 -0.3408 0.0238
vn 0.5855 -0.3408 -0.7356
vn -0.5891 -0.7605 -0.2731
vn 0.1371 -0.7605 -0.6347
vn -0.0454 -0.8296 -0.5566
vn -0.4167 -0.8296 -0.3717
vn 0.5579 -0.3734 -0.7412
vn -0.9277 -0.3734 -0.0016
vn 0.3292 -0.8433 0.4248
vn 0.0848 -0.8748 0.4770
vn 0.3806 -0.8620 0.3348
vn -0.0080 -0.8656 0.5007
vn 0.8369 -0.4256 0.3441
vn -0.2299 -0.4256 0.8752
vn 0.9683 -0.0299 0.2479
vn -0.3858 -0.0299 0.9221
vn 0.9838 0.0689 0.1655
vn -0.4609 0.0689 0.8848
vn 0.4689 -0.7779 0.4183
vn 0.0511 -0.7779 0.6263
vn 0.6874 -0.5751 0.4435
vn -0.0578 -0.7290 0.6821
vn 0.8796 -0.4191 0.2249
vn -0.3507 -0.4191 0.8374
vn 0.8422 -0.2978 0.4494
vn -0.3645 -0.3915 0.8449
vn 0.9323 0.3606 0.0268
vn 0.1149 0.3425 0.9325
vn 0.7073 0.6448 0.2896
vn -0.2034 0.6482 0.7338
vn 0.8252 0.4924 0.2767
vn -0.2767 0.4924 0.8252
vn 0.2978 0.6685 0.6815
vn 0.3792 0.6560 0.6526
vn -0.4121 0.3768 0.8296
vn 0.9253 0.2715 0.2647
vn -0.2595 0.5774 0.7741
vn 0.8063 0.5262 0.2703
vn 0.8277 -0.3230 0.4589
vn -0.1908 -0.6281 0.7544
vn 0.5768 -0.4685 0.6692
vn 0.1863 -0.4685 0.8636
vn 0.2866 -0.5010 0.8166
vn 0.3941 -0.5792 0.7135
vn 0.2938 -0.5759 0.7629
vn 0.3540 -0.7843 0.5094
vn 0.2487 -0.8645 0.4369
vn 0.3896 -0.1695 0.9053
vn 0.5676 -0.3128 0.7616
vn 0.0210 -0.0609 0.9979
vn 0.7825 -0.1812 0.5957
vn 0.1119 -0.1828 0.9768
vn 0.6920 -0.2762 0.6669
vn 0.0727 -0.3068 0.9490
vn 0.8066 -0.2408 0.5398
vn 0.1388 0.2113 0.9675
vn 0.4090 -0.1899 0.8926
vn 0.4657 -0.1899 0.8643
vn 0.5441 -0.4956 0.6770
vn -0.3114 -0.2915 0.9045
vn 0.6356 -0.3498 0.6882
vn 0.1660 -0.3498 0.9220
vn 0.4957 -0.0845 0.8644
vn 0.4395 -0.2316 0.8679
vn 0.3262 -0.6507 0.6857
vn 0.3505 -0.6507 0.6736
vn 0.5724 -0.5476 0.6103
vn 0.1419 -0.5476 0.8246
vn 0.6665 -0.3928 0.6336
vn 0.1367 -0.1662 0.9766
vn 0.6801 -0.0164 0.7330
vn 0.1749 -0.0164 0.9844
vn 0.7092 -0.1432 0.6903
vn 0.1233 -0.1432 0.9820
vn 0.4657 0.0511 0.8834
vn 0.4486 -0.0651 0.8914
vn 0.6425 -0.6087 -0.4655
vn -0.7587 -0.6087 0.2320
vn 0.7273 0.1919 -0.6589
vn -0.9642 0.1919 0.1832
vn -0.0813 0.9165 -0.3918
vn -0.2534 0.9004 -0.3536
vn -0.4083 0.5492 0.7291
vn 0.5022 -0.8639 0.0395
vn -0.2846 -0.8956 0.3418
vn -0.4482 0.6667 0.5955
vn 0.7454 0.6667 0.0013
vn 0.3759 0.8086 0.4527
vn 0.1346 0.8086 0.5728
vn 0.9392 0.2971 0.1724
vn -0.4105 0.2870 0.8655
vn 0.5060 -0.8575 0.0929
vn -0.2309 -0.8575 0.4598
vn 0.4675 0.2247 0.8550
vn 0.3877 0.2343 0.8915
vn 0.5431 -0.2609 0.7982
vn 0.3095 -0.2609 0.9144
vn 0.1967 -0.8206 0.5367
vn 0.3097 -0.8206 0.4804
vn 0.9319 0.2817 0.2284
vn -0.3795 0.2817 0.8813
vn 0.7162 0.0738 0.6939
vn -0.1686 -0.4310 0.8864
vn 0.6787 0.0662 0.7315
vn 0.1323 0.0311 0.9907
vn 0.9786 0.2059 0.0017
vn -0.4121 0.3910 0.8230
vn 0.9788 0.1994 -0.0474
vn -0.5702 0.3180 0.7575
vn 0.9815 0.0664 -0.1795
vn -0.7348 0.0664 0.6750
vn 0.4188 -0.8655 0.2749
vn 0.2377 -0.4161 0.8777
vn 0.2725 -0.2043 0.9402
vn 0.5860 -0.2043 0.7841
vn 0.3256 -0.1829 0.9276
vn 0.5439 -0.1829 0.8190
vn 0.2778 0.3123 0.9084
vn 0.5574 0.3123 0.7692
vn -0.6140 0.6857 0.3908
vn 0.6819 0.6857 -0.2544
vn 0.3258 -0.9450 -0.0303
vn 0.4692 -0.2870 0.8351
vn 0.3836 -0.2870 0.8778
vn -0.1489 -0.3293 0.9324
vn 0.8337 -0.3293 0.4432
vn -0.0586 -0.1130 0.9919
vn 0.8267 -0.1130 0.5511
vn 0.1956 0.1038 0.9752
vn 0.5927 -0.0090 0.8053
vn -0.3377 -0.4595 0.8215
vn 0.7257 -0.4874 0.4856
vn 0.2366 -0.6359 0.7346
vn 0.4436 -0.6359 0.6316
vn 0.6734 -0.6211 0.4009
vn -0.0860 -0.6211 0.7790
vn 0.7850 -0.3557 0.5072
vn -0.0684 -0.3557 0.9321
vn 0.8844 -0.0839 0.4591
vn -0.1667 -0.0839 0.9824
vn 0.8771 0.1155 0.4663
vn -0.1428 0.1197 0.9825
vn 0.7092 0.6574 0.2547
vn -0.0016 0.4082 0.9129
vn 0.6907 0.3478 0.6340
vn 0.0896 0.3478 0.9333
vn 0.5376 0.3774 0.7540
vn 0.2776 0.3774 0.8834
vn 0.4604 0.2306 0.8572
vn 0.4065 0.2306 0.8841
vn 0.6469 -0.5739 0.5022
vn 0.1656 -0.2181 0.9618
vn 0.6533 -0.2252 0.7228
vn 0.1830 -0.2252 0.9570
vn 0.3654 -0.3156 0.8757
vn 0.5170 -0.8339 0.1934
vn -0.0158 -0.9071 0.4207
vn 0.2015 -0.7822 0.5895
vn 0.1055 -0.2397 0.9651
vn 0.7064 -0.2397 0.6659
vn -0.0131 0.0507 0.9986
vn 0.6694 -0.0577 0.7406
vn 0.3848 0.4072 0.8283
vn 0.4290 0.4072 0.8063
vn 0.2818 0.6815 0.6754
vn 0.3898 0.5546 0.7352
vn 0.6514 0.5221 0.5505
vn -0.0375 0.6342 0.7723
vn 0.9413 -0.3158 0.1193
vn -0.4722 -0.3158 0.8230
vn 0.9831 -0.0807 0.1641
vn -0.4617 -0.0807 0.8834
vn 0.9741 0.1210 0.1912
vn -0.4346 0.1210 0.8924
vn -0.7310 0.6811 -0.0419
vn 0.4072 0.6811 -0.6085
vn -0.9301 0.3650 0.0405
vn 0.5930 0.3650 -0.7177
vn -0.3998 0.8626 -0.3100
vn 0.0545 0.8710 -0.4882
vn 0.3961 0.7489 -0.5313
vn -0.6676 0.7445 -0.0098
vn 0.1961 0.8833 -0.4258
vn -0.4788 0.8685 -0.1284
vn 0.1172 0.9159 -0.3840
vn -0.3770 0.9159 -0.1380
vn 0.4500 0.1323 -0.8832
vn -0.9909 0.1343 0.0004
vn 0.3217 -0.7524 -0.5748
vn -0.6525 -0.7524 -0.0898
vn 0.1158 -0.7323 -0.6711
vn -0.6053 -0.7323 -0.3121
vn -0.1772 -0.6644 -0.7260
vn -0.7020 -0.3858 -0.5986
vn -0.1554 -0.0125 -0.9878
vn -0.6097 -0.0976 -0.7866
vn -0.1785 -0.3112 -0.9335
vn -0.3586 -0.5633 -0.7444
vn 0.0401 -0.9948 -0.0941
vn -0.0992 -0.9948 -0.0247
vn 0.0049 -0.9718 -0.2358
vn -0.1911 -0.9718 -0.1383
vn 0.6670 -0.5621 -0.4890
vn -0.7923 -0.5621 0.2374
vn 0.6936 0.1396 -0.7067
vn -0.9820 0.1396 0.1274
vn -0.3413 -0.0274 -0.9396
vn -0.5440 -0.0274 -0.8387
vn -0.5438 -0.3635 -0.7564
vn -0.5501 -0.0530 -0.8334
vn 0.0488 -0.6780 -0.7335
vn -0.9891 0.1371 0.0537
vn 0.6588 0.1393 -0.7393
vn -0.9870 0.1393 0.0801
vn 0.7641 0.2673 -0.5871
vn -0.9106 0.3440 0.2292
vn 0.7372 0.2813 -0.6144
vn -0.9121 0.3642 0.1882
vn 0.7649 0.2455 -0.5955
vn -0.7524 0.4337 0.4957
vn -0.0986 -0.7864 -0.6098
vn -0.2496 -0.9577 -0.1432
vn -0.0214 -0.4759 -0.8792
vn -0.6876 -0.4712 -0.5525
vn 0.0939 -0.8342 -0.5434
vn -0.4822 -0.8236 -0.2985
vn 0.1803 -0.9574 -0.2257
vn -0.2887 -0.9574 0.0078
vn 0.2075 -0.9443 -0.2555
vn -0.3289 -0.9443 0.0116
vn 0.8492 -0.4737 -0.2333
vn -0.9424 0.3333 -0.0294
vn 0.7718 -0.6358 0.0091
vn -0.4580 -0.6358 0.6213
vn -0.0169 -0.2265 -0.9739
vn -0.6895 -0.0454 -0.7229
vn 0.2102 0.9626 0.1711
vn -0.0131 0.9658 0.2590
vn 0.0214 0.9734 -0.2281
vn -0.1949 0.9734 -0.1204
vn -0.0569 0.5711 -0.8189
vn -0.6191 0.5711 -0.5390
vn 0.2082 0.9288 -0.3066
vn -0.3702 0.9288 -0.0187
vn 0.3098 0.7955 0.5208
vn 0.2288 0.7955 0.5611
vn 0.6275 0.7696 -0.1183
vn -0.4726 0.7696 0.4294
vn 0.5222 0.6857 -0.5071
vn -0.7194 0.6857 0.1110
vn 0.2371 0.2517 -0.9383
vn -0.9437 0.1364 -0.3014
vn -0.0529 0.5704 -0.8197
vn -0.6221 0.5704 -0.5363
vn 0.4951 0.7624 -0.4168
vn -0.6310 0.7624 0.1438
vn 0.7126 0.6833 -0.1591
vn -0.5565 0.6833 0.4727
vn 0.8908 0.3830 0.2444
vn -0.3419 0.3830 0.8582
vn 0.2578 0.9434 -0.2087
vn -0.4576 0.8840 -0.0959
vn 0.5162 0.5080 0.6895
vn 0.0688 0.6237 0.7786
vn -0.5980 0.1145 -0.7932
vn -0.2725 0.1145 -0.9553
vn -0.3196 0.9462 -0.0499
vn 0.1528 0.9462 -0.2851
vn 0.9597 0.2255 -0.1680
vn -0.9947 0.0893 -0.0502
vn 0.9538 0.1241 -0.2737
vn -0.7933 0.1241 0.5960
vn 0.7567 0.1472 -0.6370
vn -0.9644 0.1472 0.2199
vn 0.8784 0.0893 -0.4695
vn -0.9627 -0.0304 0.2690
vn 0.6114 -0.7651 -0.2022
vn -0.6557 -0.6646 0.3583
vn 0.3707 -0.9244 -0.0901
vn -0.2955 -0.9243 0.2417
vn 0.5406 -0.8354 -0.0991
vn -0.4049 -0.8354 0.3716
vn 0.6290 -0.5237 0.5745
vn 0.0793 -0.5237 0.8482
vn 0.1185 -0.3290 -0.9369
vn -0.8599 -0.3070 -0.4078
vn 0.1387 -0.3343 -0.9322
vn -0.7989 -0.2400 -0.5515
vn -0.0346 -0.8341 -0.5505
vn -0.5306 -0.8452 -0.0644
vn 0.5342 -0.6154 -0.5796
vn -0.7477 -0.6610 0.0627
vn 0.6519 0.4867 0.5815
vn 0.0637 0.2855 0.9562
vn 0.7934 0.2593 0.5507
vn -0.0389 0.2593 0.9650
vn 0.6009 -0.0079 0.7993
vn 0.1275 0.1993 0.9716
vn 0.6867 -0.0758 0.7230
vn 0.2485 -0.0836 0.9650
vn 0.8715 -0.2198 0.4385
vn 0.1134 0.0824 0.9901
vn 0.9098 -0.1939 0.3670
vn -0.2556 -0.1939 0.9471
vn 0.5966 0.7506 0.2840
vn -0.1330 0.7506 0.6472
vn -0.0188 0.8296 0.5580
vn 0.4565 0.8296 0.3213
vn -0.4529 0.2365 0.8596
vn 0.9744 0.2223 0.0329
vn -0.1242 -0.3548 0.9266
vn 0.8145 -0.3579 0.4566
vn 0.7179 -0.5252 0.4570
vn -0.1274 -0.5991 0.7905
vn 0.8724 -0.4428 0.2069
vn -0.3608 -0.4428 0.8208
vn 0.6213 -0.7658 -0.1661
vn -0.7817 -0.6131 0.1143
vn 0.2229 0.2733 0.9358
vn 0.5787 0.2923 0.7613
vn 0.7299 -0.3869 -0.5636
vn -0.8896 -0.3869 0.2427
vn 0.5962 -0.0891 0.7979
vn 0.2772 -0.0891 0.9567
vn -0.0420 0.8972 0.4396
vn 0.3761 0.8972 0.2315
vn 0.9436 0.1689 0.2849
vn -0.0562 -0.4480 0.8923
vn 0.7490 0.5844 0.3123
vn -0.2022 0.5844 0.7859
vn 0.8733 -0.4075 -0.2671
vn -0.2179 -0.5534 0.8039
vn 0.7988 -0.5217 0.2997
vn -0.1745 -0.3122 0.9339
vn 0.8821 -0.2571 0.3947
vn -0.2261 -0.5533 0.8017
vn 0.7893 -0.4788 -0.3844
vn -0.7825 -0.4788 0.3980
vn 0.6884 -0.4446 -0.5731
vn -0.8628 -0.3765 0.3373
vn 0.7263 -0.6363 -0.2601
vn -0.6453 -0.6363 0.4228
vn 0.7688 -0.5947 -0.2351
vn -0.6603 -0.6176 0.4273
vn 0.1619 0.9631 -0.2151
vn -0.1018 0.9921 0.0738
vn 0.8969 0.3469 -0.2743
vn -0.7979 0.3145 0.5143
vn 0.6330 -0.7071 -0.3151
vn -0.6330 -0.7071 0.3151
vn 0.0490 0.9898 0.1336
vn 0.0771 0.9898 0.1196
vn 0.6926 -0.7211 -0.0147
vn -0.4292 -0.7211 0.5438
vn 0.3924 -0.9022 0.1792
vn -0.0936 -0.9022 0.4211
vn -0.8309 -0.4853 0.2722
vn 0.7180 -0.4853 -0.4989
vn -0.9718 0.2328 -0.0364
vn 0.4866 0.2429 -0.8392
vn -0.6939 0.6985 -0.1748
vn 0.4674 0.8231 -0.3224
vn -0.1051 0.9939 0.0348
vn 0.0694 0.9899 0.1234
vn 0.5944 0.0097 0.8041
vn 0.3492 0.0392 0.9362
vn 0.7755 0.0413 0.6300
vn 0.2100 0.0852 0.9740
vn 0.7103 -0.0461 0.7024
vn 0.1323 -0.0461 0.9901
vn 0.5511 0.0458 0.8332
vn 0.2473 0.0124 0.9688
vn 0.8651 0.1916 0.4635
vn -0.1516 0.1916 0.9697
vn 0.7832 -0.0320 0.6209
vn 0.0732 -0.0364 0.9967
vn 0.6595 0.0723 0.7482
vn 0.1963 -0.1897 0.9620
vn 0.5624 -0.0225 0.8266
vn 0.3205 -0.0225 0.9470
vn -0.0012 0.7454 0.6667
vn 0.7151 0.6088 0.3435
vn 0.8628 -0.1486 0.4832
vn -0.1346 -0.1486 0.9797
vn 0.8055 -0.1986 0.5583
vn -0.0025 -0.2008 0.9796
vn 0.6514 -0.4062 0.6408
vn -0.1594 -0.1334 0.9782
vn 0.8676 0.2164 0.4478
vn -0.1657 0.2164 0.9621
vn 0.0525 -0.9932 -0.1035
vn -0.1142 -0.9932 -0.0205
vn 0.4258 -0.8527 -0.3027
vn -0.4982 -0.8527 0.1573
vn 0.9564 -0.2460 -0.1577
vn -0.7164 -0.2541 0.6498
vn 0.7385 0.5627 -0.3715
vn -0.7843 0.5291 0.3240
vn -0.3328 0.9243 -0.1870
vn 0.1292 0.9439 -0.3039
vn -0.4653 0.8851 0.0069
vn 0.4173 0.8743 -0.2481
vn -0.8627 -0.0144 -0.5055
vn 0.0914 -0.0030 -0.9958
vn -0.6583 -0.0749 -0.7490
vn -0.2008 -0.0749 -0.9768
vn -0.6352 0.6786 0.3689
vn 0.7245 0.5901 -0.3561
vn 0.2967 -0.1711 -0.9395
vn -0.9285 -0.1711 -0.3295
vn -0.5138 -0.8283 -0.2235
vn 0.1314 -0.8283 -0.5447
vt 0.843250 0.588863
vt 0.794218 0.611927
vt 0.815334 0.560948
vt 0.866314 0.937441
vt 0.889378 0.888409
vt 0.917293 0.916324
vt 0.746541 0.611927
vt 0.781622 0.527235
vt 0.866314 0.985118
vt 0.951006 0.950037
vt 0.781622 0.696619
vt 0.781622 0.950037
vt 0.833697 0.611927
vt 0.815334 0.662907
vt 0.815334 0.916325
vt 0.866314 0.897962
vt 0.843250 0.634991
vt 0.866314 0.684023
vt 0.794218 0.865345
vt 0.843250 0.888409
vt 0.866314 0.731700
vt 0.746541 0.865345
vt 0.917293 0.662907
vt 0.815334 0.814366
vt 0.781622 0.780653
vt 0.866314 0.644544
vt 0.833697 0.865345
vt 0.889378 0.634991
vt 0.938410 0.611927
vt 0.866314 0.793249
vt 0.843250 0.842281
vt 0.951006 0.696619
vt 0.866314 0.745572
vt 0.917294 0.560947
vt 0.986087 0.611927
vt 0.917294 0.814365
vt 0.951006 0.780653
vt 0.889378 0.588863
vt 0.898931 0.611927
vt 0.889378 0.842281
vt 0.866314 0.579310
vt 0.898931 0.865345
vt 0.938410 0.865345
vt 0.866314 0.539831
vt 0.951006 0.527235
vt 0.986087 0.865345
vt 0.866314 0.492154
vt 0.847600 0.593213
vt 0.885028 0.884059
vt 0.892780 0.865345
vt 0.866314 0.585461
vt 0.885028 0.846631
vt 0.885028 0.593213
vt 0.866314 0.832728
vt 0.866314 0.838879
vt 0.892780 0.611927
vt 0.847600 0.846631
vt 0.866314 0.638393
vt 0.885028 0.630641
vt 0.839848 0.865345
vt 0.847600 0.630641
vt 0.847600 0.884059
vt 0.839848 0.611927
vt 0.866314 0.891811
vt 0.866314 0.611927
vt 0.866314 0.865345
vt 0.517028 0.068490
vt 0.500000 0.054411
vt 0.520711 0.060503
vt 0.482972 0.068490
vt 0.500000 0.064527
vt 0.522612 0.070678
vt 0.530457 0.065062
vt 0.477388 0.070678
vt 0.479289 0.060503
vt 0.532878 0.067822
vt 0.467122 0.067822
vt 0.469543 0.065062
vt 0.544695 0.083023
vt 0.526301 0.079422
vt 0.473699 0.079422
vt 0.455305 0.083023
vt 0.565647 0.115495
vt 0.529228 0.091098
vt 0.470772 0.091098
vt 0.434353 0.115495
vt 0.586916 0.172042
vt 0.600470 0.238288
vt 0.535885 0.215568
vt 0.399530 0.238288
vt 0.413084 0.172042
vt 0.464115 0.215568
vt 0.650908 0.240294
vt 0.626605 0.208159
vt 0.349092 0.240294
vt 0.363038 0.261221
vt 0.655896 0.284413
vt 0.636962 0.261221
vt 0.344104 0.284413
vt 0.684517 0.317795
vt 0.689501 0.268805
vt 0.315483 0.317795
vt 0.340493 0.313152
vt 0.671357 0.334694
vt 0.659507 0.313152
vt 0.328643 0.334694
vt 0.350893 0.322437
vt 0.636775 0.370732
vt 0.649107 0.322437
vt 0.363225 0.370732
vt 0.386364 0.353108
vt 0.594178 0.371277
vt 0.613636 0.353108
vt 0.405822 0.371277
vt 0.581044 0.398468
vt 0.602261 0.395588
vt 0.418956 0.398468
vt 0.422649 0.373341
vt 0.532016 0.387365
vt 0.577351 0.373341
vt 0.467984 0.387365
vt 0.460183 0.354339
vt 0.500000 0.382860
vt 0.539817 0.354339
vt 0.500000 0.340417
vt 0.579057 0.335646
vt 0.559135 0.334326
vt 0.420943 0.335646
vt 0.592090 0.332885
vt 0.606163 0.325516
vt 0.407910 0.332885
vt 0.628251 0.311636
vt 0.393837 0.325516
vt 0.635551 0.300507
vt 0.371749 0.311636
vt 0.631484 0.283889
vt 0.364449 0.300507
vt 0.611331 0.264411
vt 0.368516 0.283889
vt 0.592372 0.254897
vt 0.388669 0.264411
vt 0.559669 0.267717
vt 0.407628 0.254897
vt 0.500000 0.252445
vt 0.440331 0.267717
vt 0.544001 0.314523
vt 0.455999 0.314523
vt 0.500000 0.295691
vt 0.543637 0.293371
vt 0.456363 0.293371
vt 0.550878 0.277832
vt 0.449122 0.277832
vt 0.506819 0.075382
vt 0.493181 0.075382
vt 0.511782 0.080633
vt 0.488218 0.080633
vt 0.512172 0.093457
vt 0.537536 0.127779
vt 0.513874 0.097191
vt 0.486126 0.097191
vt 0.462464 0.127779
vt 0.487828 0.093457
vt 0.500000 0.157864
vt 0.514257 0.133422
vt 0.520226 0.164615
vt 0.485743 0.133422
vt 0.500000 0.134352
vt 0.500000 0.100063
vt 0.500000 0.091346
vt 0.530258 0.180239
vt 0.517666 0.172353
vt 0.482334 0.172353
vt 0.469742 0.180239
vt 0.479774 0.164615
vt 0.523673 0.198817
vt 0.521901 0.181560
vt 0.478099 0.181560
vt 0.476327 0.198817
vt 0.508211 0.197295
vt 0.500000 0.203867
vt 0.491789 0.197295
vt 0.481043 0.194728
vt 0.500000 0.192167
vt 0.500000 0.197278
vt 0.500000 0.165170
vt 0.500000 0.171718
vt 0.486462 0.176949
vt 0.508818 0.192407
vt 0.491182 0.192407
vt 0.515232 0.190709
vt 0.518957 0.194728
vt 0.484768 0.190709
vt 0.483092 0.181873
vt 0.513538 0.176949
vt 0.516908 0.181873
vt 0.500000 0.186182
vt 0.544209 0.172814
vt 0.455791 0.172814
vt 0.458673 0.154899
vt 0.541327 0.154899
vt 0.578661 0.139176
vt 0.421339 0.139176
vt 0.583245 0.154155
vt 0.416755 0.154155
vt 0.509911 0.090724
vt 0.490089 0.090724
vt 0.500000 0.089977
vt 0.509713 0.082236
vt 0.490287 0.082236
vt 0.505196 0.077083
vt 0.494804 0.077083
vt 0.500000 0.073497
vt 0.500000 0.075473
vt 0.500000 0.080320
vt 0.496555 0.080840
vt 0.506660 0.083289
vt 0.503445 0.080840
vt 0.493340 0.083289
vt 0.506822 0.086791
vt 0.493178 0.086791
vt 0.500000 0.085637
vt 0.562361 0.284338
vt 0.559190 0.294882
vt 0.437639 0.284338
vt 0.440810 0.294882
vt 0.563180 0.307151
vt 0.436820 0.307151
vt 0.570458 0.318697
vt 0.429542 0.318697
vt 0.430757 0.278245
vt 0.589914 0.271772
vt 0.569243 0.278245
vt 0.410086 0.271772
vt 0.602190 0.277180
vt 0.397810 0.277180
vt 0.617110 0.287175
vt 0.382890 0.287175
vt 0.618074 0.299197
vt 0.381926 0.299197
vt 0.384129 0.307438
vt 0.615871 0.307438
vt 0.401576 0.313725
vt 0.590828 0.319797
vt 0.598424 0.313725
vt 0.409172 0.319797
vt 0.582130 0.320991
vt 0.417870 0.320991
vt 0.583998 0.312892
vt 0.416002 0.312892
vt 0.421385 0.309394
vt 0.589656 0.312336
vt 0.410344 0.312336
vt 0.596347 0.309249
vt 0.403653 0.309249
vt 0.606014 0.302517
vt 0.393986 0.302517
vt 0.607735 0.297520
vt 0.392265 0.297520
vt 0.606985 0.291216
vt 0.393015 0.291216
vt 0.598275 0.283083
vt 0.401725 0.283083
vt 0.589866 0.280167
vt 0.410134 0.280167
vt 0.576352 0.284624
vt 0.423648 0.284624
vt 0.572831 0.289915
vt 0.427169 0.289915
vt 0.573307 0.303342
vt 0.578615 0.309394
vt 0.426693 0.303342
vt 0.572447 0.295716
vt 0.427553 0.295716
vt 0.529647 0.428636
vt 0.500000 0.428636
vt 0.470353 0.428636
vt 0.584616 0.428636
vt 0.415384 0.428636
vt 0.397739 0.395588
vt 0.377699 0.417889
vt 0.622301 0.417889
vt 0.333786 0.388954
vt 0.666214 0.388954
vt 0.298519 0.344467
vt 0.712163 0.315527
vt 0.701481 0.344467
vt 0.287837 0.315527
vt 0.310499 0.268805
vt 0.295695 0.260225
vt 0.672947 0.224880
vt 0.704305 0.260225
vt 0.327053 0.224880
vt 0.640497 0.198841
vt 0.359503 0.198841
vt 0.625128 0.029461
vt 0.598617 0.056841
vt 0.603553 0.023452
vt 0.374872 0.029461
vt 0.401383 0.056841
vt 0.364247 0.082198
vt 0.556354 0.040906
vt 0.546781 0.009442
vt 0.396447 0.023452
vt 0.443646 0.040906
vt 0.527159 0.049514
vt 0.500000 0.033223
vt 0.453219 0.009442
vt 0.472841 0.049514
vt 0.537222 0.060794
vt 0.462778 0.060794
vt 0.558499 0.065137
vt 0.441501 0.065137
vt 0.588127 0.085177
vt 0.411873 0.085177
vt 0.635753 0.082198
vt 0.607239 0.113940
vt 0.392761 0.113940
vt 0.612663 0.133675
vt 0.387337 0.133675
vt 0.394533 0.151503
vt 0.600708 0.162985
vt 0.399292 0.162985
vt 0.373395 0.208159
vt 0.859647 0.117994
vt 0.861342 0.027230
vt 0.922374 0.064228
vt 0.140353 0.117994
vt 0.138658 0.027230
vt 0.176713 0.101559
vt 0.823287 0.101559
vt 0.774604 0.010837
vt 0.225396 0.010837
vt 0.234137 0.087001
vt 0.661952 0.087561
vt 0.647010 0.028716
vt 0.338048 0.087561
vt 0.352990 0.028716
vt 0.743592 0.198572
vt 0.766410 0.233065
vt 0.256408 0.198572
vt 0.233590 0.233065
vt 0.889478 0.177602
vt 0.987633 0.154243
vt 0.110522 0.177602
vt 0.077626 0.064228
vt 0.844317 0.347370
vt 0.958963 0.357385
vt 0.899807 0.420886
vt 0.155683 0.347370
vt 0.041037 0.357385
vt 0.118831 0.309153
vt 0.903302 0.261367
vt 0.999860 0.253531
vt 0.096698 0.261367
vt 0.000140 0.253531
vt 0.012367 0.154243
vt 0.724763 0.340212
vt 0.744725 0.304629
vt 0.766113 0.319494
vt 0.255275 0.304629
vt 0.275237 0.340212
vt 0.233887 0.319494
vt 0.793427 0.280495
vt 0.826663 0.297810
vt 0.206573 0.280495
vt 0.173337 0.297810
vt 0.823620 0.254612
vt 0.855331 0.267956
vt 0.176380 0.254612
vt 0.144669 0.267956
vt 0.835860 0.225225
vt 0.868309 0.233525
vt 0.164140 0.225225
vt 0.131691 0.233525
vt 0.851288 0.181145
vt 0.813499 0.190705
vt 0.148712 0.181145
vt 0.881169 0.309153
vt 0.772263 0.374010
vt 0.744519 0.390057
vt 0.227737 0.374010
vt 0.824765 0.470987
vt 0.100193 0.420886
vt 0.792141 0.464714
vt 0.726855 0.432574
vt 0.273145 0.432574
vt 0.207859 0.464714
vt 0.255481 0.390057
vt 0.175235 0.470987
vt 0.795638 0.489991
vt 0.204362 0.489991
vt 0.786137 0.227788
vt 0.213863 0.227788
vt 0.802950 0.203415
vt 0.197050 0.203415
vt 0.765863 0.087001
vt 0.691484 0.146686
vt 0.308516 0.146686
vt 0.230666 0.128771
vt 0.780113 0.169386
vt 0.219887 0.169386
vt 0.605467 0.151503
vt 0.803789 0.171181
vt 0.196211 0.171181
vt 0.169083 0.139518
vt 0.769334 0.128771
vt 0.830917 0.139518
vt 0.464516 0.959188
vt 0.545439 0.884582
vt 0.574628 0.959188
vt 0.285710 0.959188
vt 0.204787 0.884582
vt 0.272900 0.891852
vt 0.605134 0.846978
vt 0.715894 0.897069
vt 0.145092 0.846978
vt 0.175598 0.959188
vt 0.034332 0.897069
vt 0.683874 0.757011
vt 0.066352 0.757011
vt 0.144866 0.784410
vt 0.605360 0.784410
vt 0.617867 0.719156
vt 0.132359 0.719156
vt 0.175391 0.744212
vt 0.574835 0.744212
vt 0.568728 0.682132
vt 0.181498 0.682132
vt 0.215230 0.712528
vt 0.483006 0.686791
vt 0.508539 0.641024
vt 0.267220 0.686791
vt 0.241687 0.641024
vt 0.534996 0.712528
vt 0.478880 0.719593
vt 0.271346 0.719593
vt 0.513415 0.736977
vt 0.236811 0.736977
vt 0.557599 0.789442
vt 0.192627 0.789442
vt 0.209109 0.760754
vt 0.553841 0.821849
vt 0.196385 0.821849
vt 0.524671 0.842380
vt 0.225555 0.842380
vt 0.485193 0.845321
vt 0.265033 0.845321
vt 0.770208 0.191225
vt 0.229792 0.191225
vt 0.213850 0.181127
vt 0.409610 0.674022
vt 0.408153 0.587507
vt 0.340616 0.674022
vt 0.400301 0.910556
vt 0.477326 0.891852
vt 0.349925 0.910556
vt 0.443630 0.713731
vt 0.306596 0.713731
vt 0.392812 0.710774
vt 0.429725 0.728622
vt 0.357414 0.710774
vt 0.422979 0.754609
vt 0.432640 0.746527
vt 0.320501 0.728622
vt 0.327247 0.754609
vt 0.317586 0.746527
vt 0.391578 0.815187
vt 0.427719 0.796173
vt 0.358648 0.815187
vt 0.448277 0.830976
vt 0.414155 0.878318
vt 0.301949 0.830976
vt 0.322507 0.796173
vt 0.336071 0.878318
vt 0.802580 0.199758
vt 0.197420 0.199758
vt 0.797710 0.195652
vt 0.202290 0.195652
vt 0.210391 0.184671
vt 0.786150 0.181127
vt 0.789609 0.184671
vt 0.466042 0.804091
vt 0.490498 0.816075
vt 0.284184 0.804091
vt 0.259728 0.816075
vt 0.302184 0.783921
vt 0.438745 0.764960
vt 0.448042 0.783921
vt 0.311481 0.764960
vt 0.305010 0.756351
vt 0.445216 0.756351
vt 0.300407 0.743458
vt 0.456307 0.732687
vt 0.449819 0.743458
vt 0.293919 0.732687
vt 0.475471 0.740871
vt 0.274755 0.740871
vt 0.514211 0.817769
vt 0.236015 0.817769
vt 0.527961 0.808598
vt 0.222265 0.808598
vt 0.530079 0.790754
vt 0.220147 0.790754
vt 0.518620 0.772385
vt 0.541117 0.760754
vt 0.231606 0.772385
vt 0.498668 0.755033
vt 0.251558 0.755033
vt 0.459660 0.770459
vt 0.290566 0.770459
vt 0.282197 0.756171
vt 0.468029 0.756171
vt 0.477354 0.785393
vt 0.272872 0.785393
vt 0.263059 0.769899
vt 0.504617 0.782999
vt 0.496545 0.797122
vt 0.245609 0.782999
vt 0.253681 0.797122
vt 0.513713 0.804019
vt 0.236513 0.804019
vt 0.234089 0.792591
vt 0.516137 0.792591
vt 0.574269 0.607668
vt 0.613510 0.655816
vt 0.175957 0.607668
vt 0.136716 0.655816
vt 0.644031 0.693270
vt 0.106195 0.693270
vt 0.668163 0.712097
vt 0.082063 0.712097
vt 0.676584 0.686010
vt 0.727131 0.698475
vt 0.073642 0.686010
vt 0.667013 0.640198
vt 0.729804 0.624370
vt 0.023095 0.698475
vt 0.083213 0.640198
vt 0.648152 0.594596
vt 0.721292 0.572934
vt 0.020422 0.624370
vt 0.102074 0.594596
vt 0.717709 0.538143
vt 0.630034 0.557583
vt 0.032517 0.538143
vt 0.028934 0.572934
vt 0.526877 0.539235
vt 0.120192 0.557583
vt 0.223349 0.539235
vt 0.342073 0.587507
vt 0.440865 0.334326
vt 0.186501 0.190705
vt 0.742181 0.461543
vt 0.257819 0.461543
vt 0.487167 0.769899
s 0
f 47/1/1 3/2/1 45/3/1
f 4/4/2 48/5/2 46/6/2
f 45/3/3 5/7/3 43/8/3
f 6/9/4 46/6/4 44/10/4
f 3/2/5 7/11/5 5/7/5
f 8/12/6 4/4/6 6/9/6
f 1/13/7 9/14/7 3/2/7
f 10/15/8 2/16/8 4/4/8
f 11/17/9 15/18/9 9/14/9
f 16/19/10 12/20/10 10/15/10
f 9/14/11 17/21/11 7/11/11
f 18/22/12 10/15/12 8/12/12
f 21/23/13 17/21/13 15/18/13
f 22/24/14 18/22/14 20/25/14
f 13/26/15 21/23/15 15/18/15
f 22/24/16 14/27/16 16/19/16
f 23/28/17 27/29/17 21/23/17
f 28/30/18 24/31/18 22/24/18
f 27/29/19 19/32/19 21/23/19
f 28/30/20 20/25/20 30/33/20
f 33/34/21 29/35/21 27/29/21
f 34/36/22 30/33/22 32/37/22
f 35/38/23 27/29/23 25/39/23
f 36/40/24 28/30/24 34/36/24
f 37/41/25 33/34/25 35/38/25
f 38/42/26 34/36/26 40/43/26
f 39/44/27 31/45/27 33/34/27
f 40/43/28 32/37/28 42/46/28
f 45/3/29 41/47/29 39/44/29
f 46/6/30 42/46/30 44/10/30
f 47/1/31 39/44/31 37/41/31
f 48/5/32 40/43/32 46/6/32
f 37/41/33 49/48/33 47/1/33
f 38/42/34 50/49/34 52/50/34
f 35/38/35 51/51/35 37/41/35
f 36/40/36 52/50/36 54/52/36
f 25/39/37 53/53/37 35/38/37
f 26/54/38 54/52/38 56/55/38
f 23/28/39 55/56/39 25/39/39
f 24/31/40 56/55/40 58/57/40
f 23/28/41 59/58/41 57/59/41
f 60/60/42 24/31/42 58/57/42
f 13/26/43 63/61/43 59/58/43
f 64/62/44 14/27/44 60/60/44
f 11/17/45 65/63/45 63/61/45
f 66/64/46 12/20/46 64/62/46
f 1/13/47 49/48/47 65/63/47
f 50/49/48 2/16/48 66/64/48
f 61/65/49 65/63/49 49/48/49
f 50/49/50 66/64/50 62/66/50
f 63/61/51 65/63/51 61/65/51
f 62/66/52 66/64/52 64/62/52
f 61/65/53 59/58/53 63/61/53
f 64/62/54 60/60/54 62/66/54
f 61/65/55 57/59/55 59/58/55
f 60/60/56 58/57/56 62/66/56
f 61/65/57 55/56/57 57/59/57
f 58/57/58 56/55/58 62/66/58
f 61/65/59 53/53/59 55/56/59
f 56/55/60 54/52/60 62/66/60
f 61/65/61 51/51/61 53/53/61
f 54/52/62 52/50/62 62/66/62
f 61/65/63 49/48/63 51/51/63
f 52/50/64 50/49/64 62/66/64
f 174/67/65 91/68/65 89/69/65
f 175/70/66 91/68/66 176/71/66
f 172/72/67 89/69/67 87/73/67
f 173/74/68 90/75/68 175/70/68
f 85/76/69 172/72/69 87/73/69
f 173/74/70 86/77/70 88/78/70
f 83/79/71 170/80/71 85/76/71
f 171/81/72 84/82/72 86/77/72
f 81/83/73 168/84/73 83/79/73
f 169/85/74 82/86/74 84/82/74
f 79/87/75 146/88/75 164/89/75
f 147/90/76 80/91/76 165/92/76
f 94/93/77 146/88/77 92/94/77
f 95/95/78 147/90/78 149/96/78
f 94/93/79 150/97/79 148/98/79
f 151/99/80 95/95/80 149/96/80
f 98/100/81 150/97/81 96/101/81
f 99/102/82 151/99/82 153/103/82
f 100/104/83 152/105/83 98/100/83
f 101/106/84 153/103/84 155/107/84
f 102/108/85 154/109/85 100/104/85
f 103/110/86 155/107/86 157/111/86
f 102/108/87 158/112/87 156/113/87
f 159/114/88 103/110/88 157/111/88
f 106/115/89 158/112/89 104/116/89
f 107/117/90 159/114/90 161/118/90
f 108/119/91 160/120/91 106/115/91
f 109/121/92 161/118/92 163/122/92
f 67/123/93 162/124/93 108/119/93
f 67/123/94 163/122/94 68/125/94
f 128/126/95 162/124/95 110/127/95
f 129/128/96 163/122/96 161/118/96
f 128/126/97 158/112/97 160/120/97
f 159/114/98 129/128/98 161/118/98
f 156/113/99 179/129/99 126/130/99
f 157/111/100 180/131/100 159/114/100
f 154/109/101 126/130/101 124/132/101
f 155/107/102 127/133/102 157/111/102
f 152/105/103 124/132/103 122/134/103
f 153/103/104 125/135/104 155/107/104
f 150/97/105 122/134/105 120/136/105
f 151/99/106 123/137/106 153/103/106
f 148/98/107 120/136/107 118/138/107
f 149/96/108 121/139/108 151/99/108
f 146/88/109 118/138/109 116/140/109
f 147/90/110 119/141/110 149/96/110
f 164/89/111 116/140/111 114/142/111
f 165/92/112 117/143/112 147/90/112
f 114/142/113 177/144/113 164/89/113
f 177/144/114 115/145/114 165/92/114
f 162/124/115 112/146/115 110/127/115
f 163/122/116 113/147/116 68/125/116
f 112/146/117 178/148/117 183/149/117
f 178/148/118 113/147/118 184/150/118
f 181/151/119 178/148/119 177/144/119
f 182/152/120 178/148/120 184/150/120
f 135/153/121 176/71/121 174/67/121
f 176/71/122 136/154/122 175/70/122
f 133/155/123 174/67/123 172/72/123
f 175/70/124 134/156/124 173/74/124
f 133/155/125 170/80/125 131/157/125
f 134/156/126 171/81/126 173/74/126
f 166/158/127 185/159/127 168/84/127
f 186/160/128 167/161/128 169/85/128
f 131/157/129 168/84/129 185/159/129
f 169/85/130 132/162/130 186/160/130
f 190/163/131 187/164/131 144/165/131
f 190/163/132 188/166/132 189/167/132
f 187/164/133 69/168/133 185/159/133
f 188/166/134 69/168/134 189/167/134
f 131/157/135 69/168/135 130/169/135
f 132/162/135 69/168/135 186/160/135
f 142/170/136 191/171/136 144/165/136
f 192/172/137 143/173/137 145/174/137
f 140/175/138 193/176/138 142/170/138
f 194/177/139 141/178/139 143/173/139
f 197/179/140 140/175/140 139/180/140
f 198/181/141 141/178/141 196/182/141
f 71/183/142 139/180/142 138/184/142
f 71/183/143 139/180/143 198/181/143
f 144/165/144 70/185/144 190/163/144
f 145/174/145 70/185/145 192/172/145
f 191/171/146 208/186/146 70/185/146
f 192/172/147 208/186/147 207/187/147
f 71/183/148 200/188/148 197/179/148
f 201/189/149 71/183/149 198/181/149
f 197/179/150 202/190/150 195/191/150
f 203/192/151 198/181/151 196/182/151
f 202/190/152 193/176/152 195/191/152
f 203/192/153 194/177/153 205/193/153
f 193/176/154 206/194/154 191/171/154
f 207/187/155 194/177/155 192/172/155
f 204/195/156 200/188/156 199/196/156
f 205/193/157 201/189/157 203/192/157
f 199/196/158 206/194/158 204/195/158
f 207/187/159 199/196/159 205/193/159
f 139/180/160 164/89/160 177/144/160
f 165/92/161 139/180/161 177/144/161
f 140/175/162 211/197/162 164/89/162
f 212/198/163 141/178/163 165/92/163
f 144/165/164 211/197/164 142/170/164
f 145/174/165 212/198/165 214/199/165
f 187/164/166 213/200/166 144/165/166
f 188/166/167 214/199/167 167/161/167
f 209/201/168 166/158/168 81/83/168
f 210/202/169 167/161/169 214/199/169
f 215/203/170 213/200/170 209/201/170
f 216/204/171 214/199/171 212/198/171
f 79/87/172 211/197/172 215/203/172
f 212/198/173 80/91/173 216/204/173
f 130/169/174 222/205/174 131/157/174
f 130/169/175 223/206/175 72/207/175
f 133/155/176 222/205/176 220/208/176
f 223/206/177 134/156/177 221/209/177
f 135/153/178 220/208/178 218/210/178
f 221/209/179 136/154/179 219/211/179
f 137/212/135 218/210/135 217/213/135
f 219/211/135 137/212/135 217/213/135
f 218/210/180 231/214/180 217/213/180
f 219/211/181 231/214/181 230/215/181
f 218/210/182 227/216/182 229/217/182
f 228/218/183 219/211/183 230/215/183
f 220/208/142 225/219/142 227/216/142
f 226/220/184 221/209/184 228/218/184
f 72/207/185 225/219/185 222/205/185
f 72/207/186 226/220/186 224/221/186
f 224/221/187 229/217/187 225/219/187
f 230/215/188 224/221/188 226/220/188
f 225/219/189 229/217/189 227/216/189
f 228/218/190 230/215/190 226/220/190
f 183/149/191 234/222/191 232/223/191
f 235/224/192 184/150/192 233/225/192
f 112/146/193 232/223/193 254/226/193
f 233/225/194 113/147/194 255/227/194
f 112/146/195 256/228/195 110/127/195
f 113/147/196 257/229/196 255/227/196
f 114/142/197 234/222/197 181/151/197
f 115/145/198 235/224/198 253/230/198
f 114/142/199 250/231/199 252/232/199
f 251/233/200 115/145/200 253/230/200
f 116/140/201 248/234/201 250/231/201
f 249/235/202 117/143/202 251/233/202
f 118/138/203 246/236/203 248/234/203
f 247/237/204 119/141/204 249/235/204
f 120/136/205 244/238/205 246/236/205
f 245/239/206 121/139/206 247/237/206
f 124/132/207 244/238/207 122/134/207
f 125/135/208 245/239/208 243/240/208
f 126/130/209 242/241/209 124/132/209
f 127/133/210 243/240/210 241/242/210
f 126/130/211 236/243/211 240/244/211
f 237/245/212 127/133/212 241/242/212
f 179/129/213 238/246/213 236/243/213
f 239/247/214 180/131/214 237/245/214
f 128/126/215 256/228/215 238/246/215
f 257/229/216 129/128/216 239/247/216
f 256/228/217 276/248/217 238/246/217
f 257/229/218 277/249/218 259/250/218
f 236/243/219 276/248/219 278/251/219
f 277/249/220 237/245/220 279/252/220
f 236/243/221 274/253/221 240/244/221
f 237/245/222 275/254/222 279/252/222
f 240/244/223 272/255/223 242/241/223
f 241/242/224 273/256/224 275/254/224
f 244/238/225 272/255/225 270/257/225
f 273/256/226 245/239/226 271/258/226
f 244/238/227 268/259/227 246/236/227
f 245/239/228 269/260/228 271/258/228
f 248/234/229 268/259/229 266/261/229
f 269/260/230 249/235/230 267/262/230
f 248/234/231 264/263/231 250/231/231
f 249/235/232 265/264/232 267/262/232
f 250/231/233 262/265/233 252/232/233
f 251/233/234 263/266/234 265/264/234
f 234/222/235 262/265/235 280/267/235
f 263/266/236 235/224/236 281/268/236
f 256/228/237 260/269/237 258/270/237
f 261/271/238 257/229/238 259/250/238
f 254/226/239 282/272/239 260/269/239
f 283/273/240 255/227/240 261/271/240
f 232/223/241 280/267/241 282/272/241
f 281/268/242 233/225/242 283/273/242
f 67/123/243 284/274/243 73/275/243
f 285/276/244 67/123/244 73/275/244
f 108/119/245 286/277/245 284/274/245
f 287/278/246 109/121/246 285/276/246
f 104/116/247 286/277/247 106/115/247
f 105/279/248 287/278/248 289/280/248
f 102/108/249 288/281/249 104/116/249
f 103/110/250 289/280/250 291/282/250
f 100/104/251 290/283/251 102/108/251
f 101/106/252 291/282/252 293/284/252
f 100/104/253 294/285/253 292/286/253
f 295/287/254 101/106/254 293/284/254
f 96/101/255 294/285/255 98/100/255
f 97/288/256 295/287/256 297/289/256
f 96/101/257 298/290/257 296/291/257
f 299/292/258 97/288/258 297/289/258
f 94/93/259 300/293/259 298/290/259
f 301/294/260 95/95/260 299/292/260
f 309/295/261 338/296/261 308/297/261
f 309/298/262 339/299/262 329/300/262
f 308/297/263 336/301/263 307/302/263
f 308/303/264 337/304/264 339/299/264
f 307/302/265 340/305/265 306/306/265
f 307/307/266 341/308/266 337/304/266
f 89/69/267 306/306/267 340/305/267
f 306/306/268 90/75/268 341/308/268
f 87/73/269 340/305/269 334/309/269
f 341/308/270 88/78/270 335/310/270
f 85/76/271 334/309/271 330/311/271
f 335/310/272 86/77/272 331/312/272
f 83/79/273 330/311/273 332/313/273
f 331/312/274 84/82/274 333/314/274
f 330/311/275 338/296/275 332/313/275
f 339/299/276 331/312/276 333/314/276
f 334/309/277 336/301/277 330/311/277
f 335/310/278 337/304/278 341/308/278
f 332/313/279 328/315/279 326/316/279
f 333/314/280 329/300/280 339/299/280
f 81/83/281 332/313/281 326/316/281
f 333/314/282 82/86/282 327/317/282
f 342/318/283 215/203/283 209/201/283
f 343/319/284 216/204/284 345/320/284
f 326/316/285 209/201/285 81/83/285
f 327/317/286 210/202/286 343/319/286
f 215/203/287 346/321/287 79/87/287
f 216/204/288 347/322/288 345/320/288
f 346/321/289 92/94/289 79/87/289
f 347/322/290 93/323/290 301/294/290
f 324/324/291 304/325/291 77/326/291
f 325/327/292 304/328/292 353/329/292
f 352/330/293 78/331/293 304/325/293
f 353/329/294 78/332/294 351/333/294
f 78/331/295 348/334/295 305/335/295
f 349/336/296 78/332/296 305/337/296
f 305/335/297 328/315/297 309/295/297
f 329/300/298 305/337/298 309/298/298
f 328/315/299 342/318/299 326/316/299
f 329/300/300 343/319/300 349/336/300
f 296/291/301 318/338/301 310/339/301
f 319/340/302 297/289/302 311/341/302
f 316/342/303 77/326/303 76/343/303
f 317/344/304 77/345/304 325/327/304
f 358/346/305 303/347/305 302/348/305
f 359/349/306 303/350/306 357/351/306
f 303/347/307 354/352/307 75/353/307
f 355/354/308 303/350/308 75/355/308
f 75/353/309 316/342/309 76/343/309
f 317/344/310 75/355/310 76/356/310
f 292/357/311 362/358/311 364/359/311
f 363/360/312 293/361/312 365/362/312
f 364/359/313 368/363/313 366/364/313
f 369/365/314 365/362/314 367/366/314
f 366/364/315 370/367/315 372/368/315
f 371/369/316 367/366/316 373/370/316
f 372/368/317 376/371/317 374/372/317
f 377/373/318 373/370/318 375/374/318
f 378/375/319 376/371/319 314/376/319
f 379/377/320 377/373/320 375/374/320
f 316/342/321 374/372/321 378/375/321
f 375/374/322 317/344/322 379/377/322
f 354/352/323 372/368/323 374/372/323
f 373/370/324 355/354/324 375/374/324
f 356/378/325 366/364/325 372/368/325
f 367/366/326 357/351/326 373/370/326
f 358/346/327 364/359/327 366/364/327
f 365/362/328 359/349/328 367/366/328
f 292/357/329 360/379/329 290/380/329
f 293/361/330 361/381/330 365/362/330
f 360/379/331 302/348/331 74/382/331
f 361/381/332 302/383/332 359/349/332
f 284/384/333 288/385/333 290/380/333
f 289/386/334 285/387/334 291/388/334
f 284/384/335 360/379/335 74/382/335
f 361/381/336 285/387/336 74/389/336
f 73/390/337 284/384/337 74/382/337
f 74/389/338 285/387/338 73/391/338
f 296/291/339 362/358/339 294/285/339
f 297/289/340 363/360/340 311/341/340
f 310/339/341 368/363/341 362/358/341
f 369/365/342 311/341/342 363/360/342
f 312/392/343 370/367/343 368/363/343
f 371/369/344 313/393/344 369/365/344
f 376/371/345 382/394/345 314/376/345
f 377/373/346 383/395/346 371/369/346
f 350/396/347 384/397/347 348/334/347
f 351/333/348 385/398/348 387/399/348
f 384/397/349 320/400/349 318/338/349
f 385/398/350 321/401/350 387/399/350
f 298/290/351 384/397/351 318/338/351
f 385/398/352 299/292/352 319/340/352
f 300/293/353 342/318/353 384/397/353
f 343/319/354 301/294/354 385/398/354
f 342/318/355 348/334/355 384/397/355
f 385/398/356 349/336/356 343/319/356
f 300/293/357 346/321/357 344/402/357
f 345/320/358 347/322/358 301/294/358
f 322/403/359 378/375/359 314/376/359
f 323/404/360 379/377/360 381/405/360
f 378/375/361 324/324/361 316/342/361
f 379/377/362 325/327/362 381/405/362
f 386/406/363 322/403/363 320/400/363
f 387/399/364 323/404/364 381/405/364
f 352/330/365 386/406/365 350/396/365
f 353/329/366 387/399/366 381/405/366
f 324/324/367 380/407/367 352/330/367
f 353/329/368 381/405/368 325/327/368
f 388/408/369 402/409/369 400/410/369
f 389/411/370 403/412/370 415/413/370
f 400/410/371 404/414/371 398/415/371
f 405/416/372 401/417/372 399/418/372
f 404/414/373 396/419/373 398/415/373
f 405/416/374 397/420/374 407/421/374
f 406/422/375 394/423/375 396/419/375
f 407/421/376 395/424/376 409/425/376
f 408/426/377 392/427/377 394/423/377
f 409/425/378 393/428/378 411/429/378
f 392/427/379 412/430/379 390/431/379
f 413/432/380 393/428/380 391/433/380
f 410/434/381 418/435/381 412/430/381
f 419/436/382 411/429/382 413/432/382
f 408/426/383 420/437/383 410/434/383
f 421/438/384 409/425/384 411/429/384
f 424/439/385 408/426/385 406/422/385
f 425/440/386 409/425/386 423/441/386
f 426/442/387 406/422/387 404/414/387
f 427/443/388 407/421/388 425/440/388
f 428/444/389 404/414/389 402/409/389
f 429/445/390 405/416/390 427/443/390
f 402/409/391 416/446/391 428/444/391
f 417/447/392 403/412/392 429/445/392
f 320/400/393 442/448/393 318/338/393
f 321/401/394 443/449/394 445/450/394
f 390/431/395 444/451/395 320/452/395
f 391/433/396 445/453/396 413/432/396
f 310/339/397 442/448/397 312/392/397
f 443/449/398 311/341/398 313/393/398
f 382/454/399 414/455/399 388/408/399
f 415/413/400 383/456/400 389/411/400
f 412/430/401 440/457/401 444/451/401
f 441/458/402 413/432/402 445/453/402
f 446/459/403 440/457/403 438/460/403
f 447/461/404 441/458/404 445/453/404
f 434/462/135 438/460/135 436/463/135
f 439/464/135 435/465/135 437/466/135
f 448/467/405 434/462/405 432/468/405
f 449/469/406 435/465/406 447/461/406
f 448/467/407 450/470/407 430/471/407
f 449/469/408 451/472/408 433/473/408
f 430/471/409 416/446/409 414/455/409
f 431/474/410 417/447/410 451/472/410
f 312/392/411 430/475/411 382/394/411
f 431/476/412 313/393/412 383/395/412
f 442/448/413 448/477/413 312/392/413
f 443/449/414 449/478/414 447/479/414
f 442/448/415 444/480/415 446/481/415
f 447/479/416 445/450/416 443/449/416
f 416/446/417 452/482/417 476/483/417
f 453/484/418 417/447/418 477/485/418
f 432/468/419 452/482/419 450/470/419
f 433/473/420 453/484/420 463/486/420
f 432/468/421 460/487/421 462/488/421
f 461/489/422 433/473/422 463/486/422
f 436/463/423 460/487/423 434/462/423
f 437/466/424 461/489/424 459/490/424
f 438/460/425 458/491/425 436/463/425
f 439/464/426 459/490/426 457/492/426
f 438/460/427 454/493/427 456/494/427
f 455/495/428 439/464/428 457/492/428
f 440/457/429 474/496/429 454/493/429
f 475/497/429 441/458/429 455/495/429
f 428/444/430 476/483/430 464/498/430
f 477/485/431 429/445/431 465/499/431
f 426/442/432 464/498/432 466/500/432
f 465/499/433 427/443/433 467/501/433
f 424/439/434 466/500/434 468/502/434
f 467/501/435 425/440/435 469/503/435
f 424/439/436 470/504/436 422/505/436
f 425/440/437 471/506/437 469/503/437
f 422/505/438 472/507/438 420/437/438
f 423/441/439 473/508/439 471/506/439
f 420/437/440 474/496/440 418/435/440
f 421/438/441 475/497/441 473/508/441
f 456/494/442 478/509/442 458/491/442
f 457/492/443 479/510/443 481/511/443
f 480/512/444 484/513/444 478/509/444
f 481/511/445 485/514/445 483/515/445
f 484/513/446 488/516/446 486/517/446
f 489/518/447 485/514/447 487/519/447
f 488/516/448 492/520/448 486/517/448
f 489/518/449 493/521/449 491/522/449
f 464/498/450 486/517/450 492/520/450
f 487/519/451 465/499/451 493/521/451
f 484/513/452 476/483/452 452/482/452
f 485/514/453 477/485/453 487/519/453
f 462/488/454 484/513/454 452/482/454
f 463/486/455 485/514/455 479/510/455
f 458/491/135 462/488/135 460/487/135
f 463/486/135 459/490/135 461/489/135
f 474/496/456 456/494/456 454/493/456
f 475/497/457 457/492/457 481/511/457
f 472/507/458 480/512/458 474/496/458
f 481/511/459 473/508/459 475/497/459
f 488/516/460 472/507/460 470/504/460
f 489/518/461 473/508/461 483/515/461
f 490/523/462 470/504/462 468/502/462
f 491/522/463 471/506/463 489/518/463
f 466/500/464 490/523/464 468/502/464
f 491/522/465 467/501/465 469/503/465
f 464/498/466 492/520/466 466/500/466
f 467/501/467 493/521/467 465/499/467
f 392/427/468 504/524/468 502/525/468
f 505/526/469 393/428/469 503/527/469
f 394/423/470 502/525/470 500/528/470
f 503/527/471 395/424/471 501/529/471
f 394/423/472 498/530/472 396/419/472
f 395/424/473 499/531/473 501/529/473
f 396/419/474 496/532/474 398/533/474
f 397/420/475 497/534/475 499/531/475
f 398/533/476 494/535/476 400/536/476
f 399/537/477 495/538/477 497/534/477
f 400/536/478 506/539/478 388/540/478
f 401/541/479 507/542/479 495/538/479
f 502/525/480 506/539/480 494/535/480
f 503/527/481 507/542/481 505/526/481
f 494/535/482 500/528/482 502/525/482
f 501/529/483 495/538/483 503/527/483
f 496/532/484 498/530/484 500/528/484
f 501/529/485 499/531/485 497/534/485
f 382/543/486 506/539/486 314/544/486
f 383/545/487 507/542/487 389/546/487
f 314/544/488 504/524/488 322/547/488
f 505/526/489 315/548/489 323/549/489
f 320/452/490 504/524/490 390/431/490
f 505/526/491 321/550/491 391/433/491
f 47/1/492 1/13/492 3/2/492
f 4/4/493 2/16/493 48/5/493
f 45/3/494 3/2/494 5/7/494
f 6/9/495 4/4/495 46/6/495
f 3/2/496 9/14/496 7/11/496
f 8/12/497 10/15/497 4/4/497
f 1/13/498 11/17/498 9/14/498
f 10/15/499 12/20/499 2/16/499
f 11/17/500 13/26/500 15/18/500
f 16/19/501 14/27/501 12/20/501
f 9/14/502 15/18/502 17/21/502
f 18/22/503 16/19/503 10/15/503
f 21/23/504 19/32/504 17/21/504
f 22/24/505 16/19/505 18/22/505
f 13/26/506 23/28/506 21/23/506
f 22/24/507 24/31/507 14/27/507
f 23/28/508 25/39/508 27/29/508
f 28/30/509 26/54/509 24/31/509
f 27/29/510 29/35/510 19/32/510
f 28/30/511 22/24/511 20/25/511
f 33/34/512 31/45/512 29/35/512
f 34/36/513 28/30/513 30/33/513
f 35/38/514 33/34/514 27/29/514
f 36/40/515 26/54/515 28/30/515
f 37/41/516 39/44/516 33/34/516
f 38/42/517 36/40/517 34/36/517
f 39/44/518 41/47/518 31/45/518
f 40/43/519 34/36/519 32/37/519
f 45/3/520 43/8/520 41/47/520
f 46/6/521 40/43/521 42/46/521
f 47/1/522 45/3/522 39/44/522
f 48/5/523 38/42/523 40/43/523
f 37/41/524 51/51/524 49/48/524
f 38/42/525 48/5/525 50/49/525
f 35/38/526 53/53/526 51/51/526
f 36/40/527 38/42/527 52/50/527
f 25/39/528 55/56/528 53/53/528
f 26/54/529 36/40/529 54/52/529
f 23/28/530 57/59/530 55/56/530
f 24/31/531 26/54/531 56/55/531
f 23/28/532 13/26/532 59/58/532
f 60/60/533 14/27/533 24/31/533
f 13/26/534 11/17/534 63/61/534
f 64/62/535 12/20/535 14/27/535
f 11/17/536 1/13/536 65/63/536
f 66/64/537 2/16/537 12/20/537
f 1/13/538 47/1/538 49/48/538
f 50/49/539 48/5/539 2/16/539
f 174/67/540 176/71/540 91/68/540
f 175/70/541 90/75/541 91/68/541
f 172/72/542 174/67/542 89/69/542
f 173/74/543 88/78/543 90/75/543
f 85/76/544 170/80/544 172/72/544
f 173/74/545 171/81/545 86/77/545
f 83/79/546 168/84/546 170/80/546
f 171/81/547 169/85/547 84/82/547
f 81/83/548 166/158/548 168/84/548
f 169/85/549 167/161/549 82/86/549
f 79/87/550 92/94/550 146/88/550
f 147/90/551 93/323/551 80/91/551
f 94/93/552 148/98/552 146/88/552
f 95/95/553 93/323/553 147/90/553
f 94/93/554 96/101/554 150/97/554
f 151/99/555 97/288/555 95/95/555
f 98/100/556 152/105/556 150/97/556
f 99/102/557 97/288/557 151/99/557
f 100/104/558 154/109/558 152/105/558
f 101/106/559 99/102/559 153/103/559
f 102/108/560 156/113/560 154/109/560
f 103/110/561 101/106/561 155/107/561
f 102/108/562 104/116/562 158/112/562
f 159/114/563 105/279/563 103/110/563
f 106/115/564 160/120/564 158/112/564
f 107/117/565 105/279/565 159/114/565
f 108/119/566 162/124/566 160/120/566
f 109/121/567 107/117/567 161/118/567
f 67/123/568 68/125/568 162/124/568
f 67/123/569 109/121/569 163/122/569
f 128/126/570 160/120/570 162/124/570
f 129/128/571 111/551/571 163/122/571
f 128/126/572 179/129/572 158/112/572
f 159/114/573 180/131/573 129/128/573
f 156/113/574 158/112/574 179/129/574
f 157/111/575 127/133/575 180/131/575
f 154/109/576 156/113/576 126/130/576
f 155/107/577 125/135/577 127/133/577
f 152/105/578 154/109/578 124/132/578
f 153/103/579 123/137/579 125/135/579
f 150/97/580 152/105/580 122/134/580
f 151/99/581 121/139/581 123/137/581
f 148/98/582 150/97/582 120/136/582
f 149/96/583 119/141/583 121/139/583
f 146/88/584 148/98/584 118/138/584
f 147/90/585 117/143/585 119/141/585
f 164/89/586 146/88/586 116/140/586
f 165/92/587 115/145/587 117/143/587
f 114/142/588 181/151/588 177/144/588
f 177/144/589 182/152/589 115/145/589
f 162/124/590 68/125/590 112/146/590
f 163/122/591 111/551/591 113/147/591
f 112/146/592 68/125/592 178/148/592
f 178/148/593 68/125/593 113/147/593
f 181/151/594 183/149/594 178/148/594
f 182/152/595 177/144/595 178/148/595
f 135/153/596 137/212/596 176/71/596
f 176/71/597 137/212/597 136/154/597
f 133/155/598 135/153/598 174/67/598
f 175/70/599 136/154/599 134/156/599
f 133/155/600 172/72/600 170/80/600
f 134/156/601 132/162/601 171/81/601
f 166/158/602 187/164/602 185/159/602
f 186/160/603 188/166/603 167/161/603
f 131/157/604 170/80/604 168/84/604
f 169/85/605 171/81/605 132/162/605
f 190/163/132 189/167/132 187/164/132
f 190/163/606 145/174/606 188/166/606
f 187/164/134 189/167/134 69/168/134
f 188/166/607 186/160/607 69/168/607
f 131/157/135 185/159/135 69/168/135
f 132/162/135 130/169/135 69/168/135
f 142/170/608 193/176/608 191/171/608
f 192/172/609 194/177/609 143/173/609
f 140/175/610 195/191/610 193/176/610
f 194/177/611 196/182/611 141/178/611
f 197/179/612 195/191/612 140/175/612
f 198/181/613 139/180/613 141/178/613
f 71/183/614 197/179/614 139/180/614
f 144/165/615 191/171/615 70/185/615
f 145/174/616 190/163/616 70/185/616
f 191/171/146 206/194/146 208/186/146
f 192/172/147 70/185/147 208/186/147
f 71/183/617 199/196/617 200/188/617
f 201/189/618 199/196/618 71/183/618
f 197/179/619 200/188/619 202/190/619
f 203/192/620 201/189/620 198/181/620
f 202/190/621 204/195/621 193/176/621
f 203/192/622 196/182/622 194/177/622
f 193/176/623 204/195/623 206/194/623
f 207/187/624 205/193/624 194/177/624
f 204/195/625 202/190/625 200/188/625
f 205/193/626 199/196/626 201/189/626
f 199/196/627 208/186/627 206/194/627
f 207/187/628 208/186/628 199/196/628
f 139/180/629 140/175/629 164/89/629
f 165/92/630 141/178/630 139/180/630
f 140/175/631 142/170/631 211/197/631
f 212/198/632 143/173/632 141/178/632
f 144/165/633 213/200/633 211/197/633
f 145/174/634 143/173/634 212/198/634
f 187/164/635 166/158/635 213/200/635
f 188/166/636 145/174/636 214/199/636
f 209/201/637 213/200/637 166/158/637
f 210/202/638 82/86/638 167/161/638
f 215/203/639 211/197/639 213/200/639
f 216/204/640 210/202/640 214/199/640
f 79/87/641 164/89/641 211/197/641
f 212/198/642 165/92/642 80/91/642
f 130/169/643 72/207/643 222/205/643
f 130/169/644 132/162/644 223/206/644
f 133/155/645 131/157/645 222/205/645
f 223/206/646 132/162/646 134/156/646
f 135/153/647 133/155/647 220/208/647
f 221/209/648 134/156/648 136/154/648
f 137/212/649 135/153/649 218/210/649
f 219/211/650 136/154/650 137/212/650
f 218/210/180 229/217/180 231/214/180
f 219/211/181 217/213/181 231/214/181
f 218/210/651 220/208/651 227/216/651
f 228/218/652 221/209/652 219/211/652
f 220/208/142 222/205/142 225/219/142
f 226/220/184 223/206/184 221/209/184
f 72/207/653 224/221/653 225/219/653
f 72/207/186 223/206/186 226/220/186
f 224/221/654 231/214/654 229/217/654
f 230/215/655 231/214/655 224/221/655
f 183/149/656 181/151/656 234/222/656
f 235/224/657 182/152/657 184/150/657
f 112/146/658 183/149/658 232/223/658
f 233/225/659 184/150/659 113/147/659
f 112/146/660 254/226/660 256/228/660
f 113/147/661 111/551/661 257/229/661
f 114/142/662 252/232/662 234/222/662
f 115/145/663 182/152/663 235/224/663
f 114/142/664 116/140/664 250/231/664
f 251/233/665 117/143/665 115/145/665
f 116/140/666 118/138/666 248/234/666
f 249/235/667 119/141/667 117/143/667
f 118/138/668 120/136/668 246/236/668
f 247/237/669 121/139/669 119/141/669
f 120/136/670 122/134/670 244/238/670
f 245/239/671 123/137/671 121/139/671
f 124/132/672 242/241/672 244/238/672
f 125/135/673 123/137/673 245/239/673
f 126/130/674 240/244/674 242/241/674
f 127/133/675 125/135/675 243/240/675
f 126/130/676 179/129/676 236/243/676
f 237/245/677 180/131/677 127/133/677
f 179/129/678 128/126/678 238/246/678
f 239/247/679 129/128/679 180/131/679
f 128/126/680 110/127/680 256/228/680
f 257/229/681 111/551/681 129/128/681
f 256/228/682 258/270/682 276/248/682
f 257/229/683 239/247/683 277/249/683
f 236/243/684 238/246/684 276/248/684
f 277/249/685 239/247/685 237/245/685
f 236/243/686 278/251/686 274/253/686
f 237/245/687 241/242/687 275/254/687
f 240/244/688 274/253/688 272/255/688
f 241/242/689 243/240/689 273/256/689
f 244/238/690 242/241/690 272/255/690
f 273/256/691 243/240/691 245/239/691
f 244/238/692 270/257/692 268/259/692
f 245/239/693 247/237/693 269/260/693
f 248/234/694 246/236/694 268/259/694
f 269/260/695 247/237/695 249/235/695
f 248/234/696 266/261/696 264/263/696
f 249/235/697 251/233/697 265/264/697
f 250/231/698 264/263/698 262/265/698
f 251/233/699 253/230/699 263/266/699
f 234/222/235 252/232/235 262/265/235
f 263/266/236 253/230/236 235/224/236
f 256/228/700 254/226/700 260/269/700
f 261/271/701 255/227/701 257/229/701
f 254/226/702 232/223/702 282/272/702
f 283/273/703 233/225/703 255/227/703
f 232/223/704 234/222/704 280/267/704
f 281/268/705 235/224/705 233/225/705
f 67/123/706 108/119/706 284/274/706
f 285/276/707 109/121/707 67/123/707
f 108/119/708 106/115/708 286/277/708
f 287/278/709 107/117/709 109/121/709
f 104/116/710 288/281/710 286/277/710
f 105/279/711 107/117/711 287/278/711
f 102/108/712 290/283/712 288/281/712
f 103/110/713 105/279/713 289/280/713
f 100/104/714 292/286/714 290/283/714
f 101/106/715 103/110/715 291/282/715
f 100/104/716 98/100/716 294/285/716
f 295/287/717 99/102/717 101/106/717
f 96/101/718 296/291/718 294/285/718
f 97/288/719 99/102/719 295/287/719
f 96/101/720 94/93/720 298/290/720
f 299/292/721 95/95/721 97/288/721
f 94/93/722 92/94/722 300/293/722
f 301/294/723 93/323/723 95/95/723
f 309/295/724 328/315/724 338/296/724
f 309/298/725 308/303/725 339/299/725
f 308/297/726 338/296/726 336/301/726
f 308/303/727 307/307/727 337/304/727
f 307/302/728 336/301/728 340/305/728
f 307/307/729 306/306/729 341/308/729
f 89/69/730 91/68/730 306/306/730
f 306/306/731 91/68/731 90/75/731
f 87/73/732 89/69/732 340/305/732
f 341/308/733 90/75/733 88/78/733
f 85/76/734 87/73/734 334/309/734
f 335/310/735 88/78/735 86/77/735
f 83/79/736 85/76/736 330/311/736
f 331/312/737 86/77/737 84/82/737
f 330/311/738 336/301/738 338/296/738
f 339/299/739 337/304/739 331/312/739
f 334/309/740 340/305/740 336/301/740
f 335/310/741 331/312/741 337/304/741
f 332/313/742 338/296/742 328/315/742
f 333/314/743 327/317/743 329/300/743
f 81/83/744 83/79/744 332/313/744
f 333/314/745 84/82/745 82/86/745
f 342/318/746 344/402/746 215/203/746
f 343/319/747 210/202/747 216/204/747
f 326/316/748 342/318/748 209/201/748
f 327/317/749 82/86/749 210/202/749
f 215/203/750 344/402/750 346/321/750
f 216/204/751 80/91/751 347/322/751
f 346/321/752 300/293/752 92/94/752
f 347/322/753 80/91/753 93/323/753
f 324/324/754 352/330/754 304/325/754
f 325/327/755 77/345/755 304/328/755
f 352/330/756 350/396/756 78/331/756
f 353/329/757 304/328/757 78/332/757
f 78/331/758 350/396/758 348/334/758
f 349/336/759 351/333/759 78/332/759
f 305/335/760 348/334/760 328/315/760
f 329/300/761 349/336/761 305/337/761
f 328/315/762 348/334/762 342/318/762
f 329/300/763 327/317/763 343/319/763
f 296/291/764 298/290/764 318/338/764
f 319/340/765 299/292/765 297/289/765
f 316/342/766 324/324/766 77/326/766
f 317/344/767 76/356/767 77/345/767
f 358/346/768 356/378/768 303/347/768
f 359/349/769 302/383/769 303/350/769
f 303/347/770 356/378/770 354/352/770
f 355/354/771 357/351/771 303/350/771
f 75/353/772 354/352/772 316/342/772
f 317/344/773 355/354/773 75/355/773
f 292/357/774 294/285/774 362/358/774
f 363/360/775 295/287/775 293/361/775
f 364/359/776 362/358/776 368/363/776
f 369/365/777 363/360/777 365/362/777
f 366/364/778 368/363/778 370/367/778
f 371/369/779 369/365/779 367/366/779
f 372/368/780 370/367/780 376/371/780
f 377/373/781 371/369/781 373/370/781
f 378/375/782 374/372/782 376/371/782
f 379/377/783 315/552/783 377/373/783
f 316/342/784 354/352/784 374/372/784
f 375/374/785 355/354/785 317/344/785
f 354/352/786 356/378/786 372/368/786
f 373/370/787 357/351/787 355/354/787
f 356/378/788 358/346/788 366/364/788
f 367/366/789 359/349/789 357/351/789
f 358/346/790 360/379/790 364/359/790
f 365/362/791 361/381/791 359/349/791
f 292/357/792 364/359/792 360/379/792
f 293/361/793 291/388/793 361/381/793
f 360/379/794 358/346/794 302/348/794
f 361/381/795 74/389/795 302/383/795
f 284/384/796 286/553/796 288/385/796
f 289/386/797 287/554/797 285/387/797
f 284/384/798 290/380/798 360/379/798
f 361/381/799 291/388/799 285/387/799
f 296/291/800 310/339/800 362/358/800
f 297/289/801 295/287/801 363/360/801
f 310/339/802 312/392/802 368/363/802
f 369/365/803 313/393/803 311/341/803
f 312/392/804 382/394/804 370/367/804
f 371/369/805 383/395/805 313/393/805
f 376/371/806 370/367/806 382/394/806
f 377/373/807 315/552/807 383/395/807
f 350/396/808 386/406/808 384/397/808
f 351/333/809 349/336/809 385/398/809
f 384/397/810 386/406/810 320/400/810
f 385/398/811 319/340/811 321/401/811
f 298/290/812 300/293/812 384/397/812
f 385/398/813 301/294/813 299/292/813
f 300/293/814 344/402/814 342/318/814
f 343/319/815 345/320/815 301/294/815
f 322/403/816 380/407/816 378/375/816
f 323/404/817 315/552/817 379/377/817
f 378/375/818 380/407/818 324/324/818
f 379/377/819 317/344/819 325/327/819
f 386/406/820 380/407/820 322/403/820
f 387/399/821 321/401/821 323/404/821
f 352/330/822 380/407/822 386/406/822
f 353/329/823 351/333/823 387/399/823
f 388/408/824 414/455/824 402/409/824
f 389/411/825 401/417/825 403/412/825
f 400/410/826 402/409/826 404/414/826
f 405/416/827 403/412/827 401/417/827
f 404/414/828 406/422/828 396/419/828
f 405/416/829 399/418/829 397/420/829
f 406/422/830 408/426/830 394/423/830
f 407/421/831 397/420/831 395/424/831
f 408/426/832 410/434/832 392/427/832
f 409/425/833 395/424/833 393/428/833
f 392/427/834 410/434/834 412/430/834
f 413/432/835 411/429/835 393/428/835
f 410/434/836 420/437/836 418/435/836
f 419/436/837 421/438/837 411/429/837
f 408/426/838 422/505/838 420/437/838
f 421/438/839 423/441/839 409/425/839
f 424/439/840 422/505/840 408/426/840
f 425/440/841 407/421/841 409/425/841
f 426/442/842 424/439/842 406/422/842
f 427/443/843 405/416/843 407/421/843
f 428/444/844 426/442/844 404/414/844
f 429/445/845 403/412/845 405/416/845
f 402/409/846 414/455/846 416/446/846
f 417/447/847 415/413/847 403/412/847
f 320/400/848 444/480/848 442/448/848
f 321/401/849 319/340/849 443/449/849
f 390/431/850 412/430/850 444/451/850
f 391/433/851 321/550/851 445/453/851
f 310/339/852 318/338/852 442/448/852
f 443/449/853 319/340/853 311/341/853
f 382/454/854 430/471/854 414/455/854
f 415/413/855 431/474/855 383/456/855
f 412/430/856 418/435/856 440/457/856
f 441/458/857 419/436/857 413/432/857
f 446/459/858 444/451/858 440/457/858
f 447/461/859 439/464/859 441/458/859
f 434/462/860 446/459/860 438/460/860
f 439/464/861 447/461/861 435/465/861
f 448/467/862 446/459/862 434/462/862
f 449/469/863 433/473/863 435/465/863
f 448/467/864 432/468/864 450/470/864
f 449/469/865 431/474/865 451/472/865
f 430/471/866 450/470/866 416/446/866
f 431/474/867 415/413/867 417/447/867
f 312/392/868 448/477/868 430/475/868
f 431/476/869 449/478/869 313/393/869
f 442/448/870 446/481/870 448/477/870
f 443/449/871 313/393/871 449/478/871
f 416/446/872 450/470/872 452/482/872
f 453/484/873 451/472/873 417/447/873
f 432/468/874 462/488/874 452/482/874
f 433/473/875 451/472/875 453/484/875
f 432/468/421 434/462/421 460/487/421
f 461/489/422 435/465/422 433/473/422
f 436/463/876 458/491/876 460/487/876
f 437/466/877 435/465/877 461/489/877
f 438/460/878 456/494/878 458/491/878
f 439/464/879 437/466/879 459/490/879
f 438/460/880 440/457/880 454/493/880
f 455/495/881 441/458/881 439/464/881
f 440/457/882 418/435/882 474/496/882
f 475/497/883 419/436/883 441/458/883
f 428/444/884 416/446/884 476/483/884
f 477/485/885 417/447/885 429/445/885
f 426/442/886 428/444/886 464/498/886
f 465/499/887 429/445/887 427/443/887
f 424/439/888 426/442/888 466/500/888
f 467/501/889 427/443/889 425/440/889
f 424/439/890 468/502/890 470/504/890
f 425/440/891 423/441/891 471/506/891
f 422/505/892 470/504/892 472/507/892
f 423/441/893 421/438/893 473/508/893
f 420/437/894 472/507/894 474/496/894
f 421/438/895 419/436/895 475/497/895
f 456/494/896 480/512/896 478/509/896
f 457/492/897 459/490/897 479/510/897
f 480/512/898 482/555/898 484/513/898
f 481/511/899 479/510/899 485/514/899
f 484/513/900 482/555/900 488/516/900
f 489/518/901 483/515/901 485/514/901
f 488/516/902 490/523/902 492/520/902
f 489/518/903 487/519/903 493/521/903
f 464/498/904 476/483/904 486/517/904
f 487/519/905 477/485/905 465/499/905
f 484/513/906 486/517/906 476/483/906
f 485/514/907 453/484/907 477/485/907
f 462/488/908 478/509/908 484/513/908
f 463/486/909 453/484/909 485/514/909
f 458/491/910 478/509/910 462/488/910
f 463/486/911 479/510/911 459/490/911
f 474/496/912 480/512/912 456/494/912
f 475/497/913 455/495/913 457/492/913
f 472/507/914 482/555/914 480/512/914
f 481/511/915 483/515/915 473/508/915
f 488/516/916 482/555/916 472/507/916
f 489/518/917 471/506/917 473/508/917
f 490/523/918 488/516/918 470/504/918
f 491/522/919 469/503/919 471/506/919
f 466/500/920 492/520/920 490/523/920
f 491/522/921 493/521/921 467/501/921
f 392/427/922 390/431/922 504/524/922
f 505/526/923 391/433/923 393/428/923
f 394/423/924 392/427/924 502/525/924
f 503/527/925 393/428/925 395/424/925
f 394/423/926 500/528/926 498/530/926
f 395/424/927 397/420/927 499/531/927
f 396/419/928 498/530/928 496/532/928
f 397/420/929 399/537/929 497/534/929
f 398/533/930 496/532/930 494/535/930
f 399/537/931 401/541/931 495/538/931
f 400/536/932 494/535/932 506/539/932
f 401/541/933 389/546/933 507/542/933
f 502/525/934 504/524/934 506/539/934
f 503/527/935 495/538/935 507/542/935
f 494/535/936 496/532/936 500/528/936
f 501/529/937 497/534/937 495/538/937
f 382/543/938 388/540/938 506/539/938
f 383/545/939 315/548/939 507/542/939
f 314/544/940 506/539/940 504/524/940
f 505/526/941 507/542/941 315/548/941
f 320/452/942 322/547/942 504/524/942
f 505/526/943 323/549/943 321/550/943
o Icosphere
v 0.000000 -1.877915 0.000000
v 1.358873 -0.839840 0.987267
v -0.519033 -0.839841 1.597447
v -1.679656 -0.839833 0.000000
v -0.519033 -0.839841 -1.597447
v 1.358873 -0.839840 -0.987267
v 0.519033 0.839841 1.597447
v -1.358873 0.839840 0.987267
v -1.358873 0.839840 -0.987267
v 0.519033 0.839841 -1.597447
v 1.679656 0.839833 0.000000
v 0.000000 1.877915 0.000000
v -0.305078 -1.597456 0.938948
v 0.798720 -1.597456 0.580297
v 0.493645 -0.987290 1.519255
v 1.597444 -0.987287 0.000000
v 0.798720 -1.597456 -0.580297
v -0.987276 -1.597451 0.000000
v -1.292361 -0.987288 0.938951
v -0.305078 -1.597456 -0.938948
v -1.292361 -0.987288 -0.938951
v 0.493645 -0.987290 -1.519255
v 1.786005 0.000000 0.580299
v 1.786005 0.000000 -0.580299
v 0.000000 0.000000 1.877914
v 1.103811 0.000000 1.519264
v -1.786005 0.000000 0.580299
v -1.103811 0.000000 1.519264
v -1.103811 0.000000 -1.519264
v -1.786005 0.000000 -0.580299
v 1.103811 0.000000 -1.519264
v 0.000000 0.000000 -1.877914
v 1.292361 0.987288 0.938951
v -0.493645 0.987290 1.519255
v -1.597444 0.987287 0.000000
v -0.493645 0.987290 -1.519255
v 1.292361 0.987288 -0.938951
v 0.305078 1.597456 0.938948
v 0.987276 1.597451 0.000000
v -0.798720 1.597456 0.580297
v -0.798720 1.597456 -0.580297
v 0.305078 1.597456 -0.938948
vn 0.1024 -0.9435 0.3151
vn 0.7002 -0.6617 0.2680
vn -0.2680 -0.9435 0.1947
vn -0.2680 -0.9435 -0.1947
vn 0.1024 -0.9435 -0.3151
vn 0.9050 -0.3304 0.2680
vn 0.0247 -0.3304 0.9435
vn -0.8897 -0.3304 0.3151
vn -0.5746 -0.3304 -0.7488
vn 0.5346 -0.3304 -0.7779
vn 0.8026 -0.1256 0.5831
vn -0.3066 -0.1256 0.9435
vn -0.9921 -0.1256 -0.0000
vn -0.3066 -0.1256 -0.9435
vn 0.8026 -0.1256 -0.5831
vn 0.4089 0.6617 0.6284
vn -0.4713 0.6617 0.5831
vn -0.7002 0.6617 -0.2680
vn 0.0385 0.6617 -0.7488
vn 0.7240 0.6617 -0.1947
vn 0.2680 0.9435 -0.1947
vn 0.4911 0.7947 -0.3568
vn 0.4089 0.6617 -0.6284
vn -0.1024 0.9435 -0.3151
vn -0.1876 0.7947 -0.5773
vn -0.4713 0.6617 -0.5831
vn -0.3313 0.9435 -0.0000
vn -0.6071 0.7947 -0.0000
vn -0.7002 0.6617 0.2680
vn -0.1024 0.9435 0.3151
vn -0.1876 0.7947 0.5773
vn 0.0385 0.6617 0.7488
vn 0.2680 0.9435 0.1947
vn 0.4911 0.7947 0.3568
vn 0.7240 0.6617 0.1947
vn 0.8897 0.3304 -0.3151
vn 0.7947 0.1876 -0.5773
vn 0.5746 0.3304 -0.7488
vn -0.0247 0.3304 -0.9435
vn -0.3035 0.1876 -0.9342
vn -0.5346 0.3304 -0.7779
vn -0.9050 0.3304 -0.2680
vn -0.9822 0.1876 -0.0000
vn -0.9050 0.3304 0.2680
vn -0.5346 0.3304 0.7779
vn -0.3035 0.1876 0.9342
vn -0.0247 0.3304 0.9435
vn 0.5746 0.3304 0.7488
vn 0.7947 0.1876 0.5773
vn 0.8897 0.3304 0.3151
vn 0.3066 0.1256 -0.9435
vn 0.3035 -0.1876 -0.9342
vn 0.0247 -0.3304 -0.9435
vn -0.8026 0.1256 -0.5831
vn -0.7947 -0.1876 -0.5773
vn -0.8897 -0.3304 -0.3151
vn -0.8026 0.1256 0.5831
vn -0.7947 -0.1876 0.5773
vn -0.5746 -0.3304 0.7488
vn 0.3066 0.1256 0.9435
vn 0.3035 -0.1876 0.9342
vn 0.5346 -0.3304 0.7779
vn 0.9921 0.1256 -0.0000
vn 0.9822 -0.1876 -0.0000
vn 0.9050 -0.3304 -0.2680
vn 0.4713 -0.6617 -0.5831
vn 0.1876 -0.7947 -0.5773
vn -0.0385 -0.6617 -0.7488
vn -0.4089 -0.6617 -0.6284
vn -0.4911 -0.7947 -0.3568
vn -0.7240 -0.6617 -0.1947
vn -0.7240 -0.6617 0.1947
vn -0.4911 -0.7947 0.3568
vn -0.4089 -0.6617 0.6284
vn 0.7002 -0.6617 -0.2680
vn 0.6071 -0.7947 -0.0000
vn 0.3313 -0.9435 -0.0000
vn -0.0385 -0.6617 0.7488
vn 0.1876 -0.7947 0.5773
vn 0.4713 -0.6617 0.5831
vt 0.181819 0.000000
vt 0.227273 0.078731
vt 0.136365 0.078731
vt 0.272728 0.157461
vt 0.318182 0.078731
vt 0.363637 0.157461
vt 0.909091 0.000000
vt 0.954545 0.078731
vt 0.863636 0.078731
vt 0.727273 0.000000
vt 0.772727 0.078731
vt 0.681818 0.078731
vt 0.545455 0.000000
vt 0.590909 0.078731
vt 0.500000 0.078731
vt 0.318182 0.236191
vt 0.090910 0.157461
vt 0.181819 0.157461
vt 0.136365 0.236191
vt 0.818182 0.157461
vt 0.909091 0.157461
vt 0.863636 0.236191
vt 0.636364 0.157461
vt 0.727273 0.157461
vt 0.681818 0.236191
vt 0.454546 0.157461
vt 0.545455 0.157461
vt 0.500000 0.236191
vt 0.227273 0.236191
vt 0.045455 0.236191
vt 0.772727 0.236191
vt 0.590909 0.236191
vt 0.409092 0.236191
vt 0.181819 0.314921
vt 0.272728 0.314921
vt 0.227273 0.393651
vt 0.000000 0.314921
vt 0.090910 0.314921
vt 0.045455 0.393651
vt 0.727273 0.314921
vt 0.818182 0.314921
vt 0.772727 0.393651
vt 0.545455 0.314921
vt 0.636364 0.314921
vt 0.590909 0.393651
vt 0.363637 0.314921
vt 0.454546 0.314921
vt 0.409092 0.393651
vt 0.500000 0.393651
vt 0.454546 0.472382
vt 0.681818 0.393651
vt 0.636364 0.472382
vt 0.863636 0.393651
vt 0.818182 0.472382
vt 0.909091 0.314921
vt 0.136365 0.393651
vt 0.090910 0.472382
vt 0.318182 0.393651
vt 0.272728 0.472382
vt 0.954545 0.236191
vt 1.000000 0.157461
vt 0.409092 0.078731
vt 0.363637 0.000000
s 0
f 508/556/944 521/557/944 520/558/944
f 509/559/945 521/560/945 523/561/945
f 508/562/946 520/563/946 525/564/946
f 508/565/947 525/566/947 527/567/947
f 508/568/948 527/569/948 524/570/948
f 509/559/949 523/561/949 530/571/949
f 510/572/950 522/573/950 532/574/950
f 511/575/951 526/576/951 534/577/951
f 512/578/952 528/579/952 536/580/952
f 513/581/953 529/582/953 538/583/953
f 509/559/954 530/571/954 533/584/954
f 510/572/955 532/574/955 535/585/955
f 511/575/956 534/577/956 537/586/956
f 512/578/957 536/580/957 539/587/957
f 513/581/958 538/583/958 531/588/958
f 514/589/959 540/590/959 545/591/959
f 515/592/960 541/593/960 547/594/960
f 516/595/961 542/596/961 548/597/961
f 517/598/962 543/599/962 549/600/962
f 518/601/963 544/602/963 546/603/963
f 546/603/964 549/604/964 519/605/964
f 546/603/965 544/602/965 549/604/965
f 544/602/966 517/598/966 549/604/966
f 549/600/967 548/606/967 519/607/967
f 549/600/968 543/599/968 548/606/968
f 543/599/969 516/595/969 548/606/969
f 548/597/970 547/608/970 519/609/970
f 548/597/971 542/596/971 547/608/971
f 542/596/972 515/610/972 547/608/972
f 547/594/973 545/611/973 519/612/973
f 547/594/974 541/593/974 545/611/974
f 541/593/975 514/589/975 545/611/975
f 545/591/976 546/613/976 519/614/976
f 545/591/977 540/590/977 546/613/977
f 540/590/978 518/601/978 546/613/978
f 531/588/979 544/602/979 518/601/979
f 531/588/980 538/583/980 544/602/980
f 538/583/981 517/598/981 544/602/981
f 539/587/982 543/599/982 517/598/982
f 539/587/983 536/580/983 543/599/983
f 536/580/984 516/595/984 543/599/984
f 537/586/985 542/596/985 516/595/985
f 537/586/986 534/577/986 542/596/986
f 534/577/987 515/610/987 542/596/987
f 535/585/988 541/593/988 515/592/988
f 535/585/989 532/574/989 541/593/989
f 532/574/990 514/589/990 541/593/990
f 533/584/991 540/590/991 514/589/991
f 533/584/992 530/571/992 540/590/992
f 530/571/993 518/601/993 540/590/993
f 538/583/994 539/587/994 517/598/994
f 538/583/995 529/582/995 539/587/995
f 529/582/996 512/578/996 539/587/996
f 536/580/997 537/586/997 516/595/997
f 536/580/998 528/579/998 537/586/998
f 528/579/999 511/575/999 537/586/999
f 534/577/1000 535/615/1000 515/610/1000
f 534/577/1001 526/576/1001 535/615/1001
f 526/576/1002 510/616/1002 535/615/1002
f 532/574/1003 533/584/1003 514/589/1003
f 532/574/1004 522/573/1004 533/584/1004
f 522/573/1005 509/559/1005 533/584/1005
f 530/571/1006 531/588/1006 518/601/1006
f 530/571/1007 523/561/1007 531/588/1007
f 523/561/1008 513/581/1008 531/588/1008
f 524/570/1009 529/582/1009 513/581/1009
f 524/570/1010 527/569/1010 529/582/1010
f 527/569/1011 512/578/1011 529/582/1011
f 527/567/1012 528/579/1012 512/578/1012
f 527/567/1013 525/566/1013 528/579/1013
f 525/566/1014 511/575/1014 528/579/1014
f 525/564/1015 526/576/1015 511/575/1015
f 525/564/1016 520/563/1016 526/576/1016
f 520/563/1017 510/616/1017 526/576/1017
f 523/561/1018 524/617/1018 513/581/1018
f 523/561/1019 521/560/1019 524/617/1019
f 521/560/1020 508/618/1020 524/617/1020
f 520/558/1021 522/573/1021 510/572/1021
f 520/558/1022 521/557/1022 522/573/1022
f 521/557/1023 509/559/1023 522/573/1023
